<svg viewBox="0 0 33 31" fill="none" xmlns="http://www.w3.org/2000/svg">
<path d="M7.4071 4.61111H5.54645V2.55556V0.5H9.68033H13.8142V2.45726V4.91453V5.41453H14.3142H16.5H18.6858H19.1858V4.91453V2.45726V0.5H23.3197H27.4535V2.55556V5.11111V5.61111H27.9535H30.2268H32V10.2222V14.8333H30.2268H27.9535H27.4535V15.3333V17.8889V19.9444H25.6803H23.4071H22.9071V20.4444V23V25.0556H21.1339H18.8607H18.3607V25.5556V28.1111V30.1667H16.5H14.6393V28.1111V25.5556V25.0556H14.1393H11.8661H10.0929V23V20.4444V19.9444H9.59289H7.31967H5.54645V17.8889V15.3333V14.8333H5.04645H2.77322H1V10.2222V5.61111H2.77322H4.72131V7.66667V10.2222V10.7222H5.22131H7.4071H9.59289H10.0929V10.2222V7.66667V5.11111V4.61111H9.59289H7.4071Z" stroke="#ECF335"/>
</svg>
