<svg viewBox="0 0 33 31" fill="none" xmlns="http://www.w3.org/2000/svg">
<path fill-rule="evenodd" clip-rule="evenodd" d="M5.04645 2.55556V5.11111H2.77322H0.5V10.2222V15.3333H2.77322H5.04645V17.8889V20.4444H7.31967H9.59289V23V25.5556H11.8661H14.1393V28.1111V30.6667H16.5H18.8607V28.1111V25.5556H21.1339H23.4071V23V20.4444H25.6803H27.9535V17.8889V15.3333H30.2268H32.5V10.2222V5.11111H30.2268H27.9535V2.55556V0H23.3197H18.6858V2.45726V4.91453H16.5H14.3142V2.45726V0H9.68033H5.04645V2.55556ZM9.59289 7.66667V10.2222H7.4071H5.22131V7.66667V5.11111H7.4071H9.59289V7.66667Z" fill="#ECF335"/>
</svg>
