<svg width="345" height="28" viewBox="0 0 345 28" fill="none" xmlns="http://www.w3.org/2000/svg">
<path d="M22.1654 12.7795H27.7067V17.853H22.1654V12.7795Z" fill="#101010"/>
<path fill-rule="evenodd" clip-rule="evenodd" d="M5.54134 0H0V5.07351H5.54134V10.147H0V15.2205H5.54134V20.294H11.0827V25.3675H16.624V20.294L22.1654 22.9265V28H27.7067V22.9265H33.2481V28H38.7897V22.9265H33.2481V17.853H38.7897V12.7795H33.2481V7.70598H27.7067V2.63248H22.1654V7.70598L16.624 5.07351V0H11.0827V5.07351H5.54134V0ZM11.0827 10.147V5.07351H16.624V10.147H11.0827ZM11.0827 15.2205V20.294H16.624V15.2205L22.1654 17.853V22.9265H27.7067V17.853H33.2481V12.7795H27.7067V7.70598H22.1654V12.7795L16.624 10.147V15.2205H11.0827ZM11.0827 15.2205H5.54134V10.147H11.0827V15.2205Z" fill="#101010"/>
<path fill-rule="evenodd" clip-rule="evenodd" d="M77.7515 24V28H65.9435V24H62.0076V20H58.0714V28H50.1993V0H73.8156V4H77.7515V16H69.8794V20H73.8156V24H77.7515ZM65.9435 12H69.8794V4H58.0714V16H65.9435V12Z" fill="#101010"/>
<path fill-rule="evenodd" clip-rule="evenodd" d="M181.814 28V24H177.872V20H173.932V16H181.814V4H177.872V0H154.226V28H162.108V20H166.049V24H169.99V28H181.814ZM173.932 12H169.99V16H162.108V4H173.932V12Z" fill="#101010"/>
<path fill-rule="evenodd" clip-rule="evenodd" d="M214.451 28V8H210.51V4H206.569V0H194.745V4H190.804V8H186.863V28H194.745V20H206.569V28H214.451ZM206.569 16H194.745V8H198.686V4H202.628V8H206.569V16Z" fill="#101010"/>
<path d="M247.088 20V24H243.147V28H227.383V24H223.442V20H219.501V8H223.442V4H227.383V0H243.147V4H247.088V8H239.206V4H231.324V8H227.383V20H231.324V24H239.206V20H247.088Z" fill="#101010"/>
<path d="M277.755 4V0H254.108V4H257.866V8.13953H261.99V24H254.108V28H277.755V24H273.942V19.8605H269.873V4H277.755Z" fill="#101010"/>
<path d="M312.363 0V28H304.481V24H300.539V20H296.598V16H292.657V28H284.775V0H292.657V4H296.598V8H300.539V12H304.481V0H312.363Z" fill="#101010"/>
<path d="M345 28V12H333.177V16H337.118V24H329.236V20H325.294V8H329.236V4H345V0H325.294V4H321.354V8H317.412V20H321.354V23.92H325.294V28H345Z" fill="#101010"/>
<path fill-rule="evenodd" clip-rule="evenodd" d="M110.347 24V4H106.411V0H86.7304V4H82.7945V24H86.7304V28H106.411V24H110.347ZM102.475 24H90.6666V4H102.475V24Z" fill="#101010"/>
<path d="M142.942 20V28H135.07V24H131.134V20H127.198V24H123.262V28H115.389V20H119.326V16H123.262V12H119.326V8H115.389V0H123.262V4H127.198V8H131.134V4H135.07V0H142.942V8H139.006V12H135.07V16H139.006V20H142.942Z" fill="#101010"/>
</svg>
