<svg viewBox="0 0 60 23" fill="none" xmlns="http://www.w3.org/2000/svg">
<path fill-rule="evenodd" clip-rule="evenodd" d="M16.4355 5.0893V10.1786H17.4521H18.4686V8.79722V7.41584H19.2581C20.0426 7.41584 20.0478 7.41874 20.0931 7.88841C20.133 8.30399 20.1955 8.36652 20.6105 8.4065C21.0255 8.44664 21.0824 8.50364 21.0824 8.87908C21.0824 9.25671 21.133 9.30615 21.5181 9.30615C21.9054 9.30615 21.9537 9.35457 21.9537 9.74237V10.1786H22.9702H23.9867V9.23344V8.28829H23.4785C23.0106 8.28829 22.9702 8.25368 22.9702 7.85206C22.9702 7.46426 22.9219 7.41584 22.5346 7.41584C22.1473 7.41584 22.0989 7.36741 22.0989 6.97961C22.0989 6.59181 22.1473 6.54338 22.5346 6.54338H22.9702V5.59823V4.65307H23.4785H23.9867V3.19899V1.7449H23.4785C23.0106 1.7449 22.9702 1.7103 22.9702 1.30868C22.9702 0.920872 22.9219 0.872451 22.5346 0.872451C22.1473 0.872451 22.0989 0.82403 22.0989 0.436226V0H19.2672H16.4355V5.0893ZM28.0528 0.872451V1.7449H27.6171H27.1815V2.69006V3.63521H26.7458H26.3102V5.01659V6.39798H25.8019H25.2937V7.34313V8.28829H24.858H24.4224V9.23344V10.1786H25.4389H26.4554V9.30615V8.4337H26.8911C27.2921 8.4337 27.3267 8.39327 27.3267 7.92477V7.41584H29.1419H30.9571V7.92477C30.9571 8.39327 30.9916 8.4337 31.3927 8.4337H31.8284V9.30615V10.1786H32.8519H33.8752L33.8321 9.26979C33.7888 8.36099 33.7888 8.36099 33.3168 8.31548L32.8449 8.26982V7.33397V6.39798H32.4092H31.9736V5.01659V3.63521H31.4653H30.9571V2.69006V1.7449H30.5214H30.0858V0.872451V0H29.0693H28.0528V0.872451ZM37.3466 0.436226V0.872451H36.4753C35.6082 0.872451 35.604 0.874487 35.604 1.29952C35.604 1.67496 35.547 1.73196 35.132 1.77209C34.6601 1.81761 34.6601 1.81761 34.6168 2.72641C34.5741 3.6262 34.5693 3.63521 34.1448 3.63521H33.7162V5.0893V6.54338H34.1448C34.5693 6.54338 34.5741 6.5524 34.6168 7.45219C34.6601 8.36099 34.6601 8.36099 35.132 8.4065C35.547 8.44664 35.604 8.50364 35.604 8.87908C35.604 9.30411 35.6082 9.30615 36.4753 9.30615H37.3466V9.74237V10.1786H39.307H41.2674V9.74935C41.2674 9.32432 41.2764 9.31952 42.175 9.27677C43.0448 9.23519 43.0844 9.21687 43.1285 8.83357C43.1669 8.49869 43.2438 8.4337 43.6004 8.4337H44.0265V7.41584V6.39798H43.01H41.9934V6.90691V7.41584H41.1222H40.2509V7.85206V8.28829H39.3796H38.5083V7.85206V7.41584H37.5644H36.6205V6.90691C36.6205 6.4384 36.5859 6.39798 36.1848 6.39798H35.7492V5.0893V3.78062H36.1848C36.5705 3.78062 36.6205 3.73133 36.6205 3.35138C36.6205 2.92635 36.6295 2.92155 37.5281 2.8788C38.4357 2.83547 38.4357 2.83547 38.4811 2.36289L38.5267 1.89031H39.3887H40.2509V2.39924V2.90817H41.1222H41.9934V3.3444V3.78062H43.01H44.0265V2.76276V1.7449H43.6004C43.2438 1.7449 43.1669 1.6799 43.1285 1.34503C43.0844 0.961732 43.0448 0.943411 42.175 0.901824C41.2764 0.859074 41.2674 0.854275 41.2674 0.429246V0H39.307H37.3466V0.436226ZM44.8978 5.0893V10.1786H48.1651H51.4324V9.23344V8.28829H49.1816H46.9308V7.41584V6.54338H49.1816H51.4324V5.52552V4.50766H49.1816H46.9308V3.19899V1.89031H49.1816H51.4324V0.945156V0H48.1651H44.8978V5.0893ZM52.449 5.0893V10.1786H53.4655H54.482V8.79722V7.41584H55.2715C56.056 7.41584 56.0612 7.41874 56.1065 7.88841C56.1464 8.30399 56.2089 8.36652 56.6239 8.4065C57.0389 8.44664 57.0958 8.50364 57.0958 8.87908C57.0958 9.25671 57.1464 9.30615 57.5315 9.30615C57.9188 9.30615 57.9671 9.35457 57.9671 9.74237V10.1786H58.9836H60.0002V9.23344V8.28829H59.4919C59.024 8.28829 58.9836 8.25368 58.9836 7.85206C58.9836 7.46426 58.9353 7.41584 58.548 7.41584C58.1607 7.41584 58.1124 7.36741 58.1124 6.97961C58.1124 6.59181 58.1607 6.54338 58.548 6.54338H58.9836V5.59823V4.65307H59.4919H60.0002V3.19899V1.7449H59.4919C59.024 1.7449 58.9836 1.7103 58.9836 1.30868C58.9836 0.920872 58.9353 0.872451 58.548 0.872451C58.1607 0.872451 58.1124 0.82403 58.1124 0.436226V0H55.2807H52.449V5.0893ZM21.9537 3.18939V4.48833L21.5544 4.53442C21.2217 4.57266 21.1475 4.65918 21.1096 5.05295L21.064 5.52552H19.7664H18.4686V3.70792V1.89031H20.2111H21.9537V3.18939ZM57.9671 3.18939V4.48833L57.5678 4.53442C57.2351 4.57266 57.1609 4.65918 57.123 5.05295L57.0774 5.52552H55.7798H54.482V3.70792V1.89031H56.2246H57.9671V3.18939ZM29.9406 4.65307V5.52552H29.0693H28.198V4.65307V3.78062H29.0693H29.9406V4.65307Z" fill="#101010"/>
<path fill-rule="evenodd" clip-rule="evenodd" d="M0 17.5727V22.662H3.26734H6.53469V21.7168V20.7717H4.28385H2.03301V16.6275V12.4834H1.01651H0V17.5727ZM7.40598 17.5727V22.662H10.6733H13.9407V21.7168V20.7717H11.6898H9.439V19.8992V19.0268H11.6898H13.9407V18.0089V16.9911H11.6898H9.439V15.6824V14.3737H11.6898H13.9407V13.4286V12.4834H10.6733H7.40598V17.5727ZM18.1519 12.9196V13.3558H17.2806C16.4135 13.3558 16.4093 13.3579 16.4093 13.7829C16.4093 14.1584 16.3524 14.2154 15.9374 14.2555C15.4654 14.301 15.4654 14.301 15.4222 15.2098C15.3795 16.1096 15.3747 16.1186 14.9502 16.1186H14.5215V17.5727V19.0268H14.9502C15.3747 19.0268 15.3795 19.0358 15.4222 19.9356C15.4654 20.8444 15.4654 20.8444 15.9374 20.8899C16.3524 20.93 16.4093 20.987 16.4093 21.3625C16.4093 21.7875 16.4135 21.7895 17.2806 21.7895H18.1519V22.2258V22.662H20.1123H22.0727V22.2327C22.0727 21.8077 22.0817 21.8029 22.9803 21.7602C23.8502 21.7186 23.8898 21.7003 23.9338 21.317C23.9724 20.9811 24.0487 20.9171 24.41 20.9171H24.8402L24.7997 18.9904L24.7592 17.0638H22.0001H19.241L19.198 18.0453L19.1552 19.0268H20.9769H22.7988V19.463C22.7988 19.8508 22.7504 19.8992 22.3632 19.8992C21.9759 19.8992 21.9275 19.9477 21.9275 20.3355V20.7717H20.1123H18.2971V20.3355C18.2971 19.9477 18.2488 19.8992 17.8615 19.8992C17.4604 19.8992 17.4258 19.8588 17.4258 19.3903C17.4258 18.9218 17.3913 18.8814 16.9902 18.8814H16.5545V17.5727V16.264H16.9902C17.3759 16.264 17.4258 16.2147 17.4258 15.8348C17.4258 15.4097 17.4348 15.4049 18.3334 15.3622C19.241 15.3189 19.241 15.3189 19.2865 14.8463L19.3321 14.3737H20.1941H21.0562V14.8826V15.3916H21.9275H22.7988V15.8278V16.264H23.8153H24.8318V15.2462V14.2283H24.4058C24.0491 14.2283 23.9723 14.1633 23.9338 13.8284C23.8898 13.4451 23.8502 13.4268 22.9803 13.3852C22.0817 13.3425 22.0727 13.3377 22.0727 12.9126V12.4834H20.1123H18.1519V12.9196ZM25.8483 17.5727V22.662H29.1157H32.383V21.7168V20.7717H30.1322H27.8813V19.8992V19.0268H30.1322H32.383V18.0089V16.9911H30.1322H27.8813V15.6824V14.3737H30.1322H32.383V13.4286V12.4834H29.1157H25.8483V17.5727ZM33.2543 17.5727V22.662H34.2708H35.2873V19.463V16.264H35.6504C35.9569 16.264 36.0134 16.3319 36.0134 16.7002C36.0134 17.0859 36.0628 17.1365 36.4399 17.1365C36.8148 17.1365 36.8718 17.1935 36.9118 17.609C36.9518 18.0246 37.0142 18.0872 37.4293 18.1271C37.8443 18.1673 37.9012 18.2243 37.9012 18.5997C37.9012 18.9773 37.9517 19.0268 38.3368 19.0268H38.7725V19.9719V20.9171H39.2807C39.7486 20.9171 39.789 20.9517 39.789 21.3533C39.789 21.7411 39.8374 21.7895 40.2246 21.7895C40.6119 21.7895 40.6603 21.838 40.6603 22.2258V22.662H41.6768H42.6933V17.5727V12.4834H41.6768H40.6603V15.6824V18.8814H40.2246C39.8374 18.8814 39.789 18.833 39.789 18.4451C39.789 18.0595 39.7396 18.0089 39.3625 18.0089C38.9876 18.0089 38.9306 17.9519 38.8906 17.5363C38.8526 17.1426 38.7784 17.0561 38.4458 17.0178C38.1113 16.9793 38.0464 16.9024 38.0464 16.5452C38.0464 16.1547 38.0036 16.1186 37.5382 16.1186H37.0299V15.1735V14.2283H36.5943C36.207 14.2283 36.1586 14.1799 36.1586 13.7921C36.1586 13.4043 36.1103 13.3558 35.723 13.3558C35.3357 13.3558 35.2873 13.3074 35.2873 12.9196V12.4834H34.2708H33.2543V17.5727ZM43.5646 17.5727V22.662H46.3963H49.228V22.2258V21.7895H50.1719H51.1158V21.3533C51.1158 20.9655 51.1642 20.9171 51.5514 20.9171H51.9871V19.9811V19.0452L52.459 18.9996L52.931 18.9541V17.5727V16.1913L52.459 16.1458L51.9871 16.1001V15.1643V14.2283H51.5514C51.1642 14.2283 51.1158 14.1799 51.1158 13.7921V13.3558H50.1719H49.228V12.9196V12.4834H46.3963H43.5646V17.5727ZM55.327 12.9196C55.327 13.3212 55.2867 13.3558 54.8188 13.3558C54.3509 13.3558 54.3105 13.3905 54.3105 13.7921C54.3105 14.1799 54.2622 14.2283 53.8749 14.2283H53.4392V15.2462V16.264H53.8749C54.2622 16.264 54.3105 16.3124 54.3105 16.7002C54.3105 17.1019 54.3509 17.1365 54.8188 17.1365C55.3028 17.1365 55.327 17.1608 55.327 17.6454V18.1543H56.1888C57.0207 18.1543 57.0519 18.1681 57.0963 18.5542C57.1345 18.8873 57.2209 18.9616 57.6142 18.9996L58.0861 19.0452V19.9084V20.7717H56.7792H55.4723V19.8265V18.8814H54.4557H53.4392V19.8992V20.9171H53.8749C54.2622 20.9171 54.3105 20.9655 54.3105 21.3533C54.3105 21.7549 54.3509 21.7895 54.8188 21.7895C55.2867 21.7895 55.327 21.8242 55.327 22.2258V22.662H56.7792H58.2313V22.2258C58.2313 21.838 58.2797 21.7895 58.667 21.7895C59.0543 21.7895 59.1026 21.7411 59.1026 21.3533C59.1026 20.9655 59.151 20.9171 59.5383 20.9171H59.9739V19.8992V18.8814H59.5383C59.151 18.8814 59.1026 18.833 59.1026 18.4451C59.1026 18.0595 59.0533 18.0089 58.6761 18.0089C58.3012 18.0089 58.2443 17.9519 58.2042 17.5363C58.1587 17.0638 58.1587 17.0638 57.2511 17.0204C56.3525 16.9777 56.3435 16.9729 56.3435 16.5479C56.3435 16.1679 56.2936 16.1186 55.9079 16.1186H55.4723V15.2462V14.3737H56.7792H58.0861V15.3189V16.264H59.03H59.9739V15.2462V14.2283H59.5383C59.151 14.2283 59.1026 14.1799 59.1026 13.7921C59.1026 13.4043 59.0543 13.3558 58.667 13.3558C58.2797 13.3558 58.2313 13.3074 58.2313 12.9196V12.4834H56.7792H55.327V12.9196ZM48.2386 14.8463C48.2841 15.3189 48.2841 15.3189 49.1917 15.3622C50.0903 15.4049 50.0993 15.4097 50.0993 15.8348C50.0993 16.2147 50.1492 16.264 50.5349 16.264H50.9706V17.5727V18.8814H50.5349C50.1339 18.8814 50.0993 18.9218 50.0993 19.3903V19.8992H49.1554H48.2115V20.3355V20.7717H46.9046H45.5976V17.5727V14.3737H46.8954H48.193L48.2386 14.8463Z" fill="#101010"/>
<path d="M10.1604 2.80129H12.1925V4.64562H10.1604V2.80129Z" fill="#101010"/>
<path d="M12.1925 4.64562H14.2246V6.48994H12.1925V4.64562Z" fill="#101010"/>
<path d="M10.1604 6.48994H12.1925V8.33427H10.1604V6.48994Z" fill="#101010"/>
<path d="M12.1925 8.33427H14.2246V10.1786H12.1925V8.33427Z" fill="#101010"/>
<path d="M8.12833 0.956962H10.1604V2.80129H8.12833V0.956962Z" fill="#101010"/>
<path d="M6.09625 1.84433L8.12833 2.80129V4.64562L6.09625 3.68865V1.84433Z" fill="#101010"/>
<path d="M8.12833 4.64562H10.1604V6.48994H8.12833V4.64562Z" fill="#101010"/>
<path d="M6.09625 5.53298L8.12833 6.48994V8.33427L6.09625 7.37731V5.53298Z" fill="#101010"/>
<path d="M8.12833 8.33427H10.1604V10.1786H8.12833V8.33427Z" fill="#101010"/>
<path d="M4.06417 0H6.09625V1.84433H4.06417V0Z" fill="#101010"/>
<path d="M2.03208 1.84433H4.06417V3.68865H2.03208V1.84433Z" fill="#101010"/>
<path d="M4.06417 3.68865H6.09625V5.53298H4.06417V3.68865Z" fill="#101010"/>
<path d="M2.03208 5.53298H4.06417V7.37731H2.03208V5.53298Z" fill="#101010"/>
<path d="M4.06417 7.37731H6.09625V9.22164H4.06417V7.37731Z" fill="#101010"/>
<path d="M0 0H2.03208V1.84433H0V0Z" fill="#101010"/>
<path d="M0 3.68865H2.03208V5.53298H0V3.68865Z" fill="#101010"/>
</svg>
