<svg width="345" height="28" viewBox="0 0 345 28" fill="none" xmlns="http://www.w3.org/2000/svg">
<path fill-rule="evenodd" clip-rule="evenodd" d="M50.4916 28H56.0477V20.4H58.2054C60.3493 20.4 60.3636 20.408 60.4874 21.7C60.5965 22.8432 60.7672 23.0152 61.9014 23.1252C63.0356 23.2356 63.1912 23.3924 63.1912 24.4252C63.1912 25.464 63.3293 25.6 64.3818 25.6C65.4402 25.6 65.5724 25.7332 65.5724 26.8V28H71.1284V22.8H69.7394C68.4607 22.8 68.3504 22.7048 68.3504 21.6C68.3504 20.5332 68.2182 20.4 67.1598 20.4C66.1014 20.4 65.9692 20.2668 65.9692 19.2C65.9692 18.1332 66.1014 18 67.1598 18H68.3504V12.8H71.1284V4.8H69.7394C68.4607 4.8 68.3504 4.7048 68.3504 3.6C68.3504 2.5332 68.2182 2.4 67.1598 2.4C66.1014 2.4 65.9692 2.2668 65.9692 1.2V0H50.4916V28ZM82.2405 4.8H79.8594V10H77.4782V17.6H74.7002V22.8H72.319V28H77.8751V23.2H79.0656C80.1618 23.2 80.2562 23.0888 80.2562 21.8V20.4H90.1777V21.8C90.1777 23.0888 90.2722 23.2 91.3683 23.2H92.5589V28H98.1527L98.0348 25.5C97.9165 23 97.9165 23 96.6267 22.8748L95.3369 22.7492V17.6H92.9558V10H90.1777V4.8H87.7966V0H82.2405V4.8ZM107.64 2.4H105.258C102.889 2.4 102.877 2.4056 102.877 3.5748C102.877 4.6076 102.722 4.7644 101.588 4.8748C100.298 5 100.298 5 100.179 7.5C100.063 9.9752 100.05 10 98.8896 10H97.7181V18H98.8896C100.05 18 100.063 18.0248 100.179 20.5C100.298 23 100.298 23 101.588 23.1252C102.722 23.2356 102.877 23.3924 102.877 24.4252C102.877 25.5944 102.889 25.6 105.258 25.6H107.64V28H118.355V26.8192C118.355 25.65 118.379 25.6368 120.835 25.5192C123.212 25.4048 123.321 25.3544 123.441 24.3C123.546 23.3788 123.756 23.2 124.731 23.2H125.895V17.6H120.339V20.4H115.577V22.8H110.815V20.4H105.655V19C105.655 17.7112 105.561 17.6 104.465 17.6H103.274V10.4H104.465C105.519 10.4 105.655 10.2644 105.655 9.2192C105.655 8.05 105.68 8.0368 108.136 7.9192C110.616 7.8 110.616 7.8 110.74 6.5L110.865 5.2H115.577V8H120.339V10.4H125.895V4.8H124.731C123.756 4.8 123.546 4.6212 123.441 3.7C123.321 2.6456 123.212 2.5952 120.835 2.4808C118.379 2.3632 118.355 2.35 118.355 1.1808V0H107.64V2.4ZM128.276 28H146.135V22.8H133.832V18H146.135V12.4H133.832V5.2H146.135V0H128.276V28ZM148.913 28H154.469V20.4H156.627C158.771 20.4 158.785 20.408 158.909 21.7C159.018 22.8432 159.189 23.0152 160.323 23.1252C161.457 23.2356 161.613 23.3924 161.613 24.4252C161.613 25.464 161.751 25.6 162.803 25.6C163.862 25.6 163.994 25.7332 163.994 26.8V28H169.55V22.8H168.161C166.882 22.8 166.772 22.7048 166.772 21.6C166.772 20.5332 166.64 20.4 165.581 20.4C164.523 20.4 164.391 20.2668 164.391 19.2C164.391 18.1332 164.523 18 165.581 18H166.772V12.8H169.55V4.8H168.161C166.882 4.8 166.772 4.7048 166.772 3.6C166.772 2.5332 166.64 2.4 165.581 2.4C164.523 2.4 164.391 2.2668 164.391 1.2V0H148.913V28ZM65.5724 12.3468L64.481 12.4736C63.5718 12.5788 63.369 12.8168 63.2654 13.9L63.1408 15.2H56.0477V5.2H65.5724V12.3468ZM163.994 12.3468L162.903 12.4736C161.993 12.5788 161.791 12.8168 161.687 13.9L161.562 15.2H154.469V5.2H163.994V12.3468ZM87.3997 15.2H82.6374V10.4H87.3997V15.2Z" fill="#101010"/>
<path fill-rule="evenodd" clip-rule="evenodd" d="M181.096 28H198.955V22.8H186.652V0H181.096V28ZM201.336 28H219.195V22.8H206.892V18H219.195V12.4H206.892V5.2H219.195V0H201.336V28ZM230.704 2.4H228.323C225.953 2.4 225.942 2.4056 225.942 3.5748C225.942 4.6076 225.786 4.7644 224.652 4.8748C223.362 5 223.362 5 223.244 7.5C223.127 9.9752 223.114 10 221.954 10H220.783V18H221.954C223.114 18 223.127 18.0248 223.244 20.5C223.362 23 223.362 23 224.652 23.1252C225.786 23.2356 225.942 23.3924 225.942 24.4252C225.942 25.5944 225.953 25.6 228.323 25.6H230.704V28H241.419V26.8192C241.419 25.65 241.444 25.6368 243.9 25.5192C246.277 25.4048 246.385 25.3544 246.505 24.3C246.611 23.376 246.819 23.2 247.807 23.2H248.983L248.761 12.6H233.681L233.446 18H243.404V19.2C243.404 20.2668 243.271 20.4 242.213 20.4C241.155 20.4 241.022 20.5332 241.022 21.6V22.8H231.101V21.6C231.101 20.5332 230.969 20.4 229.91 20.4C228.814 20.4 228.72 20.2888 228.72 19C228.72 17.7112 228.625 17.6 227.529 17.6H226.339V10.4H227.529C228.583 10.4 228.72 10.2644 228.72 9.2192C228.72 8.05 228.744 8.0368 231.2 7.9192C233.68 7.8 233.681 7.8 233.805 6.5L233.929 5.2H238.641V8H243.404V10.4H248.96V4.8H247.795C246.821 4.8 246.611 4.6212 246.505 3.7C246.385 2.6456 246.277 2.5952 243.9 2.4808C241.444 2.3632 241.419 2.35 241.419 1.1808V0H230.704V2.4ZM251.738 28H269.596V22.8H257.294V18H269.596V12.4H257.294V5.2H269.596V0H251.738V28ZM271.978 28H277.534V10.4H278.526C279.364 10.4 279.518 10.5868 279.518 11.6C279.518 12.6608 279.653 12.8 280.684 12.8C281.708 12.8 281.864 12.9568 281.973 14.1C282.082 15.2432 282.253 15.4152 283.387 15.5252C284.522 15.6356 284.677 15.7924 284.677 16.8252C284.677 17.864 284.815 18 285.868 18H287.058V23.2H288.447C289.726 23.2 289.836 23.2952 289.836 24.4C289.836 25.4668 289.968 25.6 291.027 25.6C292.085 25.6 292.217 25.7332 292.217 26.8V28H297.774V0H292.217V17.6H291.027C289.968 17.6 289.836 17.4668 289.836 16.4C289.836 15.3392 289.701 15.2 288.671 15.2C287.646 15.2 287.49 15.0432 287.381 13.9C287.277 12.8168 287.075 12.5788 286.165 12.4736C285.251 12.3676 285.074 12.156 285.074 11.1736C285.074 10.0992 284.957 10 283.685 10H282.296V4.8H281.105C280.047 4.8 279.915 4.6668 279.915 3.6C279.915 2.5332 279.783 2.4 278.724 2.4C277.666 2.4 277.534 2.2668 277.534 1.2V0H271.978V28ZM300.155 28H315.632V25.6H320.792V24.4C320.792 23.3332 320.924 23.2 321.982 23.2H323.173V18.0508L325.752 17.8V10.2L323.173 9.9492V4.8H321.982C320.924 4.8 320.792 4.6668 320.792 3.6V2.4H315.632V0H300.155V28ZM332.3 1.2C332.3 2.3048 332.19 2.4 330.911 2.4C329.633 2.4 329.522 2.4952 329.522 3.6C329.522 4.6668 329.39 4.8 328.332 4.8H327.141V10.4H328.332C329.39 10.4 329.522 10.5332 329.522 11.6C329.522 12.7048 329.633 12.8 330.911 12.8C332.234 12.8 332.3 12.8668 332.3 14.2V15.6H334.655C336.929 15.6 337.014 15.638 337.136 16.7C337.24 17.6164 337.476 17.8208 338.551 17.9252L339.841 18.0508V22.8H332.697V17.6H327.141V23.2H328.332C329.39 23.2 329.522 23.3332 329.522 24.4C329.522 25.5048 329.633 25.6 330.911 25.6C332.19 25.6 332.3 25.6952 332.3 26.8V28H340.238V26.8C340.238 25.7332 340.37 25.6 341.428 25.6C342.487 25.6 342.619 25.4668 342.619 24.4C342.619 23.3332 342.751 23.2 343.809 23.2H345V17.6H343.809C342.751 17.6 342.619 17.4668 342.619 16.4C342.619 15.3392 342.484 15.2 341.453 15.2C340.429 15.2 340.273 15.0432 340.163 13.9C340.039 12.6 340.039 12.6 337.559 12.4808C335.103 12.3632 335.078 12.35 335.078 11.1808C335.078 10.1356 334.942 10 333.888 10H332.697V5.2H339.841V10.4H345V4.8H343.809C342.751 4.8 342.619 4.6668 342.619 3.6C342.619 2.5332 342.487 2.4 341.428 2.4C340.37 2.4 340.238 2.2668 340.238 1.2V0H332.3V1.2ZM312.928 6.5C313.053 7.8 313.053 7.8 315.533 7.9192C317.989 8.0368 318.013 8.05 318.013 9.2192C318.013 10.2644 318.15 10.4 319.204 10.4H320.395V17.6H319.204C318.108 17.6 318.013 17.7112 318.013 19V20.4H312.854V22.8H305.711V5.2H312.804L312.928 6.5Z" fill="#101010"/>
<path d="M27.7675 7.70598H33.3211V12.7795H27.7675V7.70598Z" fill="#101010"/>
<path d="M33.3211 12.7795H38.8746V17.853H33.3211V12.7795Z" fill="#101010"/>
<path d="M27.7675 17.853H33.3211V22.9265H27.7675V17.853Z" fill="#101010"/>
<path d="M33.3211 22.9265H38.8746V28H33.3211V22.9265Z" fill="#101010"/>
<path d="M22.214 2.63248H27.7675V7.70598H22.214V2.63248Z" fill="#101010"/>
<path d="M16.6605 5.0735L22.214 7.70598V12.7795L16.6605 10.147V5.0735Z" fill="#101010"/>
<path d="M22.214 12.7795H27.7675V17.853H22.214V12.7795Z" fill="#101010"/>
<path d="M16.6605 15.2205L22.214 17.853V22.9265L16.6605 20.294V15.2205Z" fill="#101010"/>
<path d="M22.214 22.9265H27.7675V28H22.214V22.9265Z" fill="#101010"/>
<path d="M11.107 0H16.6605V5.0735H11.107V0Z" fill="#101010"/>
<path d="M5.55351 5.0735H11.107V10.147H5.55351V5.0735Z" fill="#101010"/>
<path d="M11.107 10.147H16.6605V15.2205H11.107V10.147Z" fill="#101010"/>
<path d="M5.55351 15.2205H11.107V20.294H5.55351V15.2205Z" fill="#101010"/>
<path d="M11.107 20.294H16.6605V25.3675H11.107V20.294Z" fill="#101010"/>
<path d="M0 0H5.55351V5.0735H0V0Z" fill="#101010"/>
<path d="M0 10.147H5.55351V15.2205H0V10.147Z" fill="#101010"/>
</svg>
