<svg width="556" height="210" viewBox="0 0 556 210" fill="none" xmlns="http://www.w3.org/2000/svg">
<path fill-rule="evenodd" clip-rule="evenodd" d="M152.3 47.161V94.322H161.719H171.139V81.5212V68.7203H178.456C185.725 68.7203 185.773 68.7473 186.193 73.0996C186.563 76.9506 187.142 77.53 190.988 77.9006C194.834 78.2725 195.361 78.8007 195.361 82.2798C195.361 85.7792 195.829 86.2373 199.398 86.2373C202.987 86.2373 203.435 86.686 203.435 90.2797V94.322H212.855H222.275V85.5636V76.8051H217.565C213.229 76.8051 212.855 76.4844 212.855 72.7627C212.855 69.169 212.407 68.7203 208.818 68.7203C205.229 68.7203 204.781 68.2716 204.781 64.678C204.781 61.0843 205.229 60.6356 208.818 60.6356H212.855V51.8771V43.1186H217.565H222.275V29.6441V16.1695H217.565C213.229 16.1695 212.855 15.8488 212.855 12.1271C212.855 8.53345 212.407 8.08475 208.818 8.08475C205.229 8.08475 204.781 7.63604 204.781 4.04237V0H178.54H152.3V47.161ZM259.953 8.08475V16.1695H255.916H251.879V24.928V33.6864H247.842H243.805V46.4873V59.2881H239.095H234.386V68.0466V76.8051H230.349H226.312V85.5636V94.322H235.731H245.151V86.2373V78.1525H249.188C252.905 78.1525 253.225 77.778 253.225 73.4364V68.7203H270.046H286.867V73.4364C286.867 77.778 287.187 78.1525 290.904 78.1525H294.941V86.2373V94.322H304.425H313.908L313.508 85.9004C313.107 77.4788 313.107 77.4788 308.734 77.0571L304.36 76.634V67.9617V59.2881H300.323H296.286V46.4873V33.6864H291.576H286.867V24.928V16.1695H282.83H278.793V8.08475V0H269.373H259.953V8.08475ZM346.076 4.04237V8.08475H338.002C329.967 8.08475 329.928 8.10361 329.928 12.0422C329.928 15.5214 329.4 16.0496 325.554 16.4215C321.181 16.8432 321.181 16.8432 320.78 25.2648C320.384 33.6029 320.34 33.6864 316.407 33.6864H312.434V47.161V60.6356H316.407C320.34 60.6356 320.384 60.7191 320.78 69.0572C321.181 77.4788 321.181 77.4788 325.554 77.9006C329.4 78.2725 329.928 78.8007 329.928 82.2798C329.928 86.2184 329.967 86.2373 338.002 86.2373H346.076V90.2797V94.322H364.242H382.409V90.3443C382.409 86.4057 382.492 86.3613 390.819 85.9651C398.88 85.5797 399.247 85.41 399.655 81.8581C400.012 78.7549 400.723 78.1525 404.028 78.1525H407.977V68.7203V59.2881H398.557H389.137V64.0042V68.7203H381.063H372.989V72.7627V76.8051H364.915H356.841V72.7627V68.7203H348.094H339.348V64.0042C339.348 59.6627 339.027 59.2881 335.311 59.2881H331.274V47.161V35.0339H335.311C338.885 35.0339 339.348 34.5771 339.348 31.0562C339.348 27.1176 339.431 27.0731 347.758 26.677C356.168 26.2754 356.168 26.2754 356.59 21.8962L357.012 17.517H365H372.989V22.2331V26.9492H381.063H389.137V30.9915V35.0339H398.557H407.977V25.6017V16.1695H404.028C400.723 16.1695 400.012 15.5672 399.655 12.464C399.247 8.91209 398.88 8.7423 390.819 8.35693C382.492 7.96078 382.409 7.91631 382.409 3.97769V0H364.242H346.076V4.04237ZM416.051 47.161V94.322H446.328H476.606V85.5636V76.8051H455.748H434.89V68.7203V60.6356H455.748H476.606V51.2034V41.7712H455.748H434.89V29.6441V17.517H455.748H476.606V8.75848V0H446.328H416.051V47.161ZM486.025 47.161V94.322H495.445H504.865V81.5212V68.7203H512.181C519.45 68.7203 519.499 68.7473 519.919 73.0996C520.289 76.9506 520.867 77.53 524.713 77.9006C528.559 78.2725 529.087 78.8007 529.087 82.2798C529.087 85.7792 529.555 86.2373 533.124 86.2373C536.713 86.2373 537.161 86.686 537.161 90.2797V94.322H546.58H556V85.5636V76.8051H551.29C546.954 76.8051 546.58 76.4844 546.58 72.7627C546.58 69.169 546.132 68.7203 542.543 68.7203C538.954 68.7203 538.506 68.2716 538.506 64.678C538.506 61.0843 538.954 60.6356 542.543 60.6356H546.58V51.8771V43.1186H551.29H556V29.6441V16.1695H551.29C546.954 16.1695 546.58 15.8488 546.58 12.1271C546.58 8.53345 546.132 8.08475 542.543 8.08475C538.954 8.08475 538.506 7.63604 538.506 4.04237V0H512.266H486.025V47.161ZM203.435 29.5551V41.592L199.735 42.0191C196.652 42.3735 195.964 43.1752 195.613 46.8242L195.19 51.2034H183.165H171.139V34.3602V17.517H187.287H203.435V29.5551ZM537.161 29.5551V41.592L533.46 42.0191C530.377 42.3735 529.69 43.1752 529.338 46.8242L528.916 51.2034H516.891H504.865V34.3602V17.517H521.013H537.161V29.5551ZM277.447 43.1186V51.2034H269.373H261.299V43.1186V35.0339H269.373H277.447V43.1186Z" fill="#ECF335"/>
<path fill-rule="evenodd" clip-rule="evenodd" d="M0 162.841V210.002H30.2775H60.555V201.243V192.485H39.6972H18.8393V154.082V115.68H9.41966H0V162.841ZM68.629 162.841V210.002H98.9065H129.184V201.243V192.485H108.326H87.4684V184.4V176.315H108.326H129.184V166.883V157.451H108.326H87.4684V145.324V133.197H108.326H129.184V124.438V115.68H98.9065H68.629V162.841ZM168.208 119.722V123.764H160.134C152.099 123.764 152.06 123.783 152.06 127.722C152.06 131.201 151.533 131.729 147.687 132.101C143.314 132.523 143.314 132.523 142.913 140.945C142.517 149.283 142.473 149.366 138.539 149.366H134.567V162.841V176.315H138.539C142.473 176.315 142.517 176.399 142.913 184.737C143.314 193.159 143.314 193.159 147.687 193.58C151.533 193.952 152.06 194.48 152.06 197.959C152.06 201.898 152.099 201.917 160.134 201.917H168.208V205.959V210.002H186.375H204.541V206.024C204.541 202.085 204.625 202.041 212.952 201.645C221.012 201.259 221.38 201.09 221.788 197.538C222.145 194.425 222.852 193.832 226.2 193.832H230.187L229.812 175.978L229.436 158.125H203.869H178.301L177.903 167.22L177.506 176.315H194.387H211.27V180.358C211.27 183.951 210.822 184.4 207.233 184.4C203.644 184.4 203.196 184.849 203.196 188.442V192.485H186.375H169.554V188.442C169.554 184.849 169.106 184.4 165.517 184.4C161.8 184.4 161.48 184.025 161.48 179.684C161.48 175.342 161.16 174.968 157.443 174.968H153.406V162.841V150.714H157.443C161.017 150.714 161.48 150.257 161.48 146.736C161.48 142.797 161.563 142.753 169.89 142.357C178.301 141.955 178.301 141.955 178.722 137.576L179.145 133.197H187.133H195.122V137.913V142.629H203.196H211.27V146.671V150.714H220.689H230.109V141.281V131.849H226.161C222.856 131.849 222.144 131.247 221.788 128.144C221.38 124.592 221.012 124.422 212.952 124.037C204.625 123.64 204.541 123.596 204.541 119.657V115.68H186.375H168.208V119.722ZM239.529 162.841V210.002H269.806H300.084V201.243V192.485H279.226H258.368V184.4V176.315H279.226H300.084V166.883V157.451H279.226H258.368V145.324V133.197H279.226H300.084V124.438V115.68H269.806H239.529V162.841ZM308.158 162.841V210.002H317.577H326.997V180.358V150.714H330.361C333.202 150.714 333.725 151.343 333.725 154.756C333.725 158.329 334.183 158.798 337.678 158.798C341.152 158.798 341.68 159.327 342.051 163.178C342.421 167.029 343 167.608 346.846 167.979C350.692 168.35 351.219 168.879 351.219 172.358C351.219 175.857 351.687 176.315 355.256 176.315H359.293V185.074V193.832H364.003C368.339 193.832 368.713 194.153 368.713 197.875C368.713 201.468 369.161 201.917 372.75 201.917C376.339 201.917 376.787 202.366 376.787 205.959V210.002H386.206H395.626V162.841V115.68H386.206H376.787V145.324V174.968H372.75C369.161 174.968 368.713 174.519 368.713 170.925C368.713 167.352 368.255 166.883 364.761 166.883C361.286 166.883 360.759 166.355 360.387 162.504C360.036 158.855 359.348 158.053 356.265 157.699C353.166 157.342 352.565 156.629 352.565 153.32C352.565 149.7 352.168 149.366 347.855 149.366H343.145V140.608V131.849H339.108C335.519 131.849 335.071 131.4 335.071 127.807C335.071 124.213 334.623 123.764 331.034 123.764C327.445 123.764 326.997 123.316 326.997 119.722V115.68H317.577H308.158V162.841ZM403.7 162.841V210.002H429.941H456.181V205.959V201.917H464.928H473.675V197.875C473.675 194.281 474.123 193.832 477.712 193.832H481.749V185.159V176.486L486.122 176.063L490.496 175.642V162.841V150.04L486.122 149.618L481.749 149.195V140.523V131.849H477.712C474.123 131.849 473.675 131.4 473.675 127.807V123.764H464.928H456.181V119.722V115.68H429.941H403.7V162.841ZM512.699 119.722C512.699 123.444 512.325 123.764 507.989 123.764C503.654 123.764 503.28 124.085 503.28 127.807C503.28 131.4 502.831 131.849 499.243 131.849H495.206V141.281V150.714H499.243C502.831 150.714 503.28 151.162 503.28 154.756C503.28 158.478 503.654 158.798 507.989 158.798C512.474 158.798 512.699 159.023 512.699 163.514V168.231H520.684C528.394 168.231 528.683 168.359 529.095 171.936C529.449 175.023 530.249 175.712 533.893 176.063L538.267 176.486V184.485V192.485H526.156H514.045V183.726V174.968H504.625H495.206V184.4V193.832H499.243C502.831 193.832 503.28 194.281 503.28 197.875C503.28 201.596 503.654 201.917 507.989 201.917C512.325 201.917 512.699 202.238 512.699 205.959V210.002H526.156H539.613V205.959C539.613 202.366 540.061 201.917 543.65 201.917C547.238 201.917 547.687 201.468 547.687 197.875C547.687 194.281 548.135 193.832 551.724 193.832H555.761V184.4V174.968H551.724C548.135 174.968 547.687 174.519 547.687 170.925C547.687 167.352 547.229 166.883 543.734 166.883C540.26 166.883 539.732 166.355 539.361 162.504C538.94 158.125 538.94 158.125 530.529 157.723C522.202 157.327 522.119 157.282 522.119 153.344C522.119 149.823 521.656 149.366 518.082 149.366H514.045V141.281V133.197H526.156H538.267V141.955V150.714H547.014H555.761V141.281V131.849H551.724C548.135 131.849 547.687 131.4 547.687 127.807C547.687 124.213 547.238 123.764 543.65 123.764C540.061 123.764 539.613 123.316 539.613 119.722V115.68H526.156H512.699V119.722ZM447.013 137.576C447.434 141.955 447.434 141.955 455.845 142.357C464.172 142.753 464.255 142.797 464.255 146.736C464.255 150.257 464.718 150.714 468.292 150.714H472.329V162.841V174.968H468.292C464.576 174.968 464.255 175.342 464.255 179.684V184.4H455.508H446.762V188.442V192.485H434.651H422.539V162.841V133.197H434.566H446.591L447.013 137.576Z" fill="#ECF335"/>
<path d="M94.1536 25.9587H112.984V43.0495H94.1536V25.9587Z" fill="#ECF335"/>
<path d="M112.984 43.0495H131.815V60.1404H112.984V43.0495Z" fill="#ECF335"/>
<path d="M94.1536 60.1404H112.984V77.2312H94.1536V60.1404Z" fill="#ECF335"/>
<path d="M112.984 77.2312H131.815V94.322H112.984V77.2312Z" fill="#ECF335"/>
<path d="M75.3229 8.86788H94.1536V25.9587H75.3229V8.86788Z" fill="#ECF335"/>
<path d="M56.4921 17.0908L75.3229 25.9587V43.0495L56.4921 34.1817V17.0908Z" fill="#ECF335"/>
<path d="M75.3229 43.0495H94.1536V60.1404H75.3229V43.0495Z" fill="#ECF335"/>
<path d="M56.4921 51.2725L75.3229 60.1404V77.2312L56.4921 68.3633V51.2725Z" fill="#ECF335"/>
<path d="M75.3229 77.2312H94.1536V94.322H75.3229V77.2312Z" fill="#ECF335"/>
<path d="M37.6614 0H56.4921V17.0908H37.6614V0Z" fill="#ECF335"/>
<path d="M18.8307 17.0908H37.6614V34.1817H18.8307V17.0908Z" fill="#ECF335"/>
<path d="M37.6614 34.1817H56.4921V51.2725H37.6614V34.1817Z" fill="#ECF335"/>
<path d="M18.8307 51.2725H37.6614V68.3633H18.8307V51.2725Z" fill="#ECF335"/>
<path d="M37.6614 68.3633H56.4921V85.4542H37.6614V68.3633Z" fill="#ECF335"/>
<path d="M0 0H18.8307V17.0908H0V0Z" fill="#ECF335"/>
<path d="M0 34.1817H18.8307V51.2725H0V34.1817Z" fill="#ECF335"/>
</svg>
