<svg width="60" height="24" viewBox="0 0 60 24" fill="none" xmlns="http://www.w3.org/2000/svg">
<path fill-rule="evenodd" clip-rule="evenodd" d="M8.67656 24V22.7138H7.43701V21.4276H6.19756V20.1414H8.67656V16.2829H7.43701V14.9967H0V24H2.479V21.4276H3.71855V22.7138H4.95801V24H8.67656ZM6.19756 18.8552H4.95801V20.1414H2.479V16.2829H6.19756V18.8552Z" fill="#101010"/>
<path fill-rule="evenodd" clip-rule="evenodd" d="M18.9413 24V17.569H17.7017V16.2829H16.4623V14.9967H12.7437V16.2829H11.5042V17.569H10.2647V24H12.7437V21.4276H16.4623V24H18.9413ZM16.4623 20.1414H12.7437V17.569H13.9832V16.2829H15.2227V17.569H16.4623V20.1414Z" fill="#101010"/>
<path d="M29.206 21.4276V22.7138H27.9664V24H23.0084V22.7138H21.7689V21.4276H20.5294V17.569H21.7689V16.2829H23.0084V14.9967H27.9664V16.2829H29.206V17.569H26.7269V16.2829H24.2479V17.569H23.0084V21.4276H24.2479V22.7138H26.7269V21.4276H29.206Z" fill="#101010"/>
<path d="M38.8509 16.2829V14.9967H31.4138V16.2829H32.5956V17.6139H33.8928V22.7138H31.4138V24H38.8509V22.7138H37.6517V21.3828H36.3719V16.2829H38.8509Z" fill="#101010"/>
<path d="M49.7353 14.9967V24H47.2563V22.7138H46.0167V21.4276H44.7773V20.1414H43.5377V24H41.0587V14.9967H43.5377V16.2829H44.7773V17.569H46.0167V18.8552H47.2563V14.9967H49.7353Z" fill="#101010"/>
<path d="M60 24V18.8552H56.2814V20.1414H57.521V22.7138H55.042V21.4276H53.8024V17.569H55.042V16.2829H60V14.9967H53.8024V16.2829H52.563V17.569H51.3234V21.4276H52.563V22.6881H53.8024V24H60Z" fill="#101010"/>
<path d="M31.2456 10.3782V12.1079H26.1849V10.3782H24.4979V8.64852H22.811V12.1079H19.4372V0H29.5587V1.7297H31.2456V6.91882H27.8718V8.64852H29.5587V10.3782H31.2456ZM26.1849 5.18911H27.8718V1.7297H22.811V6.91882H26.1849V5.18911Z" fill="#101010"/>
<path d="M45.2154 1.7297V10.3782H43.5285V12.1079H35.0939V10.3782H33.407V1.7297H35.0939V0H43.5285V1.7297H45.2154ZM36.7808 10.3782H41.8416V1.7297H36.7808V10.3782Z" fill="#101010"/>
<path d="M59.1853 8.64852V12.1079H55.8114V10.3782H54.1245V8.64852H52.4376V10.3782H50.7507V12.1079H47.3768V8.64852H49.0637V6.91882H50.7507V5.18911H49.0637V3.45941H47.3768V0H50.7507V1.7297H52.4376V3.45941H54.1245V1.7297H55.8114V0H59.1853V3.45941H57.4983V5.18911H55.8114V6.91882H57.4983V8.64852H59.1853Z" fill="#101010"/>
<path d="M11.8748 3.33227H14.2497V5.52619H11.8748V3.33227Z" fill="#101010"/>
<path d="M14.2497 5.52619H16.6247V7.7201H14.2497V5.52619Z" fill="#101010"/>
<path d="M11.8748 7.7201H14.2497V9.91402H11.8748V7.7201Z" fill="#101010"/>
<path d="M14.2497 9.91402H16.6247V12.1079H14.2497V9.91402Z" fill="#101010"/>
<path d="M9.49982 1.13835H11.8748V3.33227H9.49982V1.13835Z" fill="#101010"/>
<path d="M7.12487 2.19392L9.49982 3.33227V5.52619L7.12487 4.38783V2.19392Z" fill="#101010"/>
<path d="M9.49982 5.52619H11.8748V7.7201H9.49982V5.52619Z" fill="#101010"/>
<path d="M7.12487 6.58175L9.49982 7.7201V9.91402L7.12487 8.77566V6.58175Z" fill="#101010"/>
<path d="M9.49982 9.91402H11.8748V12.1079H9.49982V9.91402Z" fill="#101010"/>
<path d="M4.74991 0H7.12487V2.19392H4.74991V0Z" fill="#101010"/>
<path d="M2.37495 2.19392H4.74991V4.38783H2.37495V2.19392Z" fill="#101010"/>
<path d="M4.74991 4.38783H7.12487V6.58175H4.74991V4.38783Z" fill="#101010"/>
<path d="M2.37495 6.58175H4.74991V8.77566H2.37495V6.58175Z" fill="#101010"/>
<path d="M4.74991 8.77566H7.12487V10.9696H4.74991V8.77566Z" fill="#101010"/>
<path d="M0 0H2.37495V2.19392H0V0Z" fill="#101010"/>
<path d="M0 4.38783H2.37495V6.58175H0V4.38783Z" fill="#101010"/>
</svg>
