<svg viewBox="0 0 38 36" fill="none" xmlns="http://www.w3.org/2000/svg">
    <path fill-rule="evenodd" clip-rule="evenodd" d="M4.6505 1.98H7.18277V5.76H2.32926V7.9011L0.11353 8.01L0 16.02H2.32926V18H4.6505V20.16H11.4032V21.78H13.9154L14.041 24.03L16.6788 24.1371V32.04H11.4032V36H25.9637V32.04H21.1102V24.12H23.6425V21.78H25.9637V20.16H32.9275V18H35.4597V16.02H38L37.8865 8.01L35.4597 7.902V5.76H30.8172V1.98H32.9275V0H4.6505V1.98ZM7.18277 16.02H9.50401V17.82H4.6505V15.84H2.32926V8.1H7.18277V16.02ZM35.2487 15.84H32.7164V17.82H28.285V16.02H30.8172V8.1H35.2487V15.84Z" fill="currentColor"/>
</svg>
