<svg width="149" height="28" viewBox="0 0 149 28" fill="none" xmlns="http://www.w3.org/2000/svg">
<path d="M84.7813 27.9997C83.2176 27.9997 81.7981 27.7464 80.5231 27.2399C79.2721 26.7091 78.1895 25.9975 77.2753 25.105C76.3851 24.1883 75.6995 23.1148 75.2183 21.8846C74.7372 20.6543 74.4966 19.3275 74.4966 17.9043C74.4966 16.4569 74.7492 15.1181 75.2544 13.8878C75.7837 12.6334 76.4934 11.5479 77.3835 10.6312C78.2977 9.71451 79.3683 8.99083 80.5953 8.46012C81.8463 7.92942 83.2055 7.66406 84.6731 7.66406C86.0925 7.66406 87.4036 7.91735 88.6065 8.42393C89.8335 8.90639 90.88 9.5939 91.7461 10.4864C92.6362 11.3549 93.3339 12.4042 93.8391 13.6345C94.3443 14.8406 94.5969 16.1674 94.5969 17.6148V18.9536H77.3835C77.4798 19.8944 77.7324 20.7508 78.1414 21.5227C78.5503 22.2946 79.0676 22.9701 79.6931 23.549C80.3426 24.1039 81.0884 24.5381 81.9305 24.8517C82.7966 25.1653 83.7468 25.3221 84.7813 25.3221C86.3451 25.3221 87.6562 24.9964 88.7148 24.3451C89.7733 23.6938 90.6394 22.765 91.313 21.5589L93.8391 23.0425C92.8287 24.6104 91.6017 25.8287 90.1583 26.6971C88.7148 27.5655 86.9225 27.9997 84.7813 27.9997ZM84.6731 10.3055C83.7348 10.3055 82.8567 10.4623 82.0387 10.7759C81.2448 11.0654 80.5351 11.4876 79.9096 12.0424C79.2841 12.5731 78.7548 13.2123 78.3218 13.9602C77.9128 14.6838 77.6241 15.4799 77.4557 16.3483H91.5656C91.3251 14.4909 90.5913 13.0194 89.3644 11.9338C88.1374 10.8483 86.5736 10.3055 84.6731 10.3055Z" fill="#101010"/>
<path d="M64.3933 18.0805L60.2433 22.495V27.597H57.3203V0H60.2433V19.0937L70.5642 8.05744H74.2811L66.5585 16.2351L74.7502 27.597H71.1776L64.3933 18.0805Z" fill="#101010"/>
<path d="M45.4728 27.9997C44.0293 27.9997 42.6821 27.7344 41.4311 27.2037C40.1801 26.673 39.0975 25.9493 38.1833 25.0326C37.2691 24.1159 36.5473 23.0425 36.0181 21.8122C35.5129 20.5819 35.2603 19.2551 35.2603 17.8319C35.2603 16.3845 35.5249 15.0457 36.0542 13.8154C36.5834 12.561 37.3052 11.4876 38.2194 10.595C39.1336 9.67833 40.2041 8.9667 41.4311 8.46012C42.6821 7.92942 44.0173 7.66406 45.4367 7.66406C46.4953 7.66406 47.4937 7.8088 48.4319 8.09828C49.3943 8.38775 50.2724 8.79784 51.0663 9.32855C51.8602 9.83513 52.5579 10.4623 53.1593 11.2101C53.7848 11.9338 54.278 12.7299 54.6389 13.5983L51.9324 14.7924C51.355 13.4415 50.5009 12.3801 49.3702 11.6082C48.2395 10.8362 46.9163 10.4503 45.4007 10.4503C44.3902 10.4503 43.4399 10.6432 42.5498 11.0292C41.6837 11.4152 40.9259 11.9459 40.2763 12.6213C39.6268 13.2727 39.1215 14.0566 38.7607 14.9733C38.3998 15.8659 38.2194 16.8187 38.2194 17.8319C38.2194 18.8451 38.3998 19.7979 38.7607 20.6905C39.1456 21.583 39.6628 22.367 40.3124 23.0425C40.962 23.7179 41.7318 24.2486 42.622 24.6346C43.5121 25.0205 44.4744 25.2135 45.5089 25.2135C47.0967 25.2135 48.4319 24.7914 49.5145 23.9471C50.6212 23.0786 51.4512 21.9931 52.0045 20.6905L54.7471 21.8484C53.9773 23.6576 52.7984 25.1412 51.2106 26.2991C49.6469 27.4328 47.7343 27.9997 45.4728 27.9997Z" fill="#101010"/>
<path d="M23.7752 27.9997C22.3317 27.9997 20.9965 27.7464 19.7696 27.2399C18.5426 26.7091 17.472 25.9855 16.5578 25.0688C15.6677 24.1521 14.958 23.0786 14.4287 21.8484C13.9235 20.6181 13.6709 19.2793 13.6709 17.8319C13.6709 16.4086 13.9235 15.0819 14.4287 13.8516C14.958 12.5972 15.6797 11.5117 16.5939 10.595C17.5081 9.67833 18.5787 8.9667 19.8057 8.46012C21.0326 7.92942 22.3558 7.66406 23.7752 7.66406C25.1946 7.66406 26.5178 7.92942 27.7448 8.46012C28.9958 8.9667 30.0784 9.67833 30.9926 10.595C31.9068 11.5117 32.6165 12.5972 33.1217 13.8516C33.651 15.0819 33.9156 16.4086 33.9156 17.8319C33.9156 19.2551 33.651 20.5819 33.1217 21.8122C32.6165 23.0425 31.9068 24.1159 30.9926 25.0326C30.0784 25.9493 29.0078 26.673 27.7808 27.2037C26.5539 27.7344 25.2187 27.9997 23.7752 27.9997ZM23.7752 25.1773C24.7856 25.1773 25.7239 24.9964 26.59 24.6346C27.4801 24.2486 28.2379 23.73 28.8635 23.0786C29.513 22.4032 30.0182 21.6192 30.3791 20.7266C30.74 19.8341 30.9204 18.8692 30.9204 17.8319C30.9204 16.7946 30.74 15.8297 30.3791 14.9371C30.0182 14.0205 29.513 13.2365 28.8635 12.5851C28.2139 11.9097 27.4561 11.3911 26.59 11.0292C25.7239 10.6432 24.7856 10.4503 23.7752 10.4503C22.7648 10.4503 21.8265 10.6432 20.9604 11.0292C20.0944 11.3911 19.3365 11.9097 18.687 12.5851C18.0615 13.2365 17.5683 14.0205 17.2074 14.9371C16.8465 15.8297 16.6661 16.7946 16.6661 17.8319C16.6661 18.8933 16.8465 19.8703 17.2074 20.7628C17.5683 21.6554 18.0615 22.4273 18.687 23.0786C19.3365 23.73 20.0944 24.2486 20.9604 24.6346C21.8265 24.9964 22.7648 25.1773 23.7752 25.1773Z" fill="#101010"/>
<rect y="10.6721" width="2.65962" height="16.8898" fill="#101010"/>
<rect x="2.65771" y="10.6719" width="2.66681" height="11.0817" transform="rotate(-90 2.65771 10.6719)" fill="#101010"/>
<path d="M99.6123 3.44141V21.7044C99.6123 23.8755 100.081 25.4555 101.02 26.4446C101.958 27.4095 103.329 27.8919 105.134 27.8919C105.952 27.8919 106.685 27.7713 107.335 27.5301C107.984 27.2889 108.586 26.9511 109.139 26.5169L107.587 24.1649C106.914 24.7921 106.168 25.1057 105.35 25.1057C104.508 25.1057 103.822 24.8404 103.293 24.3097C102.788 23.779 102.535 22.8864 102.535 21.632V10.8949H109.139V8.06286H102.535V3.44142L99.6123 3.44141Z" fill="#101010"/>
<path d="M98.4134 8.05078H95.3105V11.0404H98.4134V8.05078Z" fill="#101010"/>
<rect x="122.336" y="4.88281" width="7.23145" height="4.53188" fill="#101010"/>
<rect x="141.768" y="4.88281" width="7.23145" height="4.53188" fill="#101010"/>
<rect x="122.336" y="23.4648" width="7.23145" height="4.53188" fill="#101010"/>
<rect x="141.768" y="23.4648" width="7.23145" height="4.53188" fill="#101010"/>
<rect x="141.765" y="23.4648" width="4.06769" height="4.98507" transform="rotate(-180 141.765 23.4648)" fill="#101010"/>
<rect x="141.765" y="14.3945" width="4.06769" height="4.98507" transform="rotate(-180 141.765 14.3945)" fill="#101010"/>
<rect x="133.643" y="23.4648" width="4.06769" height="4.98507" transform="rotate(-180 133.643 23.4648)" fill="#101010"/>
<rect x="133.643" y="14.3945" width="4.06769" height="4.98507" transform="rotate(-180 133.643 14.3945)" fill="#101010"/>
<rect x="133.643" y="14.3945" width="4.06769" height="4.0787" fill="#101010"/>
</svg>
