<svg viewBox="0 0 34 35" fill="none" xmlns="http://www.w3.org/2000/svg">
<path d="M21 7H19V5H21V7Z" fill="#ECF335"/>
<path d="M19 6H17V4H19V6Z" fill="#ECF335"/>
<path d="M19 8H17V6H19V8Z" fill="#ECF335"/>
<path d="M17 7H15V5H17V7Z" fill="#ECF335"/>
<path d="M17 5H15V2H17V5Z" fill="#ECF335"/>
<path d="M17 10H15L15 7H17V10Z" fill="#ECF335"/>
<path d="M15 8H13V6H15V8Z" fill="#ECF335"/>
<path d="M15 6H13V4H15V6Z" fill="#ECF335"/>
<path d="M15 4H13V2H15V4Z" fill="#ECF335"/>
<path d="M15 2H13V0H15V2Z" fill="#ECF335"/>
<path d="M15 10H13V8H15L15 10Z" fill="#ECF335"/>
<path d="M15 12H13L13 10H15V12Z" fill="#ECF335"/>
<path d="M7 26H5V22H7V26Z" fill="#ECF335"/>
<path d="M3 16H1V10H3V16Z" fill="#ECF335"/>
<path d="M5 15H3L3 10L5 9.99999V15Z" fill="#ECF335"/>
<path d="M5 12H3V8H5V12Z" fill="#ECF335"/>
<path d="M7 12L5 12V8L7 7.99999V12Z" fill="#ECF335"/>
<path d="M9 9.99999H5L5 5.99999H9V9.99999Z" fill="#ECF335"/>
<path d="M11 7.99999L7 7.99999V3.99999H11V7.99999Z" fill="#ECF335"/>
<path d="M5 24H3V19H5V24Z" fill="#ECF335"/>
<path d="M1 20H0V14H1V20Z" fill="#ECF335"/>
<path d="M8 27H7V25H8V27Z" fill="#ECF335"/>
<path d="M13 4.99999H9V2.99999H13V4.99999Z" fill="#ECF335"/>
<path d="M13 8L11 7.99999V2.99999H13L13 8Z" fill="#ECF335"/>
<path d="M3 22H1V12L3 12L3 22Z" fill="#ECF335"/>
<path d="M13 28H15V30H13V28Z" fill="#ECF335"/>
<path d="M15 29H17V31H15V29Z" fill="#ECF335"/>
<path d="M15 27H17V29H15V27Z" fill="#ECF335"/>
<path d="M17 28H19V30H17V28Z" fill="#ECF335"/>
<path d="M17 30H19V33H17V30Z" fill="#ECF335"/>
<path d="M17 25H19L19 28H17L17 25Z" fill="#ECF335"/>
<path d="M19 27H21V29H19V27Z" fill="#ECF335"/>
<path d="M19 29H21V31H19V29Z" fill="#ECF335"/>
<path d="M19 31H21V33H19V31Z" fill="#ECF335"/>
<path d="M19 33H21L21 35H19L19 33Z" fill="#ECF335"/>
<path d="M19 25H21L21 27H19L19 25Z" fill="#ECF335"/>
<path d="M19 23H21V25H19V23Z" fill="#ECF335"/>
<path d="M27 9H29V13H27V9Z" fill="#ECF335"/>
<path d="M31 19H33V25H31V19Z" fill="#ECF335"/>
<path d="M29 20H31L31 25L29 25V20Z" fill="#ECF335"/>
<path d="M29 23H31V27H29V23Z" fill="#ECF335"/>
<path d="M27 23L29 23V27L27 27V23Z" fill="#ECF335"/>
<path d="M25 25H29V29H25V25Z" fill="#ECF335"/>
<path d="M23 27H27V31H23V27Z" fill="#ECF335"/>
<path d="M29 11H31V16H29V11Z" fill="#ECF335"/>
<path d="M33 15H34V21H33V15Z" fill="#ECF335"/>
<path d="M26 8H27V10H26V8Z" fill="#ECF335"/>
<path d="M21 30H25V32H21V30Z" fill="#ECF335"/>
<path d="M21 27L23 27V32H21L21 27Z" fill="#ECF335"/>
<path d="M31 13H33V23L31 23L31 13Z" fill="#ECF335"/>
</svg>
