<svg viewBox="0 0 40 36" fill="none" xmlns="http://www.w3.org/2000/svg">
<path d="M11.0665 2.40222V0H2.22566V4.80445H4.45131V7.20667H6.67697V9.6089H8.90263V12.0111H13.2921V9.6089H15.5178V4.80445H13.2921V2.40222H11.0665Z" fill="currentColor"/>
<path d="M33.323 2.40222V0H28.9335V2.40222H26.7107L26.677 4.81644L24.4822 4.79911V7.20667H22.2566V9.6089H20.0309V12.0111H15.5796V14.4133H13.3539V16.8156H11.1283V19.2178H8.90263V21.62H6.67697V24.0222H4.45131V26.4245H2.22566V28.8267H0V31.1956H4.38949V28.8267L5.42504 28.8161C5.99456 28.8104 6.49539 28.807 6.53787 28.8087C6.59697 28.8112 6.61515 28.5269 6.61515 27.6015V26.3911L8.80989 26.4151L8.87172 24.0103L11.0665 24.0276V21.62H13.2921V20.4301C13.2921 19.7755 13.3036 19.2276 13.3177 19.2123C13.3318 19.1969 13.8465 19.1933 14.4615 19.2041L15.5796 19.2237V21.62H17.8053V24.0222H15.5796V26.4245H13.3539V28.8267H11.1283V31.2289H8.90263V33.6311H6.67697V35.9666H11.0636L11.0974 33.5978L13.1825 33.5658C13.2789 33.5645 13.2909 33.4499 13.3062 32.38L13.323 31.1956H15.4869L15.5487 28.7933H17.7435L17.7434 26.4245L19.9691 26.3924V24.0222H22.192L22.2257 21.608L24.4204 21.6254V19.2178H26.6461V16.8156H28.8717V14.4133H31.0974V12.0111H33.323V9.6089H35.5487V7.20667H37.7743V4.80445H40V2.40222H35.6105V4.80445H33.3849V7.20667H31.1592V9.6089H28.9335V12.0111H26.7079V14.4133H24.4204V9.6089H26.6461V7.20667H28.8717V4.80445H31.0974V2.40222H33.323Z" fill="currentColor"/>
<path d="M31.0974 24.0222V21.62H26.7079V24.0222H24.4822L24.4822 28.7933H26.677L26.7388 31.1956H28.9026L28.9361 33.5978L31.1592 33.5751V36H40V31.2289H37.7743V28.8267H35.5487V26.4245H33.323V24.0222H31.0974Z" fill="currentColor"/>
</svg>
