<svg width="148" height="56" viewBox="0 0 148 56" fill="none" xmlns="http://www.w3.org/2000/svg">
<rect x="-0.5" y="0.5" width="23" height="23" transform="matrix(-1 0 0 1 67 16)" stroke="#ECF335"/>
<path d="M56.857 22L56.857 23.7143L58.5713 23.7143L58.5713 22L56.857 22ZM55.1427 23.7143V25.4286H56.857L56.857 23.7143L55.1427 23.7143ZM53.4284 25.4286V27.1429H55.1427L55.1427 25.4286L53.4284 25.4286ZM51.7141 27.1429V28.8571H53.4284V27.1429H51.7141ZM53.4284 28.8571V30.5714H55.1427L55.1427 28.8571H53.4284ZM55.1427 30.5714V32.2857H56.857L56.857 30.5714L55.1427 30.5714ZM56.857 32.2857L56.857 34H58.5713L58.5713 32.2857H56.857Z" fill="#ECF335"/>
<rect x="80.5" y="16.5" width="23" height="23" stroke="#ECF335"/>
<path d="M91.143 22L91.143 23.7143L89.4287 23.7143L89.4287 22L91.143 22ZM92.8573 23.7143V25.4286H91.143L91.143 23.7143L92.8573 23.7143ZM94.5716 25.4286V27.1429H92.8573L92.8573 25.4286L94.5716 25.4286ZM96.2859 27.1429V28.8571H94.5716V27.1429H96.2859ZM94.5716 28.8571V30.5714H92.8573L92.8573 28.8571H94.5716ZM92.8573 30.5714V32.2857H91.143L91.143 30.5714L92.8573 30.5714ZM91.143 32.2857L91.143 34H89.4287L89.4287 32.2857H91.143Z" fill="#ECF335"/>
</svg>
