<svg width="148" height="56" viewBox="0 0 148 56" fill="none" xmlns="http://www.w3.org/2000/svg">
<path d="M126.502 38.9189C126.455 39.4792 126.408 40.0364 126.351 40.7101C125.507 40.7794 124.689 40.8455 123.792 40.921C123.735 41.7804 123.681 42.5517 123.619 43.5245H118.122C118.062 44.6105 118.015 45.5014 117.968 46.3892H109.824C109.783 45.5455 109.745 44.7018 109.698 43.6787C107.888 43.3324 106.015 43.7102 104.17 43.4426C104.11 42.5486 104.057 41.7741 104 40.9179C103.15 40.8549 102.379 40.7983 101.488 40.7353C101.419 40.1088 101.356 39.5107 101.29 38.9157C101.29 38.6135 101.29 38.3082 101.29 37.8926H98.598V32.4276C97.578 32.3552 96.8067 32.2986 95.9253 32.2388V24.0318C96.7469 23.9878 97.5245 23.95 98.4972 23.8965V18.4346C99.5141 18.3622 100.342 18.3024 101.268 18.2331C101.324 17.4021 101.375 16.6277 101.437 15.7084C102.269 15.6423 103.09 15.5762 103.991 15.5038C104.05 14.6066 104.104 13.7787 104.17 12.7808H109.663C109.723 11.8395 109.77 11.0651 109.818 10.297C111.011 9.95697 115.733 9.89086 117.955 10.1931C117.996 10.9423 118.04 11.7136 118.097 12.7146C118.988 12.7241 119.869 12.7398 120.751 12.7461C121.654 12.7524 122.555 12.7461 123.597 12.7461C123.669 13.6968 123.735 14.5688 123.804 15.507C124.657 15.5699 125.429 15.6297 126.31 15.6927C126.386 16.5552 126.458 17.3737 126.537 18.2741C127.418 18.3433 128.246 18.4094 129.225 18.4881V23.8492C130.182 23.9248 131.001 23.9878 131.892 24.057V32.1884C131.067 32.2734 130.251 32.3584 129.191 32.4686V37.8958H126.442C126.471 38.39 126.483 38.6544 126.499 38.9189H126.502Z" fill="#50AF95"/>
<path fill-rule="evenodd" clip-rule="evenodd" d="M116.06 28.7111C115.96 28.7186 115.444 28.7494 114.292 28.7494C113.377 28.7494 112.726 28.7219 112.498 28.7111C108.959 28.5554 106.317 27.9393 106.317 27.2016C106.317 26.4639 108.959 25.8486 112.498 25.6904V28.0975C112.73 28.1141 113.392 28.1533 114.308 28.1533C115.407 28.1533 115.958 28.1075 116.057 28.0983V25.6921C119.589 25.8495 122.225 26.4656 122.225 27.2016C122.225 27.9376 119.589 28.5537 116.057 28.7103L116.06 28.7111ZM116.059 25.4431V23.2892H120.988V20.0046H107.568V23.2892H112.496V25.4423C108.49 25.6263 105.478 26.4198 105.478 27.3706C105.478 28.3214 108.49 29.114 112.496 29.2989V36.2011H116.058V29.2964C120.054 29.1124 123.062 28.3198 123.062 27.3698C123.062 26.4198 120.057 25.6271 116.058 25.4423L116.059 25.4431Z" fill="#101010"/>
<path d="M106.519 38.9189C106.472 39.4792 106.425 40.0364 106.368 40.7101C105.524 40.7794 104.706 40.8455 103.809 40.921C103.752 41.7804 103.699 42.5517 103.636 43.5245H98.1392C98.0793 44.6105 98.0321 45.5014 97.9849 46.3892H89.8409C89.8 45.5455 89.7622 44.7018 89.715 43.6787C87.9049 43.3324 86.0318 43.7102 84.1871 43.4426C84.1273 42.5486 84.0738 41.7741 84.0171 40.9179C83.1671 40.8549 82.3959 40.7983 81.505 40.7353C81.4357 40.1088 81.3727 39.5107 81.3066 38.9157C81.3066 38.6135 81.3066 38.3082 81.3066 37.8926H78.6151V32.4276C77.5951 32.3552 76.8238 32.2986 75.9424 32.2388V24.0318C76.764 23.9878 77.5416 23.95 78.5143 23.8965V18.4346C79.5311 18.3622 80.3591 18.3024 81.2846 18.2331C81.3413 17.4021 81.3916 16.6277 81.4546 15.7084C82.2857 15.6423 83.1073 15.5762 84.0076 15.5038C84.0675 14.6066 84.121 13.7787 84.1871 12.7808H89.6804C89.7402 11.8395 89.7874 11.0651 89.8347 10.297C91.0278 9.95697 95.7498 9.89086 97.9723 10.1931C98.0132 10.9423 98.0573 11.7136 98.114 12.7146C99.0049 12.7241 99.8863 12.7398 100.768 12.7461C101.671 12.7524 102.572 12.7461 103.614 12.7461C103.686 13.6968 103.752 14.5688 103.821 15.507C104.674 15.5699 105.446 15.6297 106.327 15.6927C106.403 16.5552 106.475 17.3737 106.554 18.2741C107.435 18.3433 108.263 18.4094 109.242 18.4881V23.8492C110.199 23.9248 111.018 23.9878 111.909 24.057V32.1884C111.084 32.2734 110.269 32.3584 109.208 32.4686V37.8958H106.459C106.488 38.39 106.5 38.6544 106.516 38.9189H106.519Z" fill="#F7931A"/>
<path fill-rule="evenodd" clip-rule="evenodd" d="M101.315 25.0956C101.666 22.7524 99.8816 21.4929 97.4422 20.6526L98.2335 17.4785L96.3014 16.9971L95.531 20.0876C95.0231 19.9609 94.5014 19.8415 93.983 19.7232L94.7589 16.6123L92.828 16.1309L92.0362 19.3039C91.6159 19.2082 91.203 19.1136 90.8025 19.0139L90.8047 19.004L88.1402 18.3386L87.6263 20.4022C87.6263 20.4022 89.0597 20.7308 89.0295 20.7511C89.812 20.9463 89.9534 21.4643 89.9299 21.8748L89.0285 25.4908C89.0824 25.5045 89.1523 25.5243 89.2294 25.5553L89.1733 25.5413C89.1256 25.5294 89.076 25.5169 89.0251 25.5048L87.7616 30.5703C87.666 30.808 87.4233 31.1647 86.8763 31.0292C86.8957 31.0573 85.472 30.6788 85.472 30.6788L84.5127 32.8905L87.0271 33.5173C87.3024 33.5863 87.5745 33.6573 87.8439 33.7275C88.0321 33.7766 88.2189 33.8253 88.4046 33.8727L87.6051 37.0832L89.535 37.5647L90.3268 34.3883C90.854 34.5314 91.3657 34.6634 91.8666 34.7879L91.0774 37.9493L93.0097 38.4307L93.8091 35.2263C97.1039 35.8498 99.5812 35.5984 100.624 32.6183C101.464 30.219 100.582 28.8351 98.8488 27.9326C100.111 27.6415 101.062 26.8111 101.316 25.0959L101.315 25.0954L101.315 25.0956ZM96.8972 31.2827C96.3494 33.484 92.9038 32.574 91.3273 32.1576C91.1855 32.1201 91.0588 32.0867 90.9507 32.0598L92.0117 27.8065C92.1434 27.8394 92.3044 27.8755 92.4868 27.9164C94.1175 28.2824 97.4585 29.0322 96.8973 31.2827H96.8972ZM92.8153 25.9466C94.1296 26.2974 96.9968 27.0626 97.4962 25.0619H97.4963C98.0062 23.0157 95.2198 22.3988 93.8589 22.0975C93.7058 22.0636 93.5707 22.0337 93.4604 22.0062L92.4985 25.8637C92.5893 25.8863 92.6959 25.9148 92.8153 25.9466Z" fill="#101010"/>
<path d="M86.5402 38.9189C86.493 39.4792 86.4458 40.0364 86.3891 40.7101C85.5454 40.7794 84.727 40.8455 83.8298 40.921C83.7731 41.7804 83.7196 42.5517 83.6566 43.5245H78.1602C78.1003 44.6105 78.0531 45.5014 78.0059 46.3892H69.8619C69.821 45.5455 69.7832 44.7018 69.736 43.6787C67.9259 43.3324 66.0528 43.7102 64.2081 43.4426C64.1483 42.5486 64.0947 41.7741 64.0381 40.9179C63.1881 40.8549 62.4168 40.7983 61.526 40.7353C61.4567 40.1088 61.3937 39.5107 61.3276 38.9157C61.3276 38.6135 61.3276 38.3082 61.3276 37.8926H58.6361V32.4276C57.6161 32.3552 56.8448 32.2986 55.9634 32.2388V24.0318C56.785 23.9878 57.5626 23.95 58.5353 23.8965V18.4346C59.5521 18.3622 60.3801 18.3024 61.3056 18.2331C61.3623 17.4021 61.4126 16.6277 61.4756 15.7084C62.3067 15.6423 63.1283 15.5762 64.0286 15.5038C64.0885 14.6066 64.142 13.7787 64.2081 12.7808H69.7014C69.7612 11.8395 69.8084 11.0651 69.8556 10.297C71.0488 9.95697 75.7708 9.89086 77.9933 10.1931C78.0342 10.9423 78.0783 11.7136 78.135 12.7146C79.0259 12.7241 79.9073 12.7398 80.7888 12.7461C81.6923 12.7524 82.5926 12.7461 83.6346 12.7461C83.707 13.6968 83.7731 14.5688 83.8424 15.507C84.6955 15.5699 85.4667 15.6297 86.3482 15.6927C86.4237 16.5552 86.4962 17.3737 86.5749 18.2741C87.4563 18.3433 88.2842 18.4094 89.2633 18.4881V23.8492C90.2203 23.9248 91.0388 23.9878 91.9297 24.057V32.1884C91.1049 32.2734 90.2895 32.3584 89.2286 32.4686V37.8958H86.4804C86.5087 38.39 86.5213 38.6544 86.5371 38.9189H86.5402Z" fill="#51CBFF"/>
<path d="M72.9743 35.6427L65.5551 20.5311C65.4346 20.29 65.6159 20.0046 65.883 20.0046H68.4538C68.5917 20.0046 68.7209 20.0827 68.7816 20.2033L74.1999 31.1664C74.683 32.15 76.0803 32.15 76.5634 31.1664L81.9643 20.2119C82.025 20.0914 82.1543 20.0133 82.2922 20.0133H82.6113C82.8013 20.0133 82.9218 20.2119 82.836 20.3759L75.3387 35.6427C74.8556 36.6254 73.4575 36.6254 72.9743 35.6427Z" fill="#101010"/>
<path opacity="0.1" d="M72.9718 35.646L68.779 20.2152C68.7183 20.086 68.5804 20.0166 68.4685 20.0166H65.8891C65.6046 20.0166 65.4407 20.3011 65.5526 20.5431L72.9718 35.646Z" fill="#101010"/>
<path opacity="0.1" d="M74.2021 31.1742L65.5573 20.5311C65.4541 20.2813 65.6094 20.0307 65.8505 20.0046H68.4647C68.6112 20.0133 68.7231 20.1079 68.7752 20.2033L74.2021 31.1742Z" fill="#101010"/>
<path d="M66.5578 38.9189C66.5106 39.4792 66.4634 40.0364 66.4067 40.7101C65.563 40.7794 64.7445 40.8455 63.8473 40.921C63.7907 41.7804 63.7372 42.5517 63.6742 43.5245H58.1777C58.1179 44.6105 58.0707 45.5014 58.0235 46.3892H49.8795C49.8386 45.5455 49.8008 44.7018 49.7536 43.6787C47.9435 43.3324 46.0704 43.7102 44.2257 43.4426C44.1658 42.5486 44.1123 41.7741 44.0557 40.9179C43.2057 40.8549 42.4344 40.7983 41.5435 40.7353C41.4743 40.1088 41.4113 39.5107 41.3452 38.9157C41.3452 38.6135 41.3452 38.3082 41.3452 37.8926H38.6536V32.4276C37.6337 32.3552 36.8624 32.2986 35.981 32.2388V24.0318C36.8026 23.9878 37.5802 23.95 38.5529 23.8965V18.4346C39.5697 18.3622 40.3976 18.3024 41.3232 18.2331C41.3798 17.4021 41.4302 16.6277 41.4932 15.7084C42.3242 15.6423 43.1459 15.5762 44.0462 15.5038C44.106 14.6066 44.1595 13.7787 44.2257 12.7808H49.719C49.7788 11.8395 49.826 11.0651 49.8732 10.297C51.0663 9.95697 55.7884 9.89086 58.0109 10.1931C58.0518 10.9423 58.0959 11.7136 58.1526 12.7146C59.0434 12.7241 59.9249 12.7398 60.8063 12.7461C61.7098 12.7524 62.6102 12.7461 63.6522 12.7461C63.7246 13.6968 63.7907 14.5688 63.8599 15.507C64.7131 15.5699 65.4843 15.6297 66.3658 15.6927C66.4413 16.5552 66.5137 17.3737 66.5924 18.2741C67.4739 18.3433 68.3018 18.4094 69.2808 18.4881V23.8492C70.2379 23.9248 71.0563 23.9878 71.9472 24.057V32.1884C71.1224 32.2734 70.3071 32.3584 69.2462 32.4686V37.8958H66.498C66.5263 38.39 66.5389 38.6544 66.5547 38.9189H66.5578Z" fill="#FC070C"/>
<path fill-rule="evenodd" clip-rule="evenodd" d="M62.1856 24.7608C61.8487 24.4497 61.458 24.0704 61.051 23.6751L61.0509 23.6751C60.4791 23.1199 59.875 22.5333 59.3417 22.06L59.2877 22.0222C59.1978 21.95 59.0965 21.8934 58.9879 21.8548L58.5763 21.778L58.5763 21.778L58.5763 21.778L58.5762 21.7779C55.7363 21.2481 46.5322 19.5307 46.3429 19.5537C46.2869 19.5615 46.2333 19.5818 46.1862 19.6131L46.1349 19.6536C46.0717 19.7178 46.0237 19.7953 45.9945 19.8805L45.981 19.9156V20.1074V20.1371C46.6059 21.8771 48.2292 25.7632 49.7281 29.3513L49.7281 29.3513L49.7281 29.3514C50.9953 32.3849 52.1736 35.2055 52.5844 36.3364L52.5845 36.3368C52.6386 36.5044 52.7412 36.8225 52.9328 36.8387H52.976C53.0786 36.8387 53.5161 36.2607 53.5161 36.2607C53.5161 36.2607 61.3376 26.7756 62.1289 25.7655C62.2314 25.6411 62.3218 25.5072 62.399 25.3658C62.4391 25.1406 62.3581 24.911 62.1856 24.7608ZM55.5185 25.8635L58.8567 23.0952L60.8147 24.8994L55.5185 25.8635ZM48.4803 20.971L54.2276 25.6811L57.7791 22.686L48.4803 20.971ZM54.7462 26.9216L60.6285 25.9737L53.9036 34.076L54.7462 26.9216ZM53.7476 26.5723L47.7005 21.4408L52.8725 34.0751L53.7476 26.5723Z" fill="#101010"/>
<path d="M46.5768 38.9189C46.5296 39.4792 46.4824 40.0364 46.4257 40.7101C45.5821 40.7794 44.7636 40.8455 43.8664 40.921C43.8097 41.7804 43.7562 42.5517 43.6932 43.5245H38.1968C38.137 44.6105 38.0897 45.5014 38.0425 46.3892H29.8986C29.8576 45.5455 29.8199 44.7018 29.7726 43.6787C27.9625 43.3324 26.0894 43.7102 24.2447 43.4426C24.1849 42.5486 24.1314 41.7741 24.0747 40.9179C23.2247 40.8549 22.4535 40.7983 21.5626 40.7353C21.4933 40.1088 21.4304 39.5107 21.3642 38.9157C21.3642 38.6135 21.3642 38.3082 21.3642 37.8926H18.6727V32.4276C17.6527 32.3552 16.8814 32.2986 16 32.2388V24.0318C16.8216 23.9878 17.5992 23.95 18.5719 23.8965V18.4346C19.5888 18.3622 20.4167 18.3024 21.3422 18.2331C21.3989 17.4021 21.4492 16.6277 21.5122 15.7084C22.3433 15.6423 23.1649 15.5762 24.0653 15.5038C24.1251 14.6066 24.1786 13.7787 24.2447 12.7808H29.738C29.7978 11.8395 29.845 11.0651 29.8923 10.297C31.0854 9.95697 35.8074 9.89086 38.0299 10.1931C38.0709 10.9423 38.1149 11.7136 38.1716 12.7146C39.0625 12.7241 39.9439 12.7398 40.8254 12.7461C41.7289 12.7524 42.6292 12.7461 43.6712 12.7461C43.7436 13.6968 43.8097 14.5688 43.879 15.507C44.7321 15.5699 45.5034 15.6297 46.3848 15.6927C46.4604 16.5552 46.5328 17.3737 46.6115 18.2741C47.4929 18.3433 48.3209 18.4094 49.2999 18.4881V23.8492C50.2569 23.9248 51.0754 23.9878 51.9663 24.057V32.1884C51.1415 32.2734 50.3262 32.3584 49.2653 32.4686V37.8958H46.517C46.5454 38.39 46.558 38.6544 46.5737 38.9189H46.5768Z" fill="#ECF335"/>
<rect x="23.4214" y="19.1165" width="5.9557" height="3.72231" fill="#101010"/>
<rect x="23.4214" y="33.635" width="5.9557" height="3.72231" fill="#101010"/>
<rect x="38.7476" y="33.5955" width="3.08072" height="3.63367" transform="rotate(-180 38.7476 33.5955)" fill="#101010"/>
<rect x="32.4238" y="33.5955" width="3.08072" height="3.63367" transform="rotate(-180 32.4238 33.5955)" fill="#101010"/>
<rect x="44.6445" y="19.1165" width="3.72231" height="5.9557" transform="rotate(90 44.6445 19.1165)" fill="#101010"/>
<rect x="38.7476" y="23.0098" width="3.71266" height="3.08072" transform="rotate(90 38.7476 23.0098)" fill="#101010"/>
<rect x="44.6445" y="33.635" width="3.72231" height="5.9557" transform="rotate(90 44.6445 33.635)" fill="#101010"/>
<rect x="32.4238" y="23.0098" width="3.71266" height="3.08072" transform="rotate(90 32.4238 23.0098)" fill="#101010"/>
<rect x="32.4614" y="26.6975" width="3.22476" height="3.22476" fill="#101010"/>
</svg>
