<svg width="210" height="88" viewBox="0 0 210 88" fill="none" xmlns="http://www.w3.org/2000/svg">
<path fill-rule="evenodd" clip-rule="evenodd" d="M44.694 50V52H42.847H41V56V60H42.847H44.694V62V64H46.541H48.388V66V68H50.235H52.082V70V72H54H55.918V70V68H57.765H59.612V66V64H61.459H63.306V62V60H65.153H67V56V52H65.153H63.306V50V48H59.541H55.776V49.9231V51.8462H54H52.224V49.9231V48H48.459H44.694V50ZM48.388 54V56H46.612H44.8361V54V52H46.612H48.388V54Z" fill="#ECF335"/>
<path fill-rule="evenodd" clip-rule="evenodd" d="M78.694 50V52H76.847H75V56V60H76.847H78.694V62V64H80.541H82.388V66V68H84.235H86.082V70V72H88H89.918V70V68H91.765H93.612V66V64H95.459H97.306V62V60H99.153H101V56V52H99.153H97.306V50V48H93.541H89.776V49.9231V51.8462H88H86.224V49.9231V48H82.459H78.694V50ZM82.388 54V56H80.612H78.8361V54V52H80.612H82.388V54Z" fill="#ECF335"/>
<path fill-rule="evenodd" clip-rule="evenodd" d="M112.694 50V52H110.847H109V56V60H110.847H112.694V62V64H114.541H116.388V66V68H118.235H120.082V70V72H122H123.918V70V68H125.765H127.612V66V64H129.459H131.306V62V60H133.153H135V56V52H133.153H131.306V50V48H127.541H123.776V49.9231V51.8462H122H120.224V49.9231V48H116.459H112.694V50ZM116.388 54V56H114.612H112.836V54V52H114.612H116.388V54Z" fill="#ECF335"/>
<path fill-rule="evenodd" clip-rule="evenodd" d="M146.694 50V52H144.847H143V56V60H144.847H146.694V62V64H148.541H150.388V66V68H152.235H154.082V70V72H156H157.918V70V68H159.765H161.612V66V64H163.459H165.306V62V60H167.153H169V56V52H167.153H165.306V50V48H161.541H157.776V49.9231V51.8462H156H154.224V49.9231V48H150.459H146.694V50ZM150.388 54V56H148.612H146.836V54V52H148.612H150.388V54Z" fill="#ECF335"/>
<path fill-rule="evenodd" clip-rule="evenodd" d="M146.694 18V20H144.847H143V24V28H144.847H146.694V30V32H148.541H150.388V34V36H152.235H154.082V38V40H156H157.918V38V36H159.765H161.612V34V32H163.459H165.306V30V28H167.153H169V24V20H167.153H165.306V18V16H161.541H157.776V17.9231V19.8462H156H154.224V17.9231V16H150.459H146.694V18ZM150.388 22V24H148.612H146.836V22V20H148.612H150.388V22Z" fill="#ECF335"/>
<path fill-rule="evenodd" clip-rule="evenodd" d="M112.694 18V20H110.847H109V24V28H110.847H112.694V30V32H114.541H116.388V34V36H118.235H120.082V38V40H122H123.918V38V36H125.765H127.612V34V32H129.459H131.306V30V28H133.153H135V24V20H133.153H131.306V18V16H127.541H123.776V17.9231V19.8462H122H120.224V17.9231V16H116.459H112.694V18ZM116.388 22V24H114.612H112.836V22V20H114.612H116.388V22Z" fill="#ECF335"/>
<path fill-rule="evenodd" clip-rule="evenodd" d="M78.694 18V20H76.847H75V24V28H76.847H78.694V30V32H80.541H82.388V34V36H84.235H86.082V38V40H88H89.918V38V36H91.765H93.612V34V32H95.459H97.306V30V28H99.153H101V24V20H99.153H97.306V18V16H93.541H89.776V17.9231V19.8462H88H86.224V17.9231V16H82.459H78.694V18ZM82.388 22V24H80.612H78.8361V22V20H80.612H82.388V22Z" fill="#ECF335"/>
<path fill-rule="evenodd" clip-rule="evenodd" d="M44.694 18V20H42.847H41V24V28H42.847H44.694V30V32H46.541H48.388V34V36H50.235H52.082V38V40H54H55.918V38V36H57.765H59.612V34V32H61.459H63.306V30V28H65.153H67V24V20H65.153H63.306V18V16H59.541H55.776V17.9231V19.8462H54H52.224V17.9231V16H48.459H44.694V18ZM48.388 22V24H46.612H44.8361V22V20H46.612H48.388V22Z" stroke="#ECF335"/>
</svg>
