<svg width="210" height="88" viewBox="0 0 210 88" fill="none" xmlns="http://www.w3.org/2000/svg">
<rect x="-1" y="1" width="26" height="26" transform="matrix(-1 0 0 1 81 48)" stroke="#ECF335" stroke-width="2"/>
<path d="M70 55L70 57L72 57L72 55L70 55ZM68 57V59H70L70 57L68 57ZM66 59V61H68L68 59L66 59ZM64 61V63H66V61H64ZM66 63V65H68L68 63H66ZM68 65V67H70L70 65L68 65ZM70 67L70 69H72L72 67H70Z" fill="#ECF335"/>
<rect x="-1" y="1" width="26" height="26" transform="matrix(-1 0 0 1 117 48)" stroke="#ECF335" stroke-width="2"/>
<path d="M98.5 60L100.5 60L100.5 58L98.5 58L98.5 60ZM100.5 62L102.5 62L102.5 60L100.5 60L100.5 62ZM102.5 64L104.5 64L104.5 62L102.5 62L102.5 64ZM104.5 66L106.5 66L106.5 64L104.5 64L104.5 66ZM106.5 64L108.5 64L108.5 62L106.5 62L106.5 64ZM108.5 62L110.5 62L110.5 60L108.5 60L108.5 62ZM110.5 60L112.5 60L112.5 58L110.5 58L110.5 60Z" fill="#ECF335"/>
<rect x="-1" y="1" width="26" height="26" transform="matrix(-1 0 0 1 117 12)" stroke="#ECF335" stroke-width="2"/>
<path d="M112.5 28L110.5 28L110.5 30L112.5 30L112.5 28ZM110.5 26L108.5 26L108.5 28L110.5 28L110.5 26ZM108.5 24L106.5 24L106.5 26L108.5 26L108.5 24ZM106.5 22L104.5 22L104.5 24L106.5 24L106.5 22ZM104.5 24L102.5 24L102.5 26L104.5 26L104.5 24ZM102.5 26L100.5 26L100.5 28L102.5 28L102.5 26ZM100.5 28L98.5 28L98.5 30L100.5 30L100.5 28Z" fill="#ECF335"/>
<rect x="128" y="49" width="26" height="26" stroke="#ECF335" stroke-width="2"/>
<path d="M140 55L140 57L138 57L138 55L140 55ZM142 57V59H140L140 57L142 57ZM144 59V61H142L142 59L144 59ZM146 61V63H144V61H146ZM144 63V65H142L142 63H144ZM142 65V67H140L140 65L142 65ZM140 67L140 69H138L138 67H140Z" fill="#ECF335"/>
</svg>
