<svg width="210" height="88" viewBox="0 0 210 88" fill="none" xmlns="http://www.w3.org/2000/svg">
<path d="M165.722 56.6871C165.667 57.3399 165.612 57.989 165.546 58.7737C164.563 58.8544 163.61 58.9314 162.565 59.0194C162.499 60.0205 162.436 60.919 162.363 62.0521H155.96C155.891 63.3173 155.836 64.355 155.781 65.3892H146.294C146.246 64.4064 146.202 63.4236 146.147 62.2318C144.038 61.8284 141.857 62.2685 139.708 61.9568C139.638 60.9153 139.576 60.0132 139.51 59.0158C138.519 58.9424 137.621 58.8764 136.583 58.8031C136.503 58.0733 136.429 57.3766 136.352 56.6835C136.352 56.3314 136.352 55.9757 136.352 55.4917H133.217V49.1256C132.029 49.0413 131.13 48.9752 130.104 48.9056V39.3455C131.061 39.2941 131.966 39.2501 133.1 39.1878V32.8254C134.284 32.741 135.248 32.6713 136.327 32.5907C136.393 31.6226 136.451 30.7204 136.525 29.6497C137.493 29.5726 138.45 29.4956 139.499 29.4113C139.568 28.3662 139.631 27.4017 139.708 26.2393H146.107C146.176 25.1428 146.231 24.2407 146.286 23.3459C147.676 22.9499 153.177 22.8729 155.766 23.2249C155.814 24.0977 155.865 24.9961 155.931 26.1623C156.969 26.1733 157.995 26.1916 159.022 26.1989C160.075 26.2063 161.123 26.1989 162.337 26.1989C162.422 27.3064 162.499 28.3222 162.579 29.415C163.573 29.4883 164.472 29.558 165.498 29.6313C165.586 30.6361 165.671 31.5896 165.762 32.6383C166.789 32.719 167.754 32.796 168.894 32.8877V39.1328C170.009 39.2208 170.962 39.2941 172 39.3748V48.8469C171.039 48.9459 170.09 49.0449 168.854 49.1733V55.4953H165.652C165.685 56.0711 165.7 56.3791 165.718 56.6871H165.722Z" fill="#50AF95"/>
<path fill-rule="evenodd" clip-rule="evenodd" d="M153.558 44.7963C153.442 44.805 152.841 44.8409 151.499 44.8409C150.432 44.8409 149.675 44.8089 149.409 44.7963C145.286 44.6149 142.209 43.8972 142.209 43.0379C142.209 42.1786 145.286 41.4619 149.409 41.2776V44.0815C149.679 44.1009 150.451 44.1465 151.518 44.1465C152.798 44.1465 153.439 44.0932 153.554 44.0825V41.2795C157.669 41.4628 160.739 42.1806 160.739 43.0379C160.739 43.8953 157.67 44.613 153.554 44.7953L153.558 44.7963ZM153.557 40.9895V38.4805H159.298V34.6543H143.666V38.4805H149.407V40.9886C144.74 41.2029 141.231 42.1272 141.231 43.2348C141.231 44.3424 144.74 45.2657 149.407 45.481V53.5213H153.556V45.4781C158.211 45.2638 161.714 44.3404 161.714 43.2338C161.714 42.1272 158.214 41.2039 153.556 40.9886L153.557 40.9895Z" fill="#101010"/>
<path d="M142.445 56.6871C142.39 57.3399 142.335 57.989 142.269 58.7737C141.286 58.8544 140.332 58.9314 139.287 59.0194C139.221 60.0205 139.159 60.919 139.086 62.0521H132.683C132.613 63.3173 132.558 64.355 132.503 65.3892H123.016C122.969 64.4064 122.925 63.4236 122.87 62.2318C120.761 61.8284 118.579 62.2685 116.43 61.9568C116.361 60.9153 116.298 60.0132 116.232 59.0158C115.242 58.9424 114.344 58.8764 113.306 58.8031C113.225 58.0733 113.152 57.3766 113.075 56.6835C113.075 56.3314 113.075 55.9757 113.075 55.4917H109.94V49.1256C108.751 49.0413 107.853 48.9752 106.826 48.9056V39.3455C107.783 39.2941 108.689 39.2501 109.822 39.1878V32.8254C111.007 32.741 111.971 32.6713 113.049 32.5907C113.115 31.6226 113.174 30.7204 113.247 29.6497C114.215 29.5726 115.172 29.4956 116.221 29.4113C116.291 28.3662 116.353 27.4017 116.43 26.2393H122.829C122.899 25.1428 122.954 24.2407 123.009 23.3459C124.399 22.9499 129.9 22.8729 132.488 23.2249C132.536 24.0977 132.588 24.9961 132.654 26.1623C133.691 26.1733 134.718 26.1916 135.745 26.1989C136.797 26.2063 137.846 26.1989 139.06 26.1989C139.144 27.3064 139.221 28.3222 139.302 29.415C140.296 29.4883 141.194 29.558 142.221 29.6313C142.309 30.6361 142.393 31.5896 142.485 32.6383C143.512 32.719 144.476 32.796 145.617 32.8877V39.1328C146.731 39.2208 147.685 39.2941 148.723 39.3748V48.8469C147.762 48.9459 146.812 49.0449 145.576 49.1733V55.4953H142.375C142.408 56.0711 142.423 56.3791 142.441 56.6871H142.445Z" fill="#F7931A"/>
<path fill-rule="evenodd" clip-rule="evenodd" d="M136.382 40.5845C136.791 37.8549 134.713 36.3877 131.871 35.4089L132.793 31.7115L130.542 31.1507L129.645 34.7507C129.053 34.6032 128.445 34.4641 127.841 34.3263L128.745 30.7024L126.496 30.1416L125.574 33.8378C125.084 33.7263 124.603 33.6162 124.136 33.5001L124.139 33.4884L121.035 32.7134L120.437 35.1173C120.437 35.1173 122.106 35.5 122.071 35.5236C122.983 35.7511 123.147 36.3544 123.12 36.8326L122.07 41.0449C122.133 41.0608 122.214 41.0839 122.304 41.12L122.239 41.1036C122.183 41.0897 122.125 41.0753 122.066 41.0611L120.594 46.9618C120.483 47.2387 120.2 47.6543 119.563 47.4965C119.585 47.5292 117.927 47.0883 117.927 47.0883L116.81 49.6646L119.739 50.3948C120.059 50.4752 120.376 50.5579 120.69 50.6396C120.909 50.6968 121.127 50.7535 121.343 50.8088L120.412 54.5487L122.66 55.1095L123.582 51.4094C124.196 51.5761 124.793 51.7299 125.376 51.8749L124.457 55.5575L126.708 56.1184L127.639 52.3856C131.477 53.1119 134.363 52.8191 135.577 49.3476C136.556 46.5527 135.529 44.9406 133.51 43.8893C134.98 43.5502 136.088 42.5829 136.383 40.5848L136.383 40.5843L136.382 40.5845ZM131.236 47.7918C130.598 50.356 126.584 49.2959 124.748 48.8109C124.583 48.7672 124.435 48.7283 124.309 48.697L125.545 43.7424C125.698 43.7807 125.886 43.8228 126.098 43.8705C127.998 44.2967 131.89 45.1702 131.236 47.7918H131.236ZM126.481 41.5758C128.012 41.9845 131.352 42.8758 131.934 40.5452H131.934C132.528 38.1616 129.282 37.443 127.697 37.092C127.518 37.0525 127.361 37.0177 127.233 36.9857L126.112 41.4792C126.218 41.5056 126.342 41.5387 126.481 41.5758Z" fill="#101010"/>
<path d="M119.171 56.6871C119.116 57.3399 119.061 57.989 118.995 58.7737C118.012 58.8544 117.059 58.9314 116.014 59.0194C115.948 60.0205 115.886 60.919 115.812 62.0521H109.409C109.34 63.3173 109.285 64.355 109.23 65.3892H99.743C99.6953 64.4064 99.6513 63.4236 99.5963 62.2318C97.4877 61.8284 95.3058 62.2685 93.1569 61.9568C93.0872 60.9153 93.0248 60.0132 92.9588 59.0158C91.9687 58.9424 91.0703 58.8764 90.0325 58.8031C89.9518 58.0733 89.8785 57.3766 89.8015 56.6835C89.8015 56.3314 89.8015 55.9757 89.8015 55.4917H86.6661V49.1256C85.478 49.0413 84.5795 48.9752 83.5527 48.9056V39.3455C84.5098 39.2941 85.4156 39.2501 86.5488 39.1878V32.8254C87.7332 32.741 88.6977 32.6713 89.7758 32.5907C89.8418 31.6226 89.9005 30.7204 89.9738 29.6497C90.9419 29.5726 91.899 29.4956 92.9478 29.4113C93.0175 28.3662 93.0798 27.4017 93.1569 26.2393H99.5559C99.6256 25.1428 99.6806 24.2407 99.7356 23.3459C101.125 22.9499 106.626 22.8729 109.215 23.2249C109.263 24.0977 109.314 24.9961 109.38 26.1623C110.418 26.1733 111.445 26.1916 112.471 26.1989C113.524 26.2063 114.573 26.1989 115.786 26.1989C115.871 27.3064 115.948 28.3222 116.029 29.415C117.022 29.4883 117.921 29.558 118.948 29.6313C119.036 30.6361 119.12 31.5896 119.212 32.6383C120.238 32.719 121.203 32.796 122.343 32.8877V39.1328C123.458 39.2208 124.411 39.2941 125.449 39.3748V48.8469C124.489 48.9459 123.539 49.0449 122.303 49.1733V55.4953H119.102C119.135 56.0711 119.149 56.3791 119.168 56.6871H119.171Z" fill="#51CBFF"/>
<path d="M103.368 52.8709L94.726 35.2676C94.5855 34.9867 94.7967 34.6543 95.1079 34.6543H98.1026C98.2632 34.6543 98.4137 34.7452 98.4845 34.8857L104.796 47.6565C105.359 48.8022 106.987 48.8022 107.549 47.6565L113.841 34.8958C113.911 34.7553 114.062 34.6644 114.223 34.6644H114.594C114.816 34.6644 114.956 34.8958 114.856 35.0867L106.123 52.8709C105.56 54.0156 103.931 54.0156 103.368 52.8709Z" fill="#101010"/>
<path opacity="0.1" d="M103.365 52.8744L98.4814 34.8993C98.4107 34.7488 98.2501 34.668 98.1197 34.668H95.115C94.7836 34.668 94.5926 34.9994 94.7229 35.2813L103.365 52.8744Z" fill="#101010"/>
<path opacity="0.1" d="M104.799 47.6656L94.7287 35.2676C94.6085 34.9766 94.7893 34.6846 95.0702 34.6543H98.1154C98.2861 34.6644 98.4165 34.7745 98.4771 34.8857L104.799 47.6656Z" fill="#101010"/>
<path d="M95.8939 56.6871C95.8389 57.3399 95.7839 57.989 95.7179 58.7737C94.7351 58.8544 93.7816 58.9314 92.7365 59.0194C92.6705 60.0205 92.6082 60.919 92.5348 62.0521H86.1321C86.0624 63.3173 86.0074 64.355 85.9524 65.3892H76.4656C76.4179 64.4064 76.3739 63.4236 76.3189 62.2318C74.2103 61.8284 72.0284 62.2685 69.8795 61.9568C69.8098 60.9153 69.7475 60.0132 69.6815 59.0158C68.6914 58.9424 67.7929 58.8764 66.7551 58.8031C66.6745 58.0733 66.6011 57.3766 66.5241 56.6835C66.5241 56.3314 66.5241 55.9757 66.5241 55.4917H63.3888V49.1256C62.2006 49.0413 61.3022 48.9752 60.2754 48.9056V39.3455C61.2325 39.2941 62.1383 39.2501 63.2714 39.1878V32.8254C64.4559 32.741 65.4203 32.6713 66.4984 32.5907C66.5645 31.6226 66.6231 30.7204 66.6965 29.6497C67.6646 29.5726 68.6217 29.4956 69.6705 29.4113C69.7402 28.3662 69.8025 27.4017 69.8795 26.2393H76.2786C76.3483 25.1428 76.4033 24.2407 76.4583 23.3459C77.8481 22.9499 83.3487 22.8729 85.9377 23.2249C85.9854 24.0977 86.0367 24.9961 86.1027 26.1623C87.1405 26.1733 88.1673 26.1916 89.1941 26.1989C90.2466 26.2063 91.2953 26.1989 92.5092 26.1989C92.5935 27.3064 92.6705 28.3222 92.7512 29.415C93.745 29.4883 94.6434 29.558 95.6702 29.6313C95.7582 30.6361 95.8425 31.5896 95.9342 32.6383C96.961 32.719 97.9254 32.796 99.0659 32.8877V39.1328C100.181 39.2208 101.134 39.2941 102.172 39.3748V48.8469C101.211 48.9459 100.261 49.0449 99.0256 49.1733V55.4953H95.8242C95.8572 56.0711 95.8719 56.3791 95.8902 56.6871H95.8939Z" fill="#FC070C"/>
<path fill-rule="evenodd" clip-rule="evenodd" d="M90.8009 40.1949C90.4084 39.8324 89.9533 39.3906 89.4791 38.9302C88.813 38.2834 88.1092 37.6001 87.4881 37.0488L87.4251 37.0047C87.3205 36.9206 87.2024 36.8547 87.0759 36.8096L86.5964 36.7202C83.2884 36.1029 72.5665 34.1023 72.3459 34.1292C72.2807 34.1383 72.2183 34.162 72.1634 34.1984L72.1036 34.2456C72.03 34.3203 71.9741 34.4106 71.94 34.5099L71.9243 34.5508V34.7741V34.8087C72.6523 36.8357 74.5433 41.3625 76.2893 45.5423C77.7655 49.076 79.138 52.3617 79.6165 53.679L79.6167 53.6796C79.6797 53.8748 79.7992 54.2453 80.0224 54.2642H80.0727C80.1923 54.2642 80.7019 53.5909 80.7019 53.5909C80.7019 53.5909 89.813 42.5418 90.7348 41.3652C90.8542 41.2203 90.9595 41.0644 91.0494 40.8996C91.0961 40.6373 91.0018 40.3698 90.8009 40.1949ZM83.0345 41.4794L86.923 38.2547L89.204 40.3563L83.0345 41.4794ZM74.8358 35.7801L81.5307 41.2669L85.6678 37.7779L74.8358 35.7801ZM82.1348 42.712L88.987 41.6077L81.1532 51.046L82.1348 42.712ZM80.9715 42.3051L73.9274 36.3275L79.9522 51.0449L80.9715 42.3051Z" fill="#101010"/>
<path d="M72.6185 56.6871C72.5635 57.3399 72.5085 57.989 72.4425 58.7737C71.4597 58.8544 70.5062 58.9314 69.4611 59.0194C69.3951 60.0205 69.3328 60.919 69.2594 62.0521H62.8567C62.787 63.3173 62.732 64.355 62.677 65.3892H53.1902C53.1425 64.4064 53.0985 63.4236 53.0435 62.2318C50.935 61.8284 48.753 62.2685 46.6041 61.9568C46.5344 60.9153 46.4721 60.0132 46.4061 59.0158C45.416 58.9424 44.5175 58.8764 43.4798 58.8031C43.3991 58.0733 43.3257 57.3766 43.2487 56.6835C43.2487 56.3314 43.2487 55.9757 43.2487 55.4917H40.1134V49.1256C38.9252 49.0413 38.0268 48.9752 37 48.9056V39.3455C37.9571 39.2941 38.8629 39.2501 39.996 39.1878V32.8254C41.1805 32.741 42.1449 32.6713 43.2231 32.5907C43.2891 31.6226 43.3477 30.7204 43.4211 29.6497C44.3892 29.5726 45.3463 29.4956 46.3951 29.4113C46.4648 28.3662 46.5271 27.4017 46.6041 26.2393H53.0032C53.0729 25.1428 53.1279 24.2407 53.1829 23.3459C54.5727 22.9499 60.0734 22.8729 62.6623 23.2249C62.71 24.0977 62.7613 24.9961 62.8273 26.1623C63.8651 26.1733 64.8919 26.1916 65.9187 26.1989C66.9712 26.2063 68.02 26.1989 69.2338 26.1989C69.3181 27.3064 69.3951 28.3222 69.4758 29.415C70.4696 29.4883 71.368 29.558 72.3948 29.6313C72.4828 30.6361 72.5672 31.5896 72.6588 32.6383C73.6856 32.719 74.6501 32.796 75.7905 32.8877V39.1328C76.9053 39.2208 77.8588 39.2941 78.8966 39.3748V48.8469C77.9358 48.9459 76.986 49.0449 75.7502 49.1733V55.4953H72.5488C72.5818 56.0711 72.5965 56.3791 72.6148 56.6871H72.6185Z" fill="#ECF335"/>
<rect x="45.645" y="33.6196" width="6.9377" height="4.33606" fill="#101010"/>
<rect x="45.645" y="50.5322" width="6.9377" height="4.33606" fill="#101010"/>
<rect x="63.498" y="50.4858" width="3.58868" height="4.2328" transform="rotate(-180 63.498 50.4858)" fill="#101010"/>
<rect x="56.1318" y="50.4858" width="3.58868" height="4.2328" transform="rotate(-180 56.1318 50.4858)" fill="#101010"/>
<rect x="70.3672" y="33.6196" width="4.33606" height="6.9377" transform="rotate(90 70.3672 33.6196)" fill="#101010"/>
<rect x="63.498" y="38.1548" width="4.32482" height="3.58868" transform="rotate(90 63.498 38.1548)" fill="#101010"/>
<rect x="70.3672" y="50.5322" width="4.33606" height="6.9377" transform="rotate(90 70.3672 50.5322)" fill="#101010"/>
<rect x="56.1318" y="38.1548" width="4.32482" height="3.58868" transform="rotate(90 56.1318 38.1548)" fill="#101010"/>
<rect x="56.1758" y="42.4507" width="3.75648" height="3.75648" fill="#101010"/>
</svg>
