<svg width="52" height="86" viewBox="0 0 52 86" fill="none" xmlns="http://www.w3.org/2000/svg">
<rect x="-1" y="1" width="50" height="84" transform="matrix(-1 0 0 1 50 0)" stroke="#DCE0D2" stroke-width="2"/>
<path d="M30.7143 27L30.7143 31.4898L35 31.4898L35 27L30.7143 27ZM26.4286 31.4898V35.9796H30.7143L30.7143 31.4898H26.4286ZM22.1429 35.9796V40.4694H26.4286L26.4286 35.9796H22.1429ZM17.8571 40.4694V44.9592H22.1429V40.4694H17.8571ZM22.1429 44.9592V49.449H26.4286L26.4286 44.9592H22.1429ZM26.4286 49.449V53.9388H30.7143L30.7143 49.449L26.4286 49.449ZM30.7143 53.9388L30.7143 58.4286H35L35 53.9388H30.7143Z" fill="#DCE0D2"/>
</svg>
