<svg width="586" height="281" viewBox="0 0 586 281" fill="none" xmlns="http://www.w3.org/2000/svg">
<mask id="path-1-outside-1_1_33" maskUnits="userSpaceOnUse" x="152.3" y="41" width="434" height="125" fill="black">
<rect fill="white" x="152.3" y="41" width="434" height="125"/>
<path fill-rule="evenodd" clip-rule="evenodd" d="M167.3 103.161V150.322H176.719H186.139V137.521V124.72H193.456C200.725 124.72 200.773 124.747 201.193 129.1C201.563 132.951 202.142 133.53 205.988 133.901C209.834 134.272 210.361 134.801 210.361 138.28C210.361 141.779 210.829 142.237 214.398 142.237C217.987 142.237 218.435 142.686 218.435 146.28V150.322H227.855H237.275V141.564V132.805H232.565C228.229 132.805 227.855 132.484 227.855 128.763C227.855 125.169 227.407 124.72 223.818 124.72C220.229 124.72 219.781 124.272 219.781 120.678C219.781 117.084 220.229 116.636 223.818 116.636H227.855V107.877V99.1186H232.565H237.275V85.6441V72.1695H232.565C228.229 72.1695 227.855 71.8488 227.855 68.1271C227.855 64.5334 227.407 64.0847 223.818 64.0847C220.229 64.0847 219.781 63.636 219.781 60.0424V56H193.54H167.3V103.161ZM274.953 64.0847V72.1695H270.916H266.879V80.928V89.6864H262.842H258.805V102.487V115.288H254.095H249.386V124.047V132.805H245.349H241.312V141.564V150.322H250.731H260.151V142.237V134.153H264.188C267.905 134.153 268.225 133.778 268.225 129.436V124.72H285.046H301.867V129.436C301.867 133.778 302.187 134.153 305.904 134.153H309.941V142.237V150.322H319.425H328.908L328.508 141.9C328.107 133.479 328.107 133.479 323.734 133.057L319.36 132.634V123.962V115.288H315.323H311.286V102.487V89.6864H306.576H301.867V80.928V72.1695H297.83H293.793V64.0847V56H284.373H274.953V64.0847ZM361.076 60.0424V64.0847H353.002C344.967 64.0847 344.928 64.1036 344.928 68.0422C344.928 71.5214 344.4 72.0496 340.554 72.4215C336.181 72.8432 336.181 72.8432 335.78 81.2648C335.384 89.6029 335.34 89.6864 331.407 89.6864H327.434V103.161V116.636H331.407C335.34 116.636 335.384 116.719 335.78 125.057C336.181 133.479 336.181 133.479 340.554 133.901C344.4 134.272 344.928 134.801 344.928 138.28C344.928 142.218 344.967 142.237 353.002 142.237H361.076V146.28V150.322H379.242H397.409V146.344C397.409 142.406 397.492 142.361 405.819 141.965C413.88 141.58 414.247 141.41 414.655 137.858C415.012 134.755 415.723 134.153 419.028 134.153H422.977V124.72V115.288H413.557H404.137V120.004V124.72H396.063H387.989V128.763V132.805H379.915H371.841V128.763V124.72H363.094H354.348V120.004C354.348 115.663 354.027 115.288 350.311 115.288H346.274V103.161V91.0339H350.311C353.885 91.0339 354.348 90.5771 354.348 87.0562C354.348 83.1176 354.431 83.0731 362.758 82.677C371.168 82.2754 371.168 82.2754 371.59 77.8962L372.012 73.517H380H387.989V78.2331V82.9492H396.063H404.137V86.9915V91.0339H413.557H422.977V81.6017V72.1695H419.028C415.723 72.1695 415.012 71.5672 414.655 68.464C414.247 64.9121 413.88 64.7423 405.819 64.3569C397.492 63.9608 397.409 63.9163 397.409 59.9777V56H379.242H361.076V60.0424ZM431.051 103.161V150.322H461.328H491.606V141.564V132.805H470.748H449.89V124.72V116.636H470.748H491.606V107.203V97.7712H470.748H449.89V85.6441V73.517H470.748H491.606V64.7585V56H461.328H431.051V103.161ZM501.025 103.161V150.322H510.445H519.865V137.521V124.72H527.181C534.45 124.72 534.499 124.747 534.919 129.1C535.289 132.951 535.867 133.53 539.713 133.901C543.559 134.272 544.087 134.801 544.087 138.28C544.087 141.779 544.555 142.237 548.124 142.237C551.713 142.237 552.161 142.686 552.161 146.28V150.322H561.58H571V141.564V132.805H566.29C561.954 132.805 561.58 132.484 561.58 128.763C561.58 125.169 561.132 124.72 557.543 124.72C553.954 124.72 553.506 124.272 553.506 120.678C553.506 117.084 553.954 116.636 557.543 116.636H561.58V107.877V99.1186H566.29H571V85.6441V72.1695H566.29C561.954 72.1695 561.58 71.8488 561.58 68.1271C561.58 64.5334 561.132 64.0847 557.543 64.0847C553.954 64.0847 553.506 63.636 553.506 60.0424V56H527.266H501.025V103.161ZM218.435 85.5551V97.592L214.735 98.0191C211.652 98.3735 210.964 99.1752 210.613 102.824L210.19 107.203H198.165H186.139V90.3602V73.517H202.287H218.435V85.5551ZM552.161 85.5551V97.592L548.46 98.0191C545.377 98.3735 544.69 99.1752 544.338 102.824L543.916 107.203H531.891H519.865V90.3602V73.517H536.013H552.161V85.5551ZM292.447 99.1186V107.203H284.373H276.299V99.1186V91.0339H284.373H292.447V99.1186Z"/>
</mask>
<path fill-rule="evenodd" clip-rule="evenodd" d="M167.3 103.161V150.322H176.719H186.139V137.521V124.72H193.456C200.725 124.72 200.773 124.747 201.193 129.1C201.563 132.951 202.142 133.53 205.988 133.901C209.834 134.272 210.361 134.801 210.361 138.28C210.361 141.779 210.829 142.237 214.398 142.237C217.987 142.237 218.435 142.686 218.435 146.28V150.322H227.855H237.275V141.564V132.805H232.565C228.229 132.805 227.855 132.484 227.855 128.763C227.855 125.169 227.407 124.72 223.818 124.72C220.229 124.72 219.781 124.272 219.781 120.678C219.781 117.084 220.229 116.636 223.818 116.636H227.855V107.877V99.1186H232.565H237.275V85.6441V72.1695H232.565C228.229 72.1695 227.855 71.8488 227.855 68.1271C227.855 64.5334 227.407 64.0847 223.818 64.0847C220.229 64.0847 219.781 63.636 219.781 60.0424V56H193.54H167.3V103.161ZM274.953 64.0847V72.1695H270.916H266.879V80.928V89.6864H262.842H258.805V102.487V115.288H254.095H249.386V124.047V132.805H245.349H241.312V141.564V150.322H250.731H260.151V142.237V134.153H264.188C267.905 134.153 268.225 133.778 268.225 129.436V124.72H285.046H301.867V129.436C301.867 133.778 302.187 134.153 305.904 134.153H309.941V142.237V150.322H319.425H328.908L328.508 141.9C328.107 133.479 328.107 133.479 323.734 133.057L319.36 132.634V123.962V115.288H315.323H311.286V102.487V89.6864H306.576H301.867V80.928V72.1695H297.83H293.793V64.0847V56H284.373H274.953V64.0847ZM361.076 60.0424V64.0847H353.002C344.967 64.0847 344.928 64.1036 344.928 68.0422C344.928 71.5214 344.4 72.0496 340.554 72.4215C336.181 72.8432 336.181 72.8432 335.78 81.2648C335.384 89.6029 335.34 89.6864 331.407 89.6864H327.434V103.161V116.636H331.407C335.34 116.636 335.384 116.719 335.78 125.057C336.181 133.479 336.181 133.479 340.554 133.901C344.4 134.272 344.928 134.801 344.928 138.28C344.928 142.218 344.967 142.237 353.002 142.237H361.076V146.28V150.322H379.242H397.409V146.344C397.409 142.406 397.492 142.361 405.819 141.965C413.88 141.58 414.247 141.41 414.655 137.858C415.012 134.755 415.723 134.153 419.028 134.153H422.977V124.72V115.288H413.557H404.137V120.004V124.72H396.063H387.989V128.763V132.805H379.915H371.841V128.763V124.72H363.094H354.348V120.004C354.348 115.663 354.027 115.288 350.311 115.288H346.274V103.161V91.0339H350.311C353.885 91.0339 354.348 90.5771 354.348 87.0562C354.348 83.1176 354.431 83.0731 362.758 82.677C371.168 82.2754 371.168 82.2754 371.59 77.8962L372.012 73.517H380H387.989V78.2331V82.9492H396.063H404.137V86.9915V91.0339H413.557H422.977V81.6017V72.1695H419.028C415.723 72.1695 415.012 71.5672 414.655 68.464C414.247 64.9121 413.88 64.7423 405.819 64.3569C397.492 63.9608 397.409 63.9163 397.409 59.9777V56H379.242H361.076V60.0424ZM431.051 103.161V150.322H461.328H491.606V141.564V132.805H470.748H449.89V124.72V116.636H470.748H491.606V107.203V97.7712H470.748H449.89V85.6441V73.517H470.748H491.606V64.7585V56H461.328H431.051V103.161ZM501.025 103.161V150.322H510.445H519.865V137.521V124.72H527.181C534.45 124.72 534.499 124.747 534.919 129.1C535.289 132.951 535.867 133.53 539.713 133.901C543.559 134.272 544.087 134.801 544.087 138.28C544.087 141.779 544.555 142.237 548.124 142.237C551.713 142.237 552.161 142.686 552.161 146.28V150.322H561.58H571V141.564V132.805H566.29C561.954 132.805 561.58 132.484 561.58 128.763C561.58 125.169 561.132 124.72 557.543 124.72C553.954 124.72 553.506 124.272 553.506 120.678C553.506 117.084 553.954 116.636 557.543 116.636H561.58V107.877V99.1186H566.29H571V85.6441V72.1695H566.29C561.954 72.1695 561.58 71.8488 561.58 68.1271C561.58 64.5334 561.132 64.0847 557.543 64.0847C553.954 64.0847 553.506 63.636 553.506 60.0424V56H527.266H501.025V103.161ZM218.435 85.5551V97.592L214.735 98.0191C211.652 98.3735 210.964 99.1752 210.613 102.824L210.19 107.203H198.165H186.139V90.3602V73.517H202.287H218.435V85.5551ZM552.161 85.5551V97.592L548.46 98.0191C545.377 98.3735 544.69 99.1752 544.338 102.824L543.916 107.203H531.891H519.865V90.3602V73.517H536.013H552.161V85.5551ZM292.447 99.1186V107.203H284.373H276.299V99.1186V91.0339H284.373H292.447V99.1186Z" fill="#ECF335"/>
<path fill-rule="evenodd" clip-rule="evenodd" d="M167.3 103.161V150.322H176.719H186.139V137.521V124.72H193.456C200.725 124.72 200.773 124.747 201.193 129.1C201.563 132.951 202.142 133.53 205.988 133.901C209.834 134.272 210.361 134.801 210.361 138.28C210.361 141.779 210.829 142.237 214.398 142.237C217.987 142.237 218.435 142.686 218.435 146.28V150.322H227.855H237.275V141.564V132.805H232.565C228.229 132.805 227.855 132.484 227.855 128.763C227.855 125.169 227.407 124.72 223.818 124.72C220.229 124.72 219.781 124.272 219.781 120.678C219.781 117.084 220.229 116.636 223.818 116.636H227.855V107.877V99.1186H232.565H237.275V85.6441V72.1695H232.565C228.229 72.1695 227.855 71.8488 227.855 68.1271C227.855 64.5334 227.407 64.0847 223.818 64.0847C220.229 64.0847 219.781 63.636 219.781 60.0424V56H193.54H167.3V103.161ZM274.953 64.0847V72.1695H270.916H266.879V80.928V89.6864H262.842H258.805V102.487V115.288H254.095H249.386V124.047V132.805H245.349H241.312V141.564V150.322H250.731H260.151V142.237V134.153H264.188C267.905 134.153 268.225 133.778 268.225 129.436V124.72H285.046H301.867V129.436C301.867 133.778 302.187 134.153 305.904 134.153H309.941V142.237V150.322H319.425H328.908L328.508 141.9C328.107 133.479 328.107 133.479 323.734 133.057L319.36 132.634V123.962V115.288H315.323H311.286V102.487V89.6864H306.576H301.867V80.928V72.1695H297.83H293.793V64.0847V56H284.373H274.953V64.0847ZM361.076 60.0424V64.0847H353.002C344.967 64.0847 344.928 64.1036 344.928 68.0422C344.928 71.5214 344.4 72.0496 340.554 72.4215C336.181 72.8432 336.181 72.8432 335.78 81.2648C335.384 89.6029 335.34 89.6864 331.407 89.6864H327.434V103.161V116.636H331.407C335.34 116.636 335.384 116.719 335.78 125.057C336.181 133.479 336.181 133.479 340.554 133.901C344.4 134.272 344.928 134.801 344.928 138.28C344.928 142.218 344.967 142.237 353.002 142.237H361.076V146.28V150.322H379.242H397.409V146.344C397.409 142.406 397.492 142.361 405.819 141.965C413.88 141.58 414.247 141.41 414.655 137.858C415.012 134.755 415.723 134.153 419.028 134.153H422.977V124.72V115.288H413.557H404.137V120.004V124.72H396.063H387.989V128.763V132.805H379.915H371.841V128.763V124.72H363.094H354.348V120.004C354.348 115.663 354.027 115.288 350.311 115.288H346.274V103.161V91.0339H350.311C353.885 91.0339 354.348 90.5771 354.348 87.0562C354.348 83.1176 354.431 83.0731 362.758 82.677C371.168 82.2754 371.168 82.2754 371.59 77.8962L372.012 73.517H380H387.989V78.2331V82.9492H396.063H404.137V86.9915V91.0339H413.557H422.977V81.6017V72.1695H419.028C415.723 72.1695 415.012 71.5672 414.655 68.464C414.247 64.9121 413.88 64.7423 405.819 64.3569C397.492 63.9608 397.409 63.9163 397.409 59.9777V56H379.242H361.076V60.0424ZM431.051 103.161V150.322H461.328H491.606V141.564V132.805H470.748H449.89V124.72V116.636H470.748H491.606V107.203V97.7712H470.748H449.89V85.6441V73.517H470.748H491.606V64.7585V56H461.328H431.051V103.161ZM501.025 103.161V150.322H510.445H519.865V137.521V124.72H527.181C534.45 124.72 534.499 124.747 534.919 129.1C535.289 132.951 535.867 133.53 539.713 133.901C543.559 134.272 544.087 134.801 544.087 138.28C544.087 141.779 544.555 142.237 548.124 142.237C551.713 142.237 552.161 142.686 552.161 146.28V150.322H561.58H571V141.564V132.805H566.29C561.954 132.805 561.58 132.484 561.58 128.763C561.58 125.169 561.132 124.72 557.543 124.72C553.954 124.72 553.506 124.272 553.506 120.678C553.506 117.084 553.954 116.636 557.543 116.636H561.58V107.877V99.1186H566.29H571V85.6441V72.1695H566.29C561.954 72.1695 561.58 71.8488 561.58 68.1271C561.58 64.5334 561.132 64.0847 557.543 64.0847C553.954 64.0847 553.506 63.636 553.506 60.0424V56H527.266H501.025V103.161ZM218.435 85.5551V97.592L214.735 98.0191C211.652 98.3735 210.964 99.1752 210.613 102.824L210.19 107.203H198.165H186.139V90.3602V73.517H202.287H218.435V85.5551ZM552.161 85.5551V97.592L548.46 98.0191C545.377 98.3735 544.69 99.1752 544.338 102.824L543.916 107.203H531.891H519.865V90.3602V73.517H536.013H552.161V85.5551ZM292.447 99.1186V107.203H284.373H276.299V99.1186V91.0339H284.373H292.447V99.1186Z" stroke="#101010" stroke-width="30" mask="url(#path-1-outside-1_1_33)"/>
<mask id="path-2-outside-2_1_33" maskUnits="userSpaceOnUse" x="0" y="156.68" width="586" height="125" fill="black">
<rect fill="white" y="156.68" width="586" height="125"/>
<path fill-rule="evenodd" clip-rule="evenodd" d="M15 218.841V266.002H45.2775H75.555V257.243V248.485H54.6972H33.8393V210.082V171.68H24.4197H15V218.841ZM83.629 218.841V266.002H113.907H144.184V257.243V248.485H123.326H102.468V240.4V232.315H123.326H144.184V222.883V213.451H123.326H102.468V201.324V189.197H123.326H144.184V180.438V171.68H113.907H83.629V218.841ZM183.208 175.722V179.764H175.134C167.099 179.764 167.06 179.783 167.06 183.722C167.06 187.201 166.533 187.729 162.687 188.101C158.314 188.523 158.314 188.523 157.913 196.945C157.517 205.283 157.473 205.366 153.539 205.366H149.567V218.841V232.315H153.539C157.473 232.315 157.517 232.399 157.913 240.737C158.314 249.159 158.314 249.159 162.687 249.58C166.533 249.952 167.06 250.48 167.06 253.959C167.06 257.898 167.099 257.917 175.134 257.917H183.208V261.959V266.002H201.375H219.541V262.024C219.541 258.085 219.625 258.041 227.952 257.645C236.012 257.259 236.38 257.09 236.788 253.538C237.145 250.425 237.852 249.832 241.2 249.832H245.187L244.812 231.978L244.436 214.125H218.869H193.301L192.903 223.22L192.506 232.315H209.387H226.27V236.358C226.27 239.951 225.822 240.4 222.233 240.4C218.644 240.4 218.196 240.849 218.196 244.442V248.485H201.375H184.554V244.442C184.554 240.849 184.106 240.4 180.517 240.4C176.8 240.4 176.48 240.025 176.48 235.684C176.48 231.342 176.16 230.968 172.443 230.968H168.406V218.841V206.714H172.443C176.017 206.714 176.48 206.257 176.48 202.736C176.48 198.797 176.563 198.753 184.89 198.357C193.301 197.955 193.301 197.955 193.722 193.576L194.145 189.197H202.133H210.122V193.913V198.629H218.196H226.27V202.671V206.714H235.689H245.109V197.281V187.849H241.161C237.856 187.849 237.144 187.247 236.788 184.144C236.38 180.592 236.012 180.422 227.952 180.037C219.625 179.64 219.541 179.596 219.541 175.657V171.68H201.375H183.208V175.722ZM254.529 218.841V266.002H284.806H315.084V257.243V248.485H294.226H273.368V240.4V232.315H294.226H315.084V222.883V213.451H294.226H273.368V201.324V189.197H294.226H315.084V180.438V171.68H284.806H254.529V218.841ZM323.158 218.841V266.002H332.577H341.997V236.358V206.714H345.361C348.202 206.714 348.725 207.343 348.725 210.756C348.725 214.329 349.183 214.798 352.678 214.798C356.152 214.798 356.68 215.327 357.051 219.178C357.421 223.029 358 223.608 361.846 223.979C365.692 224.35 366.219 224.879 366.219 228.358C366.219 231.857 366.687 232.315 370.256 232.315H374.293V241.074V249.832H379.003C383.339 249.832 383.713 250.153 383.713 253.875C383.713 257.468 384.161 257.917 387.75 257.917C391.339 257.917 391.787 258.366 391.787 261.959V266.002H401.206H410.626V218.841V171.68H401.206H391.787V201.324V230.968H387.75C384.161 230.968 383.713 230.519 383.713 226.925C383.713 223.352 383.255 222.883 379.761 222.883C376.286 222.883 375.759 222.355 375.387 218.504C375.036 214.855 374.348 214.053 371.265 213.699C368.166 213.342 367.565 212.629 367.565 209.32C367.565 205.7 367.168 205.366 362.855 205.366H358.145V196.608V187.849H354.108C350.519 187.849 350.071 187.4 350.071 183.807C350.071 180.213 349.623 179.764 346.034 179.764C342.445 179.764 341.997 179.316 341.997 175.722V171.68H332.577H323.158V218.841ZM418.7 218.841V266.002H444.941H471.181V261.959V257.917H479.928H488.675V253.875C488.675 250.281 489.123 249.832 492.712 249.832H496.749V241.159V232.486L501.122 232.063L505.496 231.642V218.841V206.04L501.122 205.618L496.749 205.195V196.523V187.849H492.712C489.123 187.849 488.675 187.4 488.675 183.807V179.764H479.928H471.181V175.722V171.68H444.941H418.7V218.841ZM527.699 175.722C527.699 179.444 527.325 179.764 522.989 179.764C518.654 179.764 518.28 180.085 518.28 183.807C518.28 187.4 517.831 187.849 514.243 187.849H510.206V197.281V206.714H514.243C517.831 206.714 518.28 207.162 518.28 210.756C518.28 214.478 518.654 214.798 522.989 214.798C527.474 214.798 527.699 215.023 527.699 219.514V224.231H535.684C543.394 224.231 543.683 224.359 544.095 227.936C544.449 231.023 545.249 231.712 548.893 232.063L553.267 232.486V240.485V248.485H541.156H529.045V239.726V230.968H519.625H510.206V240.4V249.832H514.243C517.831 249.832 518.28 250.281 518.28 253.875C518.28 257.596 518.654 257.917 522.989 257.917C527.325 257.917 527.699 258.238 527.699 261.959V266.002H541.156H554.613V261.959C554.613 258.366 555.061 257.917 558.65 257.917C562.238 257.917 562.687 257.468 562.687 253.875C562.687 250.281 563.135 249.832 566.724 249.832H570.761V240.4V230.968H566.724C563.135 230.968 562.687 230.519 562.687 226.925C562.687 223.352 562.229 222.883 558.734 222.883C555.26 222.883 554.732 222.355 554.361 218.504C553.94 214.125 553.94 214.125 545.529 213.723C537.202 213.327 537.119 213.282 537.119 209.344C537.119 205.823 536.656 205.366 533.082 205.366H529.045V197.281V189.197H541.156H553.267V197.955V206.714H562.014H570.761V197.281V187.849H566.724C563.135 187.849 562.687 187.4 562.687 183.807C562.687 180.213 562.238 179.764 558.65 179.764C555.061 179.764 554.613 179.316 554.613 175.722V171.68H541.156H527.699V175.722ZM462.013 193.576C462.434 197.955 462.434 197.955 470.845 198.357C479.172 198.753 479.255 198.797 479.255 202.736C479.255 206.257 479.718 206.714 483.292 206.714H487.329V218.841V230.968H483.292C479.576 230.968 479.255 231.342 479.255 235.684V240.4H470.508H461.762V244.442V248.485H449.651H437.539V218.841V189.197H449.566H461.591L462.013 193.576Z"/>
</mask>
<path fill-rule="evenodd" clip-rule="evenodd" d="M15 218.841V266.002H45.2775H75.555V257.243V248.485H54.6972H33.8393V210.082V171.68H24.4197H15V218.841ZM83.629 218.841V266.002H113.907H144.184V257.243V248.485H123.326H102.468V240.4V232.315H123.326H144.184V222.883V213.451H123.326H102.468V201.324V189.197H123.326H144.184V180.438V171.68H113.907H83.629V218.841ZM183.208 175.722V179.764H175.134C167.099 179.764 167.06 179.783 167.06 183.722C167.06 187.201 166.533 187.729 162.687 188.101C158.314 188.523 158.314 188.523 157.913 196.945C157.517 205.283 157.473 205.366 153.539 205.366H149.567V218.841V232.315H153.539C157.473 232.315 157.517 232.399 157.913 240.737C158.314 249.159 158.314 249.159 162.687 249.58C166.533 249.952 167.06 250.48 167.06 253.959C167.06 257.898 167.099 257.917 175.134 257.917H183.208V261.959V266.002H201.375H219.541V262.024C219.541 258.085 219.625 258.041 227.952 257.645C236.012 257.259 236.38 257.09 236.788 253.538C237.145 250.425 237.852 249.832 241.2 249.832H245.187L244.812 231.978L244.436 214.125H218.869H193.301L192.903 223.22L192.506 232.315H209.387H226.27V236.358C226.27 239.951 225.822 240.4 222.233 240.4C218.644 240.4 218.196 240.849 218.196 244.442V248.485H201.375H184.554V244.442C184.554 240.849 184.106 240.4 180.517 240.4C176.8 240.4 176.48 240.025 176.48 235.684C176.48 231.342 176.16 230.968 172.443 230.968H168.406V218.841V206.714H172.443C176.017 206.714 176.48 206.257 176.48 202.736C176.48 198.797 176.563 198.753 184.89 198.357C193.301 197.955 193.301 197.955 193.722 193.576L194.145 189.197H202.133H210.122V193.913V198.629H218.196H226.27V202.671V206.714H235.689H245.109V197.281V187.849H241.161C237.856 187.849 237.144 187.247 236.788 184.144C236.38 180.592 236.012 180.422 227.952 180.037C219.625 179.64 219.541 179.596 219.541 175.657V171.68H201.375H183.208V175.722ZM254.529 218.841V266.002H284.806H315.084V257.243V248.485H294.226H273.368V240.4V232.315H294.226H315.084V222.883V213.451H294.226H273.368V201.324V189.197H294.226H315.084V180.438V171.68H284.806H254.529V218.841ZM323.158 218.841V266.002H332.577H341.997V236.358V206.714H345.361C348.202 206.714 348.725 207.343 348.725 210.756C348.725 214.329 349.183 214.798 352.678 214.798C356.152 214.798 356.68 215.327 357.051 219.178C357.421 223.029 358 223.608 361.846 223.979C365.692 224.35 366.219 224.879 366.219 228.358C366.219 231.857 366.687 232.315 370.256 232.315H374.293V241.074V249.832H379.003C383.339 249.832 383.713 250.153 383.713 253.875C383.713 257.468 384.161 257.917 387.75 257.917C391.339 257.917 391.787 258.366 391.787 261.959V266.002H401.206H410.626V218.841V171.68H401.206H391.787V201.324V230.968H387.75C384.161 230.968 383.713 230.519 383.713 226.925C383.713 223.352 383.255 222.883 379.761 222.883C376.286 222.883 375.759 222.355 375.387 218.504C375.036 214.855 374.348 214.053 371.265 213.699C368.166 213.342 367.565 212.629 367.565 209.32C367.565 205.7 367.168 205.366 362.855 205.366H358.145V196.608V187.849H354.108C350.519 187.849 350.071 187.4 350.071 183.807C350.071 180.213 349.623 179.764 346.034 179.764C342.445 179.764 341.997 179.316 341.997 175.722V171.68H332.577H323.158V218.841ZM418.7 218.841V266.002H444.941H471.181V261.959V257.917H479.928H488.675V253.875C488.675 250.281 489.123 249.832 492.712 249.832H496.749V241.159V232.486L501.122 232.063L505.496 231.642V218.841V206.04L501.122 205.618L496.749 205.195V196.523V187.849H492.712C489.123 187.849 488.675 187.4 488.675 183.807V179.764H479.928H471.181V175.722V171.68H444.941H418.7V218.841ZM527.699 175.722C527.699 179.444 527.325 179.764 522.989 179.764C518.654 179.764 518.28 180.085 518.28 183.807C518.28 187.4 517.831 187.849 514.243 187.849H510.206V197.281V206.714H514.243C517.831 206.714 518.28 207.162 518.28 210.756C518.28 214.478 518.654 214.798 522.989 214.798C527.474 214.798 527.699 215.023 527.699 219.514V224.231H535.684C543.394 224.231 543.683 224.359 544.095 227.936C544.449 231.023 545.249 231.712 548.893 232.063L553.267 232.486V240.485V248.485H541.156H529.045V239.726V230.968H519.625H510.206V240.4V249.832H514.243C517.831 249.832 518.28 250.281 518.28 253.875C518.28 257.596 518.654 257.917 522.989 257.917C527.325 257.917 527.699 258.238 527.699 261.959V266.002H541.156H554.613V261.959C554.613 258.366 555.061 257.917 558.65 257.917C562.238 257.917 562.687 257.468 562.687 253.875C562.687 250.281 563.135 249.832 566.724 249.832H570.761V240.4V230.968H566.724C563.135 230.968 562.687 230.519 562.687 226.925C562.687 223.352 562.229 222.883 558.734 222.883C555.26 222.883 554.732 222.355 554.361 218.504C553.94 214.125 553.94 214.125 545.529 213.723C537.202 213.327 537.119 213.282 537.119 209.344C537.119 205.823 536.656 205.366 533.082 205.366H529.045V197.281V189.197H541.156H553.267V197.955V206.714H562.014H570.761V197.281V187.849H566.724C563.135 187.849 562.687 187.4 562.687 183.807C562.687 180.213 562.238 179.764 558.65 179.764C555.061 179.764 554.613 179.316 554.613 175.722V171.68H541.156H527.699V175.722ZM462.013 193.576C462.434 197.955 462.434 197.955 470.845 198.357C479.172 198.753 479.255 198.797 479.255 202.736C479.255 206.257 479.718 206.714 483.292 206.714H487.329V218.841V230.968H483.292C479.576 230.968 479.255 231.342 479.255 235.684V240.4H470.508H461.762V244.442V248.485H449.651H437.539V218.841V189.197H449.566H461.591L462.013 193.576Z" fill="#ECF335"/>
<path fill-rule="evenodd" clip-rule="evenodd" d="M15 218.841V266.002H45.2775H75.555V257.243V248.485H54.6972H33.8393V210.082V171.68H24.4197H15V218.841ZM83.629 218.841V266.002H113.907H144.184V257.243V248.485H123.326H102.468V240.4V232.315H123.326H144.184V222.883V213.451H123.326H102.468V201.324V189.197H123.326H144.184V180.438V171.68H113.907H83.629V218.841ZM183.208 175.722V179.764H175.134C167.099 179.764 167.06 179.783 167.06 183.722C167.06 187.201 166.533 187.729 162.687 188.101C158.314 188.523 158.314 188.523 157.913 196.945C157.517 205.283 157.473 205.366 153.539 205.366H149.567V218.841V232.315H153.539C157.473 232.315 157.517 232.399 157.913 240.737C158.314 249.159 158.314 249.159 162.687 249.58C166.533 249.952 167.06 250.48 167.06 253.959C167.06 257.898 167.099 257.917 175.134 257.917H183.208V261.959V266.002H201.375H219.541V262.024C219.541 258.085 219.625 258.041 227.952 257.645C236.012 257.259 236.38 257.09 236.788 253.538C237.145 250.425 237.852 249.832 241.2 249.832H245.187L244.812 231.978L244.436 214.125H218.869H193.301L192.903 223.22L192.506 232.315H209.387H226.27V236.358C226.27 239.951 225.822 240.4 222.233 240.4C218.644 240.4 218.196 240.849 218.196 244.442V248.485H201.375H184.554V244.442C184.554 240.849 184.106 240.4 180.517 240.4C176.8 240.4 176.48 240.025 176.48 235.684C176.48 231.342 176.16 230.968 172.443 230.968H168.406V218.841V206.714H172.443C176.017 206.714 176.48 206.257 176.48 202.736C176.48 198.797 176.563 198.753 184.89 198.357C193.301 197.955 193.301 197.955 193.722 193.576L194.145 189.197H202.133H210.122V193.913V198.629H218.196H226.27V202.671V206.714H235.689H245.109V197.281V187.849H241.161C237.856 187.849 237.144 187.247 236.788 184.144C236.38 180.592 236.012 180.422 227.952 180.037C219.625 179.64 219.541 179.596 219.541 175.657V171.68H201.375H183.208V175.722ZM254.529 218.841V266.002H284.806H315.084V257.243V248.485H294.226H273.368V240.4V232.315H294.226H315.084V222.883V213.451H294.226H273.368V201.324V189.197H294.226H315.084V180.438V171.68H284.806H254.529V218.841ZM323.158 218.841V266.002H332.577H341.997V236.358V206.714H345.361C348.202 206.714 348.725 207.343 348.725 210.756C348.725 214.329 349.183 214.798 352.678 214.798C356.152 214.798 356.68 215.327 357.051 219.178C357.421 223.029 358 223.608 361.846 223.979C365.692 224.35 366.219 224.879 366.219 228.358C366.219 231.857 366.687 232.315 370.256 232.315H374.293V241.074V249.832H379.003C383.339 249.832 383.713 250.153 383.713 253.875C383.713 257.468 384.161 257.917 387.75 257.917C391.339 257.917 391.787 258.366 391.787 261.959V266.002H401.206H410.626V218.841V171.68H401.206H391.787V201.324V230.968H387.75C384.161 230.968 383.713 230.519 383.713 226.925C383.713 223.352 383.255 222.883 379.761 222.883C376.286 222.883 375.759 222.355 375.387 218.504C375.036 214.855 374.348 214.053 371.265 213.699C368.166 213.342 367.565 212.629 367.565 209.32C367.565 205.7 367.168 205.366 362.855 205.366H358.145V196.608V187.849H354.108C350.519 187.849 350.071 187.4 350.071 183.807C350.071 180.213 349.623 179.764 346.034 179.764C342.445 179.764 341.997 179.316 341.997 175.722V171.68H332.577H323.158V218.841ZM418.7 218.841V266.002H444.941H471.181V261.959V257.917H479.928H488.675V253.875C488.675 250.281 489.123 249.832 492.712 249.832H496.749V241.159V232.486L501.122 232.063L505.496 231.642V218.841V206.04L501.122 205.618L496.749 205.195V196.523V187.849H492.712C489.123 187.849 488.675 187.4 488.675 183.807V179.764H479.928H471.181V175.722V171.68H444.941H418.7V218.841ZM527.699 175.722C527.699 179.444 527.325 179.764 522.989 179.764C518.654 179.764 518.28 180.085 518.28 183.807C518.28 187.4 517.831 187.849 514.243 187.849H510.206V197.281V206.714H514.243C517.831 206.714 518.28 207.162 518.28 210.756C518.28 214.478 518.654 214.798 522.989 214.798C527.474 214.798 527.699 215.023 527.699 219.514V224.231H535.684C543.394 224.231 543.683 224.359 544.095 227.936C544.449 231.023 545.249 231.712 548.893 232.063L553.267 232.486V240.485V248.485H541.156H529.045V239.726V230.968H519.625H510.206V240.4V249.832H514.243C517.831 249.832 518.28 250.281 518.28 253.875C518.28 257.596 518.654 257.917 522.989 257.917C527.325 257.917 527.699 258.238 527.699 261.959V266.002H541.156H554.613V261.959C554.613 258.366 555.061 257.917 558.65 257.917C562.238 257.917 562.687 257.468 562.687 253.875C562.687 250.281 563.135 249.832 566.724 249.832H570.761V240.4V230.968H566.724C563.135 230.968 562.687 230.519 562.687 226.925C562.687 223.352 562.229 222.883 558.734 222.883C555.26 222.883 554.732 222.355 554.361 218.504C553.94 214.125 553.94 214.125 545.529 213.723C537.202 213.327 537.119 213.282 537.119 209.344C537.119 205.823 536.656 205.366 533.082 205.366H529.045V197.281V189.197H541.156H553.267V197.955V206.714H562.014H570.761V197.281V187.849H566.724C563.135 187.849 562.687 187.4 562.687 183.807C562.687 180.213 562.238 179.764 558.65 179.764C555.061 179.764 554.613 179.316 554.613 175.722V171.68H541.156H527.699V175.722ZM462.013 193.576C462.434 197.955 462.434 197.955 470.845 198.357C479.172 198.753 479.255 198.797 479.255 202.736C479.255 206.257 479.718 206.714 483.292 206.714H487.329V218.841V230.968H483.292C479.576 230.968 479.255 231.342 479.255 235.684V240.4H470.508H461.762V244.442V248.485H449.651H437.539V218.841V189.197H449.566H461.591L462.013 193.576Z" stroke="#101010" stroke-width="30" mask="url(#path-2-outside-2_1_33)"/>
<path d="M135.484 81.9587V74.4587H127.984H116.654V64.8679V57.3679H109.154H90.3229H82.8229V64.8679V70.1367L78.9921 68.3327V56V48.5H71.4921H52.6614H45.1614V56V65.5908H41.3307V56V48.5H33.8307H15H7.5V56V73.0908V80.5908H15H26.3307V82.6817H15H7.5V90.1817V107.272V114.772H15H26.3307V124.363V131.863H33.8307H45.1614V141.454V148.954H52.6614H71.4921H78.9921V141.454V136.185L82.8229 137.989V150.322V157.822H90.3229H109.154H116.654V150.322V140.731H120.484V150.322V157.822H127.984H146.815H154.315V150.322V133.231V125.731H146.815H135.484V123.64H146.815H154.315V116.14V99.0495V91.5495H146.815H135.484V81.9587ZM60.1614 80.5908H63.9921V82.6817H60.1614V80.5908ZM60.1614 114.772H63.9921V116.863H60.1614V114.772ZM82.8229 103.808V104.318L78.9921 102.514V102.004L82.8229 103.808ZM97.8229 91.5495V89.4587H101.654V91.5495H97.8229ZM101.654 125.731H97.8229V123.64H101.654V125.731ZM116.654 106.55H120.484V108.64H116.654V106.55ZM41.3307 97.6817H45.1614V99.7725H41.3307V97.6817Z" fill="#ECF335" stroke="#101010" stroke-width="15"/>
<path d="M496.593 32C494.83 32 493.229 31.7105 491.792 31.1316C490.381 30.525 489.16 29.7117 488.13 28.6917C487.126 27.644 486.353 26.4172 485.81 25.0112C485.268 23.6051 484.997 22.0888 484.997 20.4622C484.997 18.8081 485.281 17.278 485.851 15.8719C486.448 14.4383 487.248 13.1977 488.252 12.1501C489.282 11.1024 490.49 10.2753 491.873 9.66881C493.283 9.06228 494.816 8.75902 496.471 8.75902C498.071 8.75902 499.55 9.0485 500.906 9.62745C502.289 10.1788 503.469 10.9646 504.446 11.9846C505.449 12.9771 506.236 14.1764 506.806 15.5824C507.375 16.9609 507.66 18.4772 507.66 20.1314V21.6615H488.252C488.36 22.7367 488.645 23.7154 489.106 24.5976C489.567 25.4798 490.15 26.2518 490.856 26.9135C491.588 27.5475 492.429 28.0438 493.378 28.4022C494.355 28.7606 495.426 28.9398 496.593 28.9398C498.356 28.9398 499.834 28.5676 501.028 27.8232C502.221 27.0789 503.198 26.0174 503.958 24.639L506.806 26.3345C505.666 28.1265 504.283 29.5188 502.655 30.5113C501.028 31.5037 499.007 32 496.593 32ZM496.471 11.7779C495.413 11.7779 494.423 11.9571 493.5 12.3155C492.605 12.6463 491.805 13.1288 491.1 13.7629C490.395 14.3694 489.798 15.1 489.31 15.9546C488.848 16.7817 488.523 17.6915 488.333 18.684H504.242C503.971 16.5611 503.144 14.8794 501.76 13.6388C500.377 12.3982 498.614 11.7779 496.471 11.7779Z" fill="#ECF335"/>
<path d="M473.605 20.6637L468.926 25.7089V31.5398H465.63V0H468.926V21.8216L480.563 9.20859H484.754L476.046 18.5546L485.283 31.5398H481.255L473.605 20.6637Z" fill="#ECF335"/>
<path d="M452.272 32C450.644 32 449.125 31.6967 447.714 31.0902C446.304 30.4837 445.083 29.6566 444.052 28.609C443.022 27.5613 442.208 26.3345 441.611 24.9285C441.041 23.5224 440.757 22.0061 440.757 20.3795C440.757 18.7253 441.055 17.1952 441.652 15.7892C442.249 14.3556 443.062 13.1288 444.093 12.1087C445.124 11.0611 446.331 10.2478 447.714 9.66881C449.125 9.06228 450.63 8.75902 452.231 8.75902C453.424 8.75902 454.55 8.92443 455.608 9.25527C456.693 9.5861 457.683 10.0548 458.578 10.6613C459.473 11.2403 460.26 11.9571 460.938 12.8117C461.644 13.6388 462.2 14.5486 462.606 15.5411L459.555 16.9058C458.904 15.3619 457.941 14.1488 456.666 13.2666C455.391 12.3844 453.899 11.9433 452.19 11.9433C451.051 11.9433 449.979 12.1638 448.976 12.6049C447.999 13.0461 447.145 13.6526 446.412 14.4245C445.68 15.1689 445.11 16.0649 444.703 17.1125C444.297 18.1326 444.093 19.2216 444.093 20.3795C444.093 21.5374 444.297 22.6264 444.703 23.6465C445.137 24.6665 445.721 25.5625 446.453 26.3345C447.185 27.1064 448.053 27.713 449.057 28.1541C450.061 28.5952 451.146 28.8157 452.312 28.8157C454.103 28.8157 455.608 28.3333 456.829 27.3683C458.076 26.3758 459.012 25.1352 459.636 23.6465L462.729 24.9698C461.861 27.0375 460.531 28.733 458.741 30.0564C456.978 31.3521 454.821 32 452.272 32Z" fill="#ECF335"/>
<path d="M427.807 32C426.179 32 424.674 31.7105 423.29 31.1316C421.907 30.525 420.7 29.698 419.669 28.6503C418.666 27.6027 417.865 26.3758 417.269 24.9698C416.699 23.5638 416.414 22.0337 416.414 20.3795C416.414 18.7529 416.699 17.2366 417.269 15.8306C417.865 14.397 418.679 13.1563 419.71 12.1087C420.741 11.0611 421.948 10.2478 423.331 9.66881C424.715 9.06228 426.207 8.75902 427.807 8.75902C429.407 8.75902 430.899 9.06228 432.283 9.66881C433.693 10.2478 434.914 11.0611 435.945 12.1087C436.975 13.1563 437.776 14.397 438.345 15.8306C438.942 17.2366 439.24 18.7529 439.24 20.3795C439.24 22.0061 438.942 23.5224 438.345 24.9285C437.776 26.3345 436.975 27.5613 435.945 28.609C434.914 29.6566 433.707 30.4837 432.323 31.0902C430.94 31.6967 429.434 32 427.807 32ZM427.807 28.7744C428.946 28.7744 430.004 28.5676 430.981 28.1541C431.984 27.713 432.839 27.1202 433.544 26.3758C434.276 25.6039 434.846 24.7079 435.253 23.6878C435.66 22.6678 435.863 21.565 435.863 20.3795C435.863 19.194 435.66 18.0912 435.253 17.0712C434.846 16.0235 434.276 15.1275 433.544 14.3832C432.812 13.6112 431.957 13.0185 430.981 12.6049C430.004 12.1638 428.946 11.9433 427.807 11.9433C426.668 11.9433 425.61 12.1638 424.633 12.6049C423.657 13.0185 422.802 13.6112 422.07 14.3832C421.365 15.1275 420.808 16.0235 420.402 17.0712C419.995 18.0912 419.791 19.194 419.791 20.3795C419.791 21.5926 419.995 22.7091 420.402 23.7292C420.808 24.7493 421.365 25.6315 422.07 26.3758C422.802 27.1202 423.657 27.713 424.633 28.1541C425.61 28.5676 426.668 28.7744 427.807 28.7744Z" fill="#ECF335"/>
<path d="M401 12.1968H403.999V31.4997H401V12.1968Z" fill="#ECF335"/>
<path d="M403.997 12.1965L403.997 9.14873L416.492 9.14872V12.1965L403.997 12.1965Z" fill="#ECF335"/>
<path d="M513.315 3.93308V24.8053C513.315 27.2865 513.844 29.0923 514.902 30.2227C515.96 31.3254 517.506 31.8768 519.541 31.8768C520.463 31.8768 521.29 31.739 522.023 31.4633C522.755 31.1876 523.433 30.8016 524.057 30.3054L522.308 27.6174C521.548 28.3342 520.707 28.6926 519.785 28.6926C518.835 28.6926 518.062 28.3893 517.466 27.7828C516.896 27.1762 516.611 26.1562 516.611 24.7226V12.4515H524.057V9.21479H516.611V3.9331L513.315 3.93308Z" fill="#ECF335"/>
<path d="M511.963 9.20097H508.465V12.6178H511.963V9.20097Z" fill="#ECF335"/>
<path d="M538.937 5.58039H547.09V10.7597H538.937V5.58039Z" fill="#ECF335"/>
<path d="M560.846 5.58037H569V10.7597H560.846V5.58037Z" fill="#ECF335"/>
<path d="M538.936 26.8172H547.09V31.9965H538.936V26.8172Z" fill="#ECF335"/>
<path d="M560.846 26.8172H569V31.9965H560.846V26.8172Z" fill="#ECF335"/>
<path d="M560.843 26.8172H556.257V21.1199L560.843 21.1199V26.8172Z" fill="#ECF335"/>
<path d="M560.843 16.451H556.257V10.7537H560.843V16.451Z" fill="#ECF335"/>
<path d="M551.686 26.8172H547.099V21.1199L551.686 21.1199V26.8172Z" fill="#ECF335"/>
<path d="M551.686 16.451H547.099V10.7537H551.686V16.451Z" fill="#ECF335"/>
<path d="M551.686 16.451H556.272V21.1124H551.686V16.451Z" fill="#ECF335"/>
</svg>
