<svg width="584" height="285" viewBox="0 0 584 285" fill="none" xmlns="http://www.w3.org/2000/svg">
<path d="M495.593 32C493.83 32 492.229 31.7105 490.792 31.1316C489.381 30.525 488.16 29.7117 487.13 28.6917C486.126 27.644 485.353 26.4172 484.81 25.0112C484.268 23.6051 483.997 22.0888 483.997 20.4622C483.997 18.8081 484.281 17.278 484.851 15.8719C485.448 14.4383 486.248 13.1977 487.252 12.15C488.282 11.1024 489.49 10.2753 490.873 9.66881C492.283 9.06228 493.816 8.75902 495.471 8.75902C497.071 8.75902 498.55 9.0485 499.906 9.62745C501.289 10.1788 502.469 10.9646 503.446 11.9846C504.449 12.9771 505.236 14.1764 505.806 15.5824C506.375 16.9609 506.66 18.4772 506.66 20.1314V21.6615H487.252C487.36 22.7367 487.645 23.7154 488.106 24.5976C488.567 25.4798 489.15 26.2518 489.856 26.9135C490.588 27.5475 491.429 28.0438 492.378 28.4022C493.355 28.7606 494.426 28.9398 495.593 28.9398C497.356 28.9398 498.834 28.5676 500.028 27.8232C501.221 27.0789 502.198 26.0174 502.958 24.639L505.806 26.3345C504.666 28.1265 503.283 29.5188 501.655 30.5113C500.028 31.5037 498.007 32 495.593 32ZM495.471 11.7779C494.413 11.7779 493.423 11.9571 492.5 12.3155C491.605 12.6463 490.805 13.1288 490.1 13.7629C489.395 14.3694 488.798 15.1 488.31 15.9546C487.848 16.7817 487.523 17.6915 487.333 18.684H503.242C502.971 16.5611 502.144 14.8794 500.76 13.6388C499.377 12.3982 497.614 11.7779 495.471 11.7779Z" fill="#ECF335"/>
<path d="M472.605 20.6637L467.926 25.7089V31.5398H464.63V0H467.926V21.8216L479.563 9.20859H483.754L475.046 18.5546L484.283 31.5398H480.255L472.605 20.6637Z" fill="#ECF335"/>
<path d="M451.272 32C449.644 32 448.125 31.6967 446.714 31.0902C445.304 30.4837 444.083 29.6566 443.052 28.609C442.022 27.5613 441.208 26.3345 440.611 24.9285C440.041 23.5224 439.757 22.0061 439.757 20.3795C439.757 18.7253 440.055 17.1952 440.652 15.7892C441.249 14.3556 442.062 13.1288 443.093 12.1087C444.124 11.0611 445.331 10.2478 446.714 9.66881C448.125 9.06228 449.63 8.75902 451.231 8.75902C452.424 8.75902 453.55 8.92443 454.608 9.25527C455.693 9.5861 456.683 10.0548 457.578 10.6613C458.473 11.2403 459.26 11.9571 459.938 12.8117C460.644 13.6388 461.2 14.5486 461.606 15.5411L458.555 16.9058C457.904 15.3619 456.941 14.1488 455.666 13.2666C454.391 12.3844 452.899 11.9433 451.19 11.9433C450.051 11.9433 448.979 12.1638 447.976 12.6049C446.999 13.0461 446.145 13.6526 445.412 14.4245C444.68 15.1689 444.11 16.0649 443.703 17.1125C443.297 18.1326 443.093 19.2216 443.093 20.3795C443.093 21.5374 443.297 22.6264 443.703 23.6465C444.137 24.6665 444.721 25.5625 445.453 26.3345C446.185 27.1064 447.053 27.713 448.057 28.1541C449.061 28.5952 450.146 28.8157 451.312 28.8157C453.103 28.8157 454.608 28.3333 455.829 27.3683C457.076 26.3758 458.012 25.1352 458.636 23.6465L461.729 24.9698C460.861 27.0375 459.531 28.733 457.741 30.0564C455.978 31.3521 453.821 32 451.272 32Z" fill="#ECF335"/>
<path d="M426.807 32C425.179 32 423.674 31.7105 422.29 31.1316C420.907 30.525 419.7 29.698 418.669 28.6503C417.666 27.6027 416.865 26.3758 416.269 24.9698C415.699 23.5638 415.414 22.0337 415.414 20.3795C415.414 18.7529 415.699 17.2366 416.269 15.8306C416.865 14.397 417.679 13.1563 418.71 12.1087C419.741 11.0611 420.948 10.2478 422.331 9.66881C423.715 9.06228 425.207 8.75902 426.807 8.75902C428.407 8.75902 429.899 9.06228 431.283 9.66881C432.693 10.2478 433.914 11.0611 434.945 12.1087C435.975 13.1563 436.776 14.397 437.345 15.8306C437.942 17.2366 438.24 18.7529 438.24 20.3795C438.24 22.0061 437.942 23.5224 437.345 24.9285C436.776 26.3345 435.975 27.5613 434.945 28.609C433.914 29.6566 432.707 30.4837 431.323 31.0902C429.94 31.6967 428.434 32 426.807 32ZM426.807 28.7744C427.946 28.7744 429.004 28.5676 429.981 28.1541C430.984 27.713 431.839 27.1202 432.544 26.3758C433.276 25.6039 433.846 24.7079 434.253 23.6878C434.66 22.6678 434.863 21.565 434.863 20.3795C434.863 19.194 434.66 18.0912 434.253 17.0712C433.846 16.0235 433.276 15.1275 432.544 14.3832C431.812 13.6112 430.957 13.0185 429.981 12.6049C429.004 12.1638 427.946 11.9433 426.807 11.9433C425.668 11.9433 424.61 12.1638 423.633 12.6049C422.657 13.0185 421.802 13.6112 421.07 14.3832C420.365 15.1275 419.808 16.0235 419.402 17.0712C418.995 18.0912 418.791 19.194 418.791 20.3795C418.791 21.5926 418.995 22.7091 419.402 23.7292C419.808 24.7493 420.365 25.6315 421.07 26.3758C421.802 27.1202 422.657 27.713 423.633 28.1541C424.61 28.5676 425.668 28.7744 426.807 28.7744Z" fill="#ECF335"/>
<path d="M400 12.1968H402.999V31.4997H400V12.1968Z" fill="#ECF335"/>
<path d="M402.997 12.1965L402.997 9.14873L415.492 9.14872V12.1965L402.997 12.1965Z" fill="#ECF335"/>
<path d="M512.315 3.93308V24.8053C512.315 27.2865 512.844 29.0923 513.902 30.2227C514.96 31.3254 516.506 31.8768 518.541 31.8768C519.463 31.8768 520.29 31.739 521.023 31.4633C521.755 31.1876 522.433 30.8016 523.057 30.3054L521.308 27.6174C520.548 28.3342 519.707 28.6926 518.785 28.6926C517.835 28.6926 517.062 28.3893 516.466 27.7828C515.896 27.1762 515.611 26.1562 515.611 24.7226V12.4515H523.057V9.21479H515.611V3.9331L512.315 3.93308Z" fill="#ECF335"/>
<path d="M510.963 9.20097H507.465V12.6178H510.963V9.20097Z" fill="#ECF335"/>
<path d="M537.937 5.58039H546.09V10.7597H537.937V5.58039Z" fill="#ECF335"/>
<path d="M559.846 5.58037H568V10.7597H559.846V5.58037Z" fill="#ECF335"/>
<path d="M537.936 26.8172H546.09V31.9965H537.936V26.8172Z" fill="#ECF335"/>
<path d="M559.846 26.8172H568V31.9965H559.846V26.8172Z" fill="#ECF335"/>
<path d="M559.843 26.8172H555.257V21.1199L559.843 21.1199V26.8172Z" fill="#ECF335"/>
<path d="M559.843 16.451H555.257V10.7537H559.843V16.451Z" fill="#ECF335"/>
<path d="M550.686 26.8172H546.099V21.1199L550.686 21.1199V26.8172Z" fill="#ECF335"/>
<path d="M550.686 16.451H546.099V10.7537H550.686V16.451Z" fill="#ECF335"/>
<path d="M550.686 16.451H555.272V21.1124H550.686V16.451Z" fill="#ECF335"/>
<mask id="path-2-outside-1_188_7191" maskUnits="userSpaceOnUse" x="0" y="175.239" width="584" height="110" fill="black">
<rect fill="white" y="175.239" width="584" height="110"/>
<path fill-rule="evenodd" clip-rule="evenodd" d="M94.4028 270.468V258.864H82.9163V247.26H71.4307V235.656H94.4028V200.843H82.9163V189.239H14V270.468H36.9721V247.26H48.4586V258.864H59.9442V270.468H94.4028ZM71.4307 224.052H59.9442V235.656H36.9721V200.843H71.4307V224.052Z"/>
<path fill-rule="evenodd" clip-rule="evenodd" d="M189.522 270.468V212.448H178.036V200.843H166.55V189.239H132.092V200.843H120.605V212.448H109.12V270.468H132.092V247.26H166.55V270.468H189.522ZM166.55 235.656H132.092V212.448H143.577V200.843H155.064V212.448H166.55V235.656Z"/>
<path d="M284.642 247.26V258.864H273.156V270.468H227.211V258.864H215.725V247.26H204.239V212.448H215.725V200.843H227.211V189.239H273.156V200.843H284.642V212.448H261.669V200.843H238.697V212.448H227.211V247.26H238.697V258.864H261.669V247.26H284.642Z"/>
<path d="M374.018 200.843V189.239H305.101V200.843H316.052V212.852H328.073V258.864H305.101V270.468H374.018V258.864H362.906V246.855H351.046V200.843H374.018Z"/>
<path d="M474.88 189.239V270.468H451.908V258.864H440.422V247.26H428.936V235.656H417.45V270.468H394.478V189.239H417.45V200.843H428.936V212.448H440.422V224.052H451.908V189.239H474.88Z"/>
<path d="M570 270.468V224.052H535.541V235.656H547.028V258.864H524.056V247.26H512.569V212.448H524.056V200.843H570V189.239H512.569V200.843H501.084V212.448H489.597V247.26H501.084V258.632H512.569V270.468H570Z"/>
</mask>
<path fill-rule="evenodd" clip-rule="evenodd" d="M94.4028 270.468V258.864H82.9163V247.26H71.4307V235.656H94.4028V200.843H82.9163V189.239H14V270.468H36.9721V247.26H48.4586V258.864H59.9442V270.468H94.4028ZM71.4307 224.052H59.9442V235.656H36.9721V200.843H71.4307V224.052Z" fill="#ECF335"/>
<path fill-rule="evenodd" clip-rule="evenodd" d="M189.522 270.468V212.448H178.036V200.843H166.55V189.239H132.092V200.843H120.605V212.448H109.12V270.468H132.092V247.26H166.55V270.468H189.522ZM166.55 235.656H132.092V212.448H143.577V200.843H155.064V212.448H166.55V235.656Z" fill="#ECF335"/>
<path d="M284.642 247.26V258.864H273.156V270.468H227.211V258.864H215.725V247.26H204.239V212.448H215.725V200.843H227.211V189.239H273.156V200.843H284.642V212.448H261.669V200.843H238.697V212.448H227.211V247.26H238.697V258.864H261.669V247.26H284.642Z" fill="#ECF335"/>
<path d="M374.018 200.843V189.239H305.101V200.843H316.052V212.852H328.073V258.864H305.101V270.468H374.018V258.864H362.906V246.855H351.046V200.843H374.018Z" fill="#ECF335"/>
<path d="M474.88 189.239V270.468H451.908V258.864H440.422V247.26H428.936V235.656H417.45V270.468H394.478V189.239H417.45V200.843H428.936V212.448H440.422V224.052H451.908V189.239H474.88Z" fill="#ECF335"/>
<path d="M570 270.468V224.052H535.541V235.656H547.028V258.864H524.056V247.26H512.569V212.448H524.056V200.843H570V189.239H512.569V200.843H501.084V212.448H489.597V247.26H501.084V258.632H512.569V270.468H570Z" fill="#ECF335"/>
<path fill-rule="evenodd" clip-rule="evenodd" d="M94.4028 270.468V258.864H82.9163V247.26H71.4307V235.656H94.4028V200.843H82.9163V189.239H14V270.468H36.9721V247.26H48.4586V258.864H59.9442V270.468H94.4028ZM71.4307 224.052H59.9442V235.656H36.9721V200.843H71.4307V224.052Z" stroke="#101010" stroke-width="28" mask="url(#path-2-outside-1_188_7191)"/>
<path fill-rule="evenodd" clip-rule="evenodd" d="M189.522 270.468V212.448H178.036V200.843H166.55V189.239H132.092V200.843H120.605V212.448H109.12V270.468H132.092V247.26H166.55V270.468H189.522ZM166.55 235.656H132.092V212.448H143.577V200.843H155.064V212.448H166.55V235.656Z" stroke="#101010" stroke-width="28" mask="url(#path-2-outside-1_188_7191)"/>
<path d="M284.642 247.26V258.864H273.156V270.468H227.211V258.864H215.725V247.26H204.239V212.448H215.725V200.843H227.211V189.239H273.156V200.843H284.642V212.448H261.669V200.843H238.697V212.448H227.211V247.26H238.697V258.864H261.669V247.26H284.642Z" stroke="#101010" stroke-width="28" mask="url(#path-2-outside-1_188_7191)"/>
<path d="M374.018 200.843V189.239H305.101V200.843H316.052V212.852H328.073V258.864H305.101V270.468H374.018V258.864H362.906V246.855H351.046V200.843H374.018Z" stroke="#101010" stroke-width="28" mask="url(#path-2-outside-1_188_7191)"/>
<path d="M474.88 189.239V270.468H451.908V258.864H440.422V247.26H428.936V235.656H417.45V270.468H394.478V189.239H417.45V200.843H428.936V212.448H440.422V224.052H451.908V189.239H474.88Z" stroke="#101010" stroke-width="28" mask="url(#path-2-outside-1_188_7191)"/>
<path d="M570 270.468V224.052H535.541V235.656H547.028V258.864H524.056V247.26H512.569V212.448H524.056V200.843H570V189.239H512.569V200.843H501.084V212.448H489.597V247.26H501.084V258.632H512.569V270.468H570Z" stroke="#101010" stroke-width="28" mask="url(#path-2-outside-1_188_7191)"/>
<path d="M308.481 149.634V142.634H301.481H292.849V134.028V127.028H285.849H277.216V125.422H301.481H308.481V118.422V71.6056V64.6056H301.481H292.849V56V49H285.849H192.056H185.056V56V165.239V172.239H192.056H223.32H230.32V165.239V141.028H231.952V149.634V156.634H238.952H247.584V165.239V172.239H254.584H301.481H308.481V165.239V149.634ZM254.584 95.8168H247.584V102.817V111.422H230.32V78.6056H263.216V95.8168H254.584ZM437.934 71.6056V64.6056H430.934H422.302V56V49H415.302H337.142H330.142V56V64.6056H321.509H314.509V71.6056V149.634V156.634H321.509H330.142V165.239V172.239H337.142H415.302H422.302V165.239V156.634H430.934H437.934V149.634V71.6056ZM567.388 134.028V127.028H560.388H551.756V118.422V111.422H544.756H536.124V109.817H544.756H551.756V102.817V94.2112H560.388H567.388V87.2112V56V49H560.388H529.124H522.124V56V64.6056H513.492H506.492V71.6056V80.2112H504.86V71.6056V64.6056H497.86H489.227V56V49H482.227H450.963H443.963V56V87.2112V94.2112H450.963H459.595V102.817V109.817H466.595H475.227V111.422H466.595H459.595V118.422V127.028H450.963H443.963V134.028V165.239V172.239H450.963H482.227H489.227V165.239V156.634H497.86H504.86V149.634V141.028H506.492V149.634V156.634H513.492H522.124V165.239V172.239H529.124H560.388H567.388V165.239V134.028ZM392.67 78.6056V142.634H359.774V78.6056H392.67Z" fill="#ECF335" stroke="#101010" stroke-width="14"/>
<path d="M7 82.7938V88.5876V95.5876V115.381V122.381H14H29.0079V135.175V142.175H36.0079H51.0158V154.969V161.969H58.0158H80.0238H87.0238V154.969V146.167L95.0317 149.904V165.239V172.239H102.032H124.04H131.04V165.239V152.446H139.048V165.239V172.239H146.048H168.055H175.055V165.239V145.446V138.446H168.055H153.048V132.652H168.055H175.055V125.652V105.858V98.8579H168.055H153.048V86.0641V79.0641H146.048H131.04V66.2704V59.2704H124.04H102.032H95.0317V66.2704V75.0728L87.0238 71.3357V56V49H80.0238H58.0158H51.0158V56V68.7938H43.0079V56V49H36.0079H14H7V56V75.7938V82.7938ZM21 88.5876V82.7938H29.0079V88.5876H21ZM73.0238 82.7938V88.5876H65.0158V82.7938H73.0238ZM87.0238 110.923V106.579L95.0317 110.316V114.66L87.0238 110.923ZM109.032 98.8579V93.0642H117.04V98.8579H109.032ZM131.04 112.858H139.048V118.652H131.04V112.858ZM117.04 132.652V138.446H109.032V132.652H117.04ZM65.0158 122.381H73.0238V128.175H65.0158V122.381ZM43.0079 102.588H51.0158V108.381H43.0079V102.588Z" fill="#ECF335" stroke="#101010" stroke-width="14"/>
</svg>
