<svg width="101" height="64" viewBox="0 0 101 64" fill="none" xmlns="http://www.w3.org/2000/svg">
<rect x="-1" y="1" width="26" height="26" transform="matrix(-1 0 0 1 26.5 36)" stroke="#4A4B48" stroke-width="2"/>
<path d="M15.5 43L15.5 45L17.5 45L17.5 43L15.5 43ZM13.5 45V47H15.5L15.5 45L13.5 45ZM11.5 47V49H13.5L13.5 47L11.5 47ZM9.5 49V51H11.5V49H9.5ZM11.5 51V53H13.5L13.5 51H11.5ZM13.5 53V55H15.5L15.5 53L13.5 53ZM15.5 55L15.5 57H17.5L17.5 55H15.5Z" fill="#4A4B48"/>
<rect x="-1" y="1" width="26" height="26" transform="matrix(-1 0 0 1 62.5 36)" stroke="#4A4B48" stroke-width="2"/>
<path d="M44 48L46 48L46 46L44 46L44 48ZM46 50L48 50L48 48L46 48L46 50ZM48 52L50 52L50 50L48 50L48 52ZM50 54L52 54L52 52L50 52L50 54ZM52 52L54 52L54 50L52 50L52 52ZM54 50L56 50L56 48L54 48L54 50ZM56 48L58 48L58 46L56 46L56 48Z" fill="#4A4B48"/>
<rect x="-1" y="1" width="26" height="26" transform="matrix(-1 0 0 1 62.5 0)" stroke="#4A4B48" stroke-width="2"/>
<path d="M58 16L56 16L56 18L58 18L58 16ZM56 14L54 14L54 16L56 16L56 14ZM54 12L52 12L52 14L54 14L54 12ZM52 10L50 10L50 12L52 12L52 10ZM50 12L48 12L48 14L50 14L50 12ZM48 14L46 14L46 16L48 16L48 14ZM46 16L44 16L44 18L46 18L46 16Z" fill="#4A4B48"/>
<rect x="73.5" y="37" width="26" height="26" stroke="#4A4B48" stroke-width="2"/>
<path d="M85.5 43L85.5 45L83.5 45L83.5 43L85.5 43ZM87.5 45V47H85.5L85.5 45L87.5 45ZM89.5 47V49H87.5L87.5 47L89.5 47ZM91.5 49V51H89.5V49H91.5ZM89.5 51V53H87.5L87.5 51H89.5ZM87.5 53V55H85.5L85.5 53L87.5 53ZM85.5 55L85.5 57H83.5L83.5 55H85.5Z" fill="#4A4B48"/>
</svg>
