<svg width="274" height="92" viewBox="0 0 274 92" fill="none" xmlns="http://www.w3.org/2000/svg">
<mask id="path-1-inside-1_22_214" fill="white">
<path fill-rule="evenodd" clip-rule="evenodd" d="M25.3989 0H21.9354V7.66667H14.6236V15.3333H7.3118V30.6667H0V61.3333H7.3118V76.6667H14.6236V84.3333H21.9354V92H25.3989H29.2472H252.065V84.3333H259.376V76.6667H266.688V61.3333H274V30.6667H266.688V15.3333H259.376V7.66667H252.065V0H29.2472H25.3989Z"/>
</mask>
<path fill-rule="evenodd" clip-rule="evenodd" d="M25.3989 0H21.9354V7.66667H14.6236V15.3333H7.3118V30.6667H0V61.3333H7.3118V76.6667H14.6236V84.3333H21.9354V92H25.3989H29.2472H252.065V84.3333H259.376V76.6667H266.688V61.3333H274V30.6667H266.688V15.3333H259.376V7.66667H252.065V0H29.2472H25.3989Z" fill="#1A1A1A"/>
<path d="M21.9354 0V-2H19.9354V0H21.9354ZM21.9354 7.66667V9.66667H23.9354V7.66667H21.9354ZM14.6236 7.66667V5.66667H12.6236V7.66667H14.6236ZM14.6236 15.3333V17.3333H16.6236V15.3333H14.6236ZM7.3118 15.3333V13.3333H5.3118V15.3333H7.3118ZM7.3118 30.6667V32.6667H9.3118V30.6667H7.3118ZM0 30.6667V28.6667H-2V30.6667H0ZM0 61.3333H-2V63.3333H0V61.3333ZM7.3118 61.3333H9.3118V59.3333H7.3118V61.3333ZM7.3118 76.6667H5.3118V78.6667H7.3118V76.6667ZM14.6236 76.6667H16.6236V74.6667H14.6236V76.6667ZM14.6236 84.3333H12.6236V86.3333H14.6236V84.3333ZM21.9354 84.3333H23.9354V82.3333H21.9354V84.3333ZM21.9354 92H19.9354V94H21.9354V92ZM252.065 92V94H254.065V92H252.065ZM252.065 84.3333V82.3333H250.065V84.3333H252.065ZM259.376 84.3333V86.3333H261.376V84.3333H259.376ZM259.376 76.6667V74.6667H257.376V76.6667H259.376ZM266.688 76.6667V78.6667H268.688V76.6667H266.688ZM266.688 61.3333V59.3333H264.688V61.3333H266.688ZM274 61.3333V63.3333H276V61.3333H274ZM274 30.6667H276V28.6667H274V30.6667ZM266.688 30.6667H264.688V32.6667H266.688V30.6667ZM266.688 15.3333H268.688V13.3333H266.688V15.3333ZM259.376 15.3333H257.376V17.3333H259.376V15.3333ZM259.376 7.66667H261.376V5.66667H259.376V7.66667ZM252.065 7.66667H250.065V9.66667H252.065V7.66667ZM252.065 0H254.065V-2H252.065V0ZM21.9354 2H25.3989V-2H21.9354V2ZM23.9354 7.66667V0H19.9354V7.66667H23.9354ZM14.6236 9.66667H21.9354V5.66667H14.6236V9.66667ZM16.6236 15.3333V7.66667H12.6236V15.3333H16.6236ZM7.3118 17.3333H14.6236V13.3333H7.3118V17.3333ZM9.3118 30.6667V15.3333H5.3118V30.6667H9.3118ZM0 32.6667H7.3118V28.6667H0V32.6667ZM2 61.3333V30.6667H-2V61.3333H2ZM7.3118 59.3333H0V63.3333H7.3118V59.3333ZM9.3118 76.6667V61.3333H5.3118V76.6667H9.3118ZM14.6236 74.6667H7.3118V78.6667H14.6236V74.6667ZM16.6236 84.3333V76.6667H12.6236V84.3333H16.6236ZM21.9354 82.3333H14.6236V86.3333H21.9354V82.3333ZM23.9354 92V84.3333H19.9354V92H23.9354ZM25.3989 90H21.9354V94H25.3989V90ZM25.3989 94H29.2472V90H25.3989V94ZM29.2472 94H252.065V90H29.2472V94ZM254.065 92V84.3333H250.065V92H254.065ZM252.065 86.3333H259.376V82.3333H252.065V86.3333ZM261.376 84.3333V76.6667H257.376V84.3333H261.376ZM259.376 78.6667H266.688V74.6667H259.376V78.6667ZM268.688 76.6667V61.3333H264.688V76.6667H268.688ZM266.688 63.3333H274V59.3333H266.688V63.3333ZM276 61.3333V30.6667H272V61.3333H276ZM274 28.6667H266.688V32.6667H274V28.6667ZM268.688 30.6667V15.3333H264.688V30.6667H268.688ZM266.688 13.3333H259.376V17.3333H266.688V13.3333ZM261.376 15.3333V7.66667H257.376V15.3333H261.376ZM259.376 5.66667H252.065V9.66667H259.376V5.66667ZM254.065 7.66667V0H250.065V7.66667H254.065ZM252.065 -2H29.2472V2H252.065V-2ZM29.2472 -2H25.3989V2H29.2472V-2Z" fill="#DCE0D2" mask="url(#path-1-inside-1_22_214)"/>
<path d="M129.615 14H134.538V18.9231H129.615V14Z" fill="#00C700"/>
<path d="M134.538 14H139.462V18.9231H134.538V14Z" fill="#00C700"/>
<path d="M139.462 14H144.385V18.9231H139.462V14Z" fill="#00C700"/>
<path d="M119.769 18.9231H124.692V23.8462H119.769V18.9231Z" fill="#00C700"/>
<path d="M124.692 18.9231H129.615V23.8462H124.692V18.9231Z" fill="#00C700"/>
<path d="M129.615 18.9231H134.538V23.8462H129.615V18.9231Z" fill="#00C700"/>
<path d="M139.462 18.9231H144.385V23.8462H139.462V18.9231Z" fill="#00C700"/>
<path d="M134.538 18.9231H139.462V23.8462H134.538V18.9231Z" fill="#00C700"/>
<path d="M144.385 18.9231H149.308V23.8462H144.385V18.9231Z" fill="#00C700"/>
<path d="M149.308 18.9231H154.231V23.8462H149.308V18.9231Z" fill="#00C700"/>
<path d="M114.846 23.8462H119.769V28.7692H114.846V23.8462Z" fill="#00C700"/>
<path d="M119.769 23.8462H124.692V28.7692H119.769V23.8462Z" fill="#00C700"/>
<path d="M124.692 23.8462H129.615V28.7692H124.692V23.8462Z" fill="#00C700"/>
<path d="M134.538 23.8462H139.462V28.7692H134.538V23.8462Z" fill="#00C700"/>
<path d="M129.615 23.8462H134.538V28.7692H129.615V23.8462Z" fill="#00C700"/>
<path d="M139.462 23.8462H144.385V28.7692H139.462V23.8462Z" fill="#00C700"/>
<path d="M144.385 23.8462H149.308V28.7692H144.385V23.8462Z" fill="#00C700"/>
<path d="M149.308 23.8462H154.231V28.7692H149.308V23.8462Z" fill="#00C700"/>
<path d="M154.231 23.8462H159.154V28.7692H154.231V23.8462Z" fill="#00C700"/>
<path d="M109.923 28.7692H114.846V33.6923H109.923V28.7692Z" fill="#00C700"/>
<path d="M114.846 28.7692H119.769V33.6923H114.846V28.7692Z" fill="#00C700"/>
<path d="M119.769 28.7692H124.692V33.6923H119.769V28.7692Z" fill="#00C700"/>
<path d="M129.615 28.7692H134.538V33.6923H129.615V28.7692Z" fill="#00C700"/>
<path d="M124.692 28.7692H129.615V33.6923H124.692V28.7692Z" fill="#00C700"/>
<path d="M134.538 28.7692H139.462V33.6923H134.538V28.7692Z" fill="#00C700"/>
<path d="M139.462 28.7692H144.385V33.6923H139.462V28.7692Z" fill="#00C700"/>
<path d="M144.385 28.7692H149.308V33.6923H144.385V28.7692Z" fill="#00C700"/>
<path d="M149.308 28.7692H154.231V33.6923H149.308V28.7692Z" fill="#00C700"/>
<path d="M154.231 28.7692H159.154V33.6923H154.231V28.7692Z" fill="#00C700"/>
<path d="M159.154 28.7692H164.077V33.6923H159.154V28.7692Z" fill="#00C700"/>
<path d="M109.923 33.6923H114.846V38.6154H109.923V33.6923Z" fill="#00C700"/>
<path d="M114.846 33.6923H119.769V38.6154H114.846V33.6923Z" fill="#00C700"/>
<path d="M119.769 33.6923H124.692V38.6154H119.769V33.6923Z" fill="#00C700"/>
<path d="M129.615 33.6923H134.538V38.6154H129.615V33.6923Z" fill="#00C700"/>
<path d="M124.692 33.6923H129.615V38.6154H124.692V33.6923Z" fill="#00C700"/>
<path d="M134.538 33.6923H139.462V38.6154H134.538V33.6923Z" fill="#00C700"/>
<path d="M139.462 33.6923H144.385V38.6154H139.462V33.6923Z" fill="#00C700"/>
<path d="M144.385 33.6923H149.308V38.6154H144.385V33.6923Z" fill="#00C700"/>
<path d="M149.308 33.6923H154.231V38.6154H149.308V33.6923Z" fill="#00C700"/>
<path d="M154.231 33.6923H159.154V38.6154H154.231V33.6923Z" fill="#00C700"/>
<path d="M159.154 33.6923H164.077V38.6154H159.154V33.6923Z" fill="#00C700"/>
<path d="M105 38.6154H109.923V43.5385H105V38.6154Z" fill="#00C700"/>
<path d="M109.923 38.6154H114.846V43.5385H109.923V38.6154Z" fill="#00C700"/>
<path d="M114.846 38.6154H119.769V43.5385H114.846V38.6154Z" fill="#00C700"/>
<path d="M124.692 38.6154H129.615V43.5385H124.692V38.6154Z" fill="#00C700"/>
<path d="M119.769 38.6154H124.692V43.5385H119.769V38.6154Z" fill="#00C700"/>
<path d="M129.615 38.6154H134.538V43.5385H129.615V38.6154Z" fill="#00C700"/>
<path d="M134.538 38.6154H139.462V43.5385H134.538V38.6154Z" fill="#00C700"/>
<path d="M139.462 38.6154H144.385V43.5385H139.462V38.6154Z" fill="#00C700"/>
<path d="M144.385 38.6154H149.308V43.5385H144.385V38.6154Z" fill="#00C700"/>
<path d="M149.308 38.6154H154.231V43.5385H149.308V38.6154Z" fill="#00C700"/>
<path d="M154.231 38.6154H159.154V43.5385H154.231V38.6154Z" fill="#00C700"/>
<path d="M159.154 38.6154H164.077V43.5385H159.154V38.6154Z" fill="#00C700"/>
<path d="M164.077 38.6154H169V43.5385H164.077V38.6154Z" fill="#00C700"/>
<path d="M105 43.5385H109.923V48.4615H105V43.5385Z" fill="#00C700"/>
<path d="M109.923 43.5385H114.846V48.4615H109.923V43.5385Z" fill="#00C700"/>
<path d="M114.846 43.5385H119.769V48.4615H114.846V43.5385Z" fill="#00C700"/>
<path d="M124.692 43.5385H129.615V48.4615H124.692V43.5385Z" fill="#00C700"/>
<path d="M119.769 43.5385H124.692V48.4615H119.769V43.5385Z" fill="#00C700"/>
<path d="M129.615 43.5385H134.538V48.4615H129.615V43.5385Z" fill="#00C700"/>
<path d="M134.538 43.5385H139.462V48.4615H134.538V43.5385Z" fill="#00C700"/>
<path d="M139.462 43.5385H144.385V48.4615H139.462V43.5385Z" fill="#00C700"/>
<path d="M144.385 43.5385H149.308V48.4615H144.385V43.5385Z" fill="#00C700"/>
<path d="M149.308 43.5385H154.231V48.4615H149.308V43.5385Z" fill="#00C700"/>
<path d="M154.231 43.5385H159.154V48.4615H154.231V43.5385Z" fill="#00C700"/>
<path d="M159.154 43.5385H164.077V48.4615H159.154V43.5385Z" fill="#00C700"/>
<path d="M164.077 43.5385H169V48.4615H164.077V43.5385Z" fill="#00C700"/>
<path d="M129.615 78H134.538V73.0769H129.615V78Z" fill="#00C700"/>
<path d="M134.538 78H139.462V73.0769H134.538V78Z" fill="#00C700"/>
<path d="M139.462 78H144.385V73.0769H139.462V78Z" fill="#00C700"/>
<path d="M119.769 73.0769H124.692V68.1538H119.769V73.0769Z" fill="#00C700"/>
<path d="M124.692 73.0769H129.615V68.1538H124.692V73.0769Z" fill="#00C700"/>
<path d="M129.615 73.0769H134.538V68.1538H129.615V73.0769Z" fill="#00C700"/>
<path d="M139.462 73.0769H144.385V68.1538H139.462V73.0769Z" fill="#00C700"/>
<path d="M134.538 73.0769H139.462V68.1538H134.538V73.0769Z" fill="#00C700"/>
<path d="M144.385 73.0769H149.308V68.1538H144.385V73.0769Z" fill="#00C700"/>
<path d="M149.308 73.0769H154.231V68.1538H149.308V73.0769Z" fill="#00C700"/>
<path d="M114.846 68.1538H119.769V63.2308H114.846V68.1538Z" fill="#00C700"/>
<path d="M119.769 68.1538H124.692V63.2308H119.769V68.1538Z" fill="#00C700"/>
<path d="M124.692 68.1538H129.615V63.2308H124.692V68.1538Z" fill="#00C700"/>
<path d="M134.538 68.1538H139.462V63.2308H134.538V68.1538Z" fill="#00C700"/>
<path d="M129.615 68.1538H134.538V63.2308H129.615V68.1538Z" fill="#00C700"/>
<path d="M139.462 68.1538H144.385V63.2308H139.462V68.1538Z" fill="#00C700"/>
<path d="M144.385 68.1538H149.308V63.2308H144.385V68.1538Z" fill="#00C700"/>
<path d="M149.308 68.1538H154.231V63.2308H149.308V68.1538Z" fill="#00C700"/>
<path d="M154.231 68.1538H159.154V63.2308H154.231V68.1538Z" fill="#00C700"/>
<path d="M109.923 63.2308H114.846V58.3077H109.923V63.2308Z" fill="#00C700"/>
<path d="M114.846 63.2308H119.769V58.3077H114.846V63.2308Z" fill="#00C700"/>
<path d="M119.769 63.2308H124.692V58.3077H119.769V63.2308Z" fill="#00C700"/>
<path d="M129.615 63.2308H134.538V58.3077H129.615V63.2308Z" fill="#00C700"/>
<path d="M124.692 63.2308H129.615V58.3077H124.692V63.2308Z" fill="#00C700"/>
<path d="M134.538 63.2308H139.462V58.3077H134.538V63.2308Z" fill="#00C700"/>
<path d="M139.462 63.2308H144.385V58.3077H139.462V63.2308Z" fill="#00C700"/>
<path d="M144.385 63.2308H149.308V58.3077H144.385V63.2308Z" fill="#00C700"/>
<path d="M149.308 63.2308H154.231V58.3077H149.308V63.2308Z" fill="#00C700"/>
<path d="M154.231 63.2308H159.154V58.3077H154.231V63.2308Z" fill="#00C700"/>
<path d="M159.154 63.2308H164.077V58.3077H159.154V63.2308Z" fill="#00C700"/>
<path d="M109.923 58.3077H114.846V53.3846H109.923V58.3077Z" fill="#00C700"/>
<path d="M114.846 58.3077H119.769V53.3846H114.846V58.3077Z" fill="#00C700"/>
<path d="M119.769 58.3077H124.692V53.3846H119.769V58.3077Z" fill="#00C700"/>
<path d="M129.615 58.3077H134.538V53.3846H129.615V58.3077Z" fill="#00C700"/>
<path d="M124.692 58.3077H129.615V53.3846H124.692V58.3077Z" fill="#00C700"/>
<path d="M134.538 58.3077H139.462V53.3846H134.538V58.3077Z" fill="#00C700"/>
<path d="M139.462 58.3077H144.385V53.3846H139.462V58.3077Z" fill="#00C700"/>
<path d="M144.385 58.3077H149.308V53.3846H144.385V58.3077Z" fill="#00C700"/>
<path d="M149.308 58.3077H154.231V53.3846H149.308V58.3077Z" fill="#00C700"/>
<path d="M154.231 58.3077H159.154V53.3846H154.231V58.3077Z" fill="#00C700"/>
<path d="M159.154 58.3077H164.077V53.3846H159.154V58.3077Z" fill="#00C700"/>
<path d="M105 53.3846H109.923V48.4615H105V53.3846Z" fill="#00C700"/>
<path d="M109.923 53.3846H114.846V48.4615H109.923V53.3846Z" fill="#00C700"/>
<path d="M114.846 53.3846H119.769V48.4615H114.846V53.3846Z" fill="#00C700"/>
<path d="M124.692 53.3846H129.615V48.4615H124.692V53.3846Z" fill="#00C700"/>
<path d="M119.769 53.3846H124.692V48.4615H119.769V53.3846Z" fill="#00C700"/>
<path d="M129.615 53.3846H134.538V48.4615H129.615V53.3846Z" fill="#00C700"/>
<path d="M134.538 53.3846H139.462V48.4615H134.538V53.3846Z" fill="#00C700"/>
<path d="M139.462 53.3846H144.385V48.4615H139.462V53.3846Z" fill="#00C700"/>
<path d="M144.385 53.3846H149.308V48.4615H144.385V53.3846Z" fill="#00C700"/>
<path d="M149.308 53.3846H154.231V48.4615H149.308V53.3846Z" fill="#00C700"/>
<path d="M154.231 53.3846H159.154V48.4615H154.231V53.3846Z" fill="#00C700"/>
<path d="M159.154 53.3846H164.077V48.4615H159.154V53.3846Z" fill="#00C700"/>
<path d="M164.077 53.3846H169V48.4615H164.077V53.3846Z" fill="#00C700"/>
<path d="M105 48.4615H109.923V43.5385H105V48.4615Z" fill="#00C700"/>
<path d="M109.923 48.4615H114.846V43.5385H109.923V48.4615Z" fill="#00C700"/>
<path d="M114.846 48.4615H119.769V43.5385H114.846V48.4615Z" fill="#00C700"/>
<path d="M124.692 48.4615H129.615V43.5385H124.692V48.4615Z" fill="#00C700"/>
<path d="M119.769 48.4615H124.692V43.5385H119.769V48.4615Z" fill="#00C700"/>
<path d="M129.615 48.4615H134.538V43.5385H129.615V48.4615Z" fill="#00C700"/>
<path d="M134.538 48.4615H139.462V43.5385H134.538V48.4615Z" fill="#00C700"/>
<path d="M139.462 48.4615H144.385V43.5385H139.462V48.4615Z" fill="#00C700"/>
<path d="M144.385 48.4615H149.308V43.5385H144.385V48.4615Z" fill="#00C700"/>
<path d="M149.308 48.4615H154.231V43.5385H149.308V48.4615Z" fill="#00C700"/>
<path d="M154.231 48.4615H159.154V43.5385H154.231V48.4615Z" fill="#00C700"/>
<path d="M159.154 48.4615H164.077V43.5385H159.154V48.4615Z" fill="#00C700"/>
<path d="M164.077 48.4615H169V43.5385H164.077V48.4615Z" fill="#00C700"/>
<path d="M49.6154 14H54.5385V18.9231H49.6154V14Z" fill="#00C700"/>
<path d="M54.5385 14H59.4615V18.9231H54.5385V14Z" fill="#00C700"/>
<path d="M59.4615 14H64.3846V18.9231H59.4615V14Z" fill="#00C700"/>
<path d="M39.7692 18.9231H44.6923V23.8462H39.7692V18.9231Z" fill="#00C700"/>
<path d="M44.6923 18.9231H49.6154V23.8462H44.6923V18.9231Z" fill="#00C700"/>
<path d="M49.6154 18.9231H54.5385V23.8462H49.6154V18.9231Z" fill="#00C700"/>
<path d="M59.4615 18.9231H64.3846V23.8462H59.4615V18.9231Z" fill="#00C700"/>
<path d="M54.5385 18.9231H59.4615V23.8462H54.5385V18.9231Z" fill="#00C700"/>
<path d="M64.3846 18.9231H69.3077V23.8462H64.3846V18.9231Z" fill="#00C700"/>
<path d="M69.3077 18.9231H74.2308V23.8462H69.3077V18.9231Z" fill="#00C700"/>
<path d="M34.8462 23.8462H39.7692V28.7692H34.8462V23.8462Z" fill="#00C700"/>
<path d="M39.7692 23.8462H44.6923V28.7692H39.7692V23.8462Z" fill="#00C700"/>
<path d="M44.6923 23.8462H49.6154V28.7692H44.6923V23.8462Z" fill="#00C700"/>
<path d="M54.5385 23.8462H59.4615V28.7692H54.5385V23.8462Z" fill="#00C700"/>
<path d="M49.6154 23.8462H54.5385V28.7692H49.6154V23.8462Z" fill="#00C700"/>
<path d="M59.4615 23.8462H64.3846V28.7692H59.4615V23.8462Z" fill="#00C700"/>
<path d="M64.3846 23.8462H69.3077V28.7692H64.3846V23.8462Z" fill="#00C700"/>
<path d="M69.3077 23.8462H74.2308V28.7692H69.3077V23.8462Z" fill="#00C700"/>
<path d="M74.2308 23.8462H79.1538V28.7692H74.2308V23.8462Z" fill="#00C700"/>
<path d="M29.9231 28.7692H34.8462V33.6923H29.9231V28.7692Z" fill="#00C700"/>
<path d="M34.8462 28.7692H39.7692V33.6923H34.8462V28.7692Z" fill="#00C700"/>
<path d="M39.7692 28.7692H44.6923V33.6923H39.7692V28.7692Z" fill="#00C700"/>
<path d="M49.6154 28.7692H54.5385V33.6923H49.6154V28.7692Z" fill="#00C700"/>
<path d="M44.6923 28.7692H49.6154V33.6923H44.6923V28.7692Z" fill="#00C700"/>
<path d="M54.5385 28.7692H59.4615V33.6923H54.5385V28.7692Z" fill="#00C700"/>
<path d="M59.4615 28.7692H64.3846V33.6923H59.4615V28.7692Z" fill="#00C700"/>
<path d="M64.3846 28.7692H69.3077V33.6923H64.3846V28.7692Z" fill="#00C700"/>
<path d="M69.3077 28.7692H74.2308V33.6923H69.3077V28.7692Z" fill="#00C700"/>
<path d="M74.2308 28.7692H79.1538V33.6923H74.2308V28.7692Z" fill="#00C700"/>
<path d="M79.1538 28.7692H84.0769V33.6923H79.1538V28.7692Z" fill="#00C700"/>
<path d="M29.9231 33.6923H34.8462V38.6154H29.9231V33.6923Z" fill="#00C700"/>
<path d="M34.8462 33.6923H39.7692V38.6154H34.8462V33.6923Z" fill="#00C700"/>
<path d="M39.7692 33.6923H44.6923V38.6154H39.7692V33.6923Z" fill="#00C700"/>
<path d="M49.6154 33.6923H54.5385V38.6154H49.6154V33.6923Z" fill="#00C700"/>
<path d="M44.6923 33.6923H49.6154V38.6154H44.6923V33.6923Z" fill="#00C700"/>
<path d="M54.5385 33.6923H59.4615V38.6154H54.5385V33.6923Z" fill="#00C700"/>
<path d="M59.4615 33.6923H64.3846V38.6154H59.4615V33.6923Z" fill="#00C700"/>
<path d="M64.3846 33.6923H69.3077V38.6154H64.3846V33.6923Z" fill="#00C700"/>
<path d="M69.3077 33.6923H74.2308V38.6154H69.3077V33.6923Z" fill="#00C700"/>
<path d="M74.2308 33.6923H79.1538V38.6154H74.2308V33.6923Z" fill="#00C700"/>
<path d="M79.1538 33.6923H84.0769V38.6154H79.1538V33.6923Z" fill="#00C700"/>
<path d="M25 38.6154H29.9231V43.5385H25V38.6154Z" fill="#00C700"/>
<path d="M29.9231 38.6154H34.8462V43.5385H29.9231V38.6154Z" fill="#00C700"/>
<path d="M34.8462 38.6154H39.7692V43.5385H34.8462V38.6154Z" fill="#00C700"/>
<path d="M44.6923 38.6154H49.6154V43.5385H44.6923V38.6154Z" fill="#00C700"/>
<path d="M39.7692 38.6154H44.6923V43.5385H39.7692V38.6154Z" fill="#00C700"/>
<path d="M49.6154 38.6154H54.5385V43.5385H49.6154V38.6154Z" fill="#00C700"/>
<path d="M54.5385 38.6154H59.4615V43.5385H54.5385V38.6154Z" fill="#00C700"/>
<path d="M59.4615 38.6154H64.3846V43.5385H59.4615V38.6154Z" fill="#00C700"/>
<path d="M64.3846 38.6154H69.3077V43.5385H64.3846V38.6154Z" fill="#00C700"/>
<path d="M69.3077 38.6154H74.2308V43.5385H69.3077V38.6154Z" fill="#00C700"/>
<path d="M74.2308 38.6154H79.1538V43.5385H74.2308V38.6154Z" fill="#00C700"/>
<path d="M79.1538 38.6154H84.0769V43.5385H79.1538V38.6154Z" fill="#00C700"/>
<path d="M84.0769 38.6154H89V43.5385H84.0769V38.6154Z" fill="#00C700"/>
<path d="M25 43.5385H29.9231V48.4615H25V43.5385Z" fill="#00C700"/>
<path d="M29.9231 43.5385H34.8462V48.4615H29.9231V43.5385Z" fill="#00C700"/>
<path d="M34.8462 43.5385H39.7692V48.4615H34.8462V43.5385Z" fill="#00C700"/>
<path d="M44.6923 43.5385H49.6154V48.4615H44.6923V43.5385Z" fill="#00C700"/>
<path d="M39.7692 43.5385H44.6923V48.4615H39.7692V43.5385Z" fill="#00C700"/>
<path d="M49.6154 43.5385H54.5385V48.4615H49.6154V43.5385Z" fill="#00C700"/>
<path d="M54.5385 43.5385H59.4615V48.4615H54.5385V43.5385Z" fill="#00C700"/>
<path d="M59.4615 43.5385H64.3846V48.4615H59.4615V43.5385Z" fill="#00C700"/>
<path d="M64.3846 43.5385H69.3077V48.4615H64.3846V43.5385Z" fill="#00C700"/>
<path d="M69.3077 43.5385H74.2308V48.4615H69.3077V43.5385Z" fill="#00C700"/>
<path d="M74.2308 43.5385H79.1538V48.4615H74.2308V43.5385Z" fill="#00C700"/>
<path d="M79.1538 43.5385H84.0769V48.4615H79.1538V43.5385Z" fill="#00C700"/>
<path d="M84.0769 43.5385H89V48.4615H84.0769V43.5385Z" fill="#00C700"/>
<path d="M49.6154 78H54.5385V73.0769H49.6154V78Z" fill="#00C700"/>
<path d="M54.5385 78H59.4615V73.0769H54.5385V78Z" fill="#00C700"/>
<path d="M59.4615 78H64.3846V73.0769H59.4615V78Z" fill="#00C700"/>
<path d="M39.7692 73.0769H44.6923V68.1538H39.7692V73.0769Z" fill="#00C700"/>
<path d="M44.6923 73.0769H49.6154V68.1538H44.6923V73.0769Z" fill="#00C700"/>
<path d="M49.6154 73.0769H54.5385V68.1538H49.6154V73.0769Z" fill="#00C700"/>
<path d="M59.4615 73.0769H64.3846V68.1538H59.4615V73.0769Z" fill="#00C700"/>
<path d="M54.5385 73.0769H59.4615V68.1538H54.5385V73.0769Z" fill="#00C700"/>
<path d="M64.3846 73.0769H69.3077V68.1538H64.3846V73.0769Z" fill="#00C700"/>
<path d="M69.3077 73.0769H74.2308V68.1538H69.3077V73.0769Z" fill="#00C700"/>
<path d="M34.8462 68.1538H39.7692V63.2308H34.8462V68.1538Z" fill="#00C700"/>
<path d="M39.7692 68.1538H44.6923V63.2308H39.7692V68.1538Z" fill="#00C700"/>
<path d="M44.6923 68.1538H49.6154V63.2308H44.6923V68.1538Z" fill="#00C700"/>
<path d="M54.5385 68.1538H59.4615V63.2308H54.5385V68.1538Z" fill="#00C700"/>
<path d="M49.6154 68.1538H54.5385V63.2308H49.6154V68.1538Z" fill="#00C700"/>
<path d="M59.4615 68.1538H64.3846V63.2308H59.4615V68.1538Z" fill="#00C700"/>
<path d="M64.3846 68.1538H69.3077V63.2308H64.3846V68.1538Z" fill="#00C700"/>
<path d="M69.3077 68.1538H74.2308V63.2308H69.3077V68.1538Z" fill="#00C700"/>
<path d="M74.2308 68.1538H79.1538V63.2308H74.2308V68.1538Z" fill="#00C700"/>
<path d="M29.9231 63.2308H34.8462V58.3077H29.9231V63.2308Z" fill="#00C700"/>
<path d="M34.8462 63.2308H39.7692V58.3077H34.8462V63.2308Z" fill="#00C700"/>
<path d="M39.7692 63.2308H44.6923V58.3077H39.7692V63.2308Z" fill="#00C700"/>
<path d="M49.6154 63.2308H54.5385V58.3077H49.6154V63.2308Z" fill="#00C700"/>
<path d="M44.6923 63.2308H49.6154V58.3077H44.6923V63.2308Z" fill="#00C700"/>
<path d="M54.5385 63.2308H59.4615V58.3077H54.5385V63.2308Z" fill="#00C700"/>
<path d="M59.4615 63.2308H64.3846V58.3077H59.4615V63.2308Z" fill="#00C700"/>
<path d="M64.3846 63.2308H69.3077V58.3077H64.3846V63.2308Z" fill="#00C700"/>
<path d="M69.3077 63.2308H74.2308V58.3077H69.3077V63.2308Z" fill="#00C700"/>
<path d="M74.2308 63.2308H79.1538V58.3077H74.2308V63.2308Z" fill="#00C700"/>
<path d="M79.1538 63.2308H84.0769V58.3077H79.1538V63.2308Z" fill="#00C700"/>
<path d="M29.9231 58.3077H34.8462V53.3846H29.9231V58.3077Z" fill="#00C700"/>
<path d="M34.8462 58.3077H39.7692V53.3846H34.8462V58.3077Z" fill="#00C700"/>
<path d="M39.7692 58.3077H44.6923V53.3846H39.7692V58.3077Z" fill="#00C700"/>
<path d="M49.6154 58.3077H54.5385V53.3846H49.6154V58.3077Z" fill="#00C700"/>
<path d="M44.6923 58.3077H49.6154V53.3846H44.6923V58.3077Z" fill="#00C700"/>
<path d="M54.5385 58.3077H59.4615V53.3846H54.5385V58.3077Z" fill="#00C700"/>
<path d="M59.4615 58.3077H64.3846V53.3846H59.4615V58.3077Z" fill="#00C700"/>
<path d="M64.3846 58.3077H69.3077V53.3846H64.3846V58.3077Z" fill="#00C700"/>
<path d="M69.3077 58.3077H74.2308V53.3846H69.3077V58.3077Z" fill="#00C700"/>
<path d="M74.2308 58.3077H79.1538V53.3846H74.2308V58.3077Z" fill="#00C700"/>
<path d="M79.1538 58.3077H84.0769V53.3846H79.1538V58.3077Z" fill="#00C700"/>
<path d="M25 53.3846H29.9231V48.4615H25V53.3846Z" fill="#00C700"/>
<path d="M29.9231 53.3846H34.8462V48.4615H29.9231V53.3846Z" fill="#00C700"/>
<path d="M34.8462 53.3846H39.7692V48.4615H34.8462V53.3846Z" fill="#00C700"/>
<path d="M44.6923 53.3846H49.6154V48.4615H44.6923V53.3846Z" fill="#00C700"/>
<path d="M39.7692 53.3846H44.6923V48.4615H39.7692V53.3846Z" fill="#00C700"/>
<path d="M49.6154 53.3846H54.5385V48.4615H49.6154V53.3846Z" fill="#00C700"/>
<path d="M54.5385 53.3846H59.4615V48.4615H54.5385V53.3846Z" fill="#00C700"/>
<path d="M59.4615 53.3846H64.3846V48.4615H59.4615V53.3846Z" fill="#00C700"/>
<path d="M64.3846 53.3846H69.3077V48.4615H64.3846V53.3846Z" fill="#00C700"/>
<path d="M69.3077 53.3846H74.2308V48.4615H69.3077V53.3846Z" fill="#00C700"/>
<path d="M74.2308 53.3846H79.1538V48.4615H74.2308V53.3846Z" fill="#00C700"/>
<path d="M79.1538 53.3846H84.0769V48.4615H79.1538V53.3846Z" fill="#00C700"/>
<path d="M84.0769 53.3846H89V48.4615H84.0769V53.3846Z" fill="#00C700"/>
<path d="M25 48.4615H29.9231V43.5385H25V48.4615Z" fill="#00C700"/>
<path d="M29.9231 48.4615H34.8462V43.5385H29.9231V48.4615Z" fill="#00C700"/>
<path d="M34.8462 48.4615H39.7692V43.5385H34.8462V48.4615Z" fill="#00C700"/>
<path d="M44.6923 48.4615H49.6154V43.5385H44.6923V48.4615Z" fill="#00C700"/>
<path d="M39.7692 48.4615H44.6923V43.5385H39.7692V48.4615Z" fill="#00C700"/>
<path d="M49.6154 48.4615H54.5385V43.5385H49.6154V48.4615Z" fill="#00C700"/>
<path d="M54.5385 48.4615H59.4615V43.5385H54.5385V48.4615Z" fill="#00C700"/>
<path d="M59.4615 48.4615H64.3846V43.5385H59.4615V48.4615Z" fill="#00C700"/>
<path d="M64.3846 48.4615H69.3077V43.5385H64.3846V48.4615Z" fill="#00C700"/>
<path d="M69.3077 48.4615H74.2308V43.5385H69.3077V48.4615Z" fill="#00C700"/>
<path d="M74.2308 48.4615H79.1538V43.5385H74.2308V48.4615Z" fill="#00C700"/>
<path d="M79.1538 48.4615H84.0769V43.5385H79.1538V48.4615Z" fill="#00C700"/>
<path d="M84.0769 48.4615H89V43.5385H84.0769V48.4615Z" fill="#00C700"/>
<path d="M209.615 14H214.538V18.9231H209.615V14Z" fill="#00C700"/>
<path d="M214.538 14H219.462V18.9231H214.538V14Z" fill="#00C700"/>
<path d="M219.462 14H224.385V18.9231H219.462V14Z" fill="#00C700"/>
<path d="M199.769 18.9231H204.692V23.8462H199.769V18.9231Z" fill="#00C700"/>
<path d="M204.692 18.9231H209.615V23.8462H204.692V18.9231Z" fill="#00C700"/>
<path d="M209.615 18.9231H214.538V23.8462H209.615V18.9231Z" fill="#00C700"/>
<path d="M219.462 18.9231H224.385V23.8462H219.462V18.9231Z" fill="#00C700"/>
<path d="M214.538 18.9231H219.462V23.8462H214.538V18.9231Z" fill="#00C700"/>
<path d="M224.385 18.9231H229.308V23.8462H224.385V18.9231Z" fill="#00C700"/>
<path d="M229.308 18.9231H234.231V23.8462H229.308V18.9231Z" fill="#00C700"/>
<path d="M194.846 23.8462H199.769V28.7692H194.846V23.8462Z" fill="#00C700"/>
<path d="M199.769 23.8462H204.692V28.7692H199.769V23.8462Z" fill="#00C700"/>
<path d="M204.692 23.8462H209.615V28.7692H204.692V23.8462Z" fill="#00C700"/>
<path d="M214.538 23.8462H219.462V28.7692H214.538V23.8462Z" fill="#00C700"/>
<path d="M209.615 23.8462H214.538V28.7692H209.615V23.8462Z" fill="#00C700"/>
<path d="M219.462 23.8462H224.385V28.7692H219.462V23.8462Z" fill="#00C700"/>
<path d="M224.385 23.8462H229.308V28.7692H224.385V23.8462Z" fill="#00C700"/>
<path d="M229.308 23.8462H234.231V28.7692H229.308V23.8462Z" fill="#00C700"/>
<path d="M234.231 23.8462H239.154V28.7692H234.231V23.8462Z" fill="#00C700"/>
<path d="M189.923 28.7692H194.846V33.6923H189.923V28.7692Z" fill="#00C700"/>
<path d="M194.846 28.7692H199.769V33.6923H194.846V28.7692Z" fill="#00C700"/>
<path d="M199.769 28.7692H204.692V33.6923H199.769V28.7692Z" fill="#00C700"/>
<path d="M209.615 28.7692H214.538V33.6923H209.615V28.7692Z" fill="#00C700"/>
<path d="M204.692 28.7692H209.615V33.6923H204.692V28.7692Z" fill="#00C700"/>
<path d="M214.538 28.7692H219.462V33.6923H214.538V28.7692Z" fill="#00C700"/>
<path d="M219.462 28.7692H224.385V33.6923H219.462V28.7692Z" fill="#00C700"/>
<path d="M224.385 28.7692H229.308V33.6923H224.385V28.7692Z" fill="#00C700"/>
<path d="M229.308 28.7692H234.231V33.6923H229.308V28.7692Z" fill="#00C700"/>
<path d="M234.231 28.7692H239.154V33.6923H234.231V28.7692Z" fill="#00C700"/>
<path d="M239.154 28.7692H244.077V33.6923H239.154V28.7692Z" fill="#00C700"/>
<path d="M189.923 33.6923H194.846V38.6154H189.923V33.6923Z" fill="#00C700"/>
<path d="M194.846 33.6923H199.769V38.6154H194.846V33.6923Z" fill="#00C700"/>
<path d="M199.769 33.6923H204.692V38.6154H199.769V33.6923Z" fill="#00C700"/>
<path d="M209.615 33.6923H214.538V38.6154H209.615V33.6923Z" fill="#00C700"/>
<path d="M204.692 33.6923H209.615V38.6154H204.692V33.6923Z" fill="#00C700"/>
<path d="M214.538 33.6923H219.462V38.6154H214.538V33.6923Z" fill="#00C700"/>
<path d="M219.462 33.6923H224.385V38.6154H219.462V33.6923Z" fill="#00C700"/>
<path d="M224.385 33.6923H229.308V38.6154H224.385V33.6923Z" fill="#00C700"/>
<path d="M229.308 33.6923H234.231V38.6154H229.308V33.6923Z" fill="#00C700"/>
<path d="M234.231 33.6923H239.154V38.6154H234.231V33.6923Z" fill="#00C700"/>
<path d="M239.154 33.6923H244.077V38.6154H239.154V33.6923Z" fill="#00C700"/>
<path d="M185 38.6154H189.923V43.5385H185V38.6154Z" fill="#00C700"/>
<path d="M189.923 38.6154H194.846V43.5385H189.923V38.6154Z" fill="#00C700"/>
<path d="M194.846 38.6154H199.769V43.5385H194.846V38.6154Z" fill="#00C700"/>
<path d="M204.692 38.6154H209.615V43.5385H204.692V38.6154Z" fill="#00C700"/>
<path d="M199.769 38.6154H204.692V43.5385H199.769V38.6154Z" fill="#00C700"/>
<path d="M209.615 38.6154H214.538V43.5385H209.615V38.6154Z" fill="#00C700"/>
<path d="M214.538 38.6154H219.462V43.5385H214.538V38.6154Z" fill="#00C700"/>
<path d="M219.462 38.6154H224.385V43.5385H219.462V38.6154Z" fill="#00C700"/>
<path d="M224.385 38.6154H229.308V43.5385H224.385V38.6154Z" fill="#00C700"/>
<path d="M229.308 38.6154H234.231V43.5385H229.308V38.6154Z" fill="#00C700"/>
<path d="M234.231 38.6154H239.154V43.5385H234.231V38.6154Z" fill="#00C700"/>
<path d="M239.154 38.6154H244.077V43.5385H239.154V38.6154Z" fill="#00C700"/>
<path d="M244.077 38.6154H249V43.5385H244.077V38.6154Z" fill="#00C700"/>
<path d="M185 43.5385H189.923V48.4615H185V43.5385Z" fill="#00C700"/>
<path d="M189.923 43.5385H194.846V48.4615H189.923V43.5385Z" fill="#00C700"/>
<path d="M194.846 43.5385H199.769V48.4615H194.846V43.5385Z" fill="#00C700"/>
<path d="M204.692 43.5385H209.615V48.4615H204.692V43.5385Z" fill="#00C700"/>
<path d="M199.769 43.5385H204.692V48.4615H199.769V43.5385Z" fill="#00C700"/>
<path d="M209.615 43.5385H214.538V48.4615H209.615V43.5385Z" fill="#00C700"/>
<path d="M214.538 43.5385H219.462V48.4615H214.538V43.5385Z" fill="#00C700"/>
<path d="M219.462 43.5385H224.385V48.4615H219.462V43.5385Z" fill="#00C700"/>
<path d="M224.385 43.5385H229.308V48.4615H224.385V43.5385Z" fill="#00C700"/>
<path d="M229.308 43.5385H234.231V48.4615H229.308V43.5385Z" fill="#00C700"/>
<path d="M234.231 43.5385H239.154V48.4615H234.231V43.5385Z" fill="#00C700"/>
<path d="M239.154 43.5385H244.077V48.4615H239.154V43.5385Z" fill="#00C700"/>
<path d="M244.077 43.5385H249V48.4615H244.077V43.5385Z" fill="#00C700"/>
<path d="M209.615 78H214.538V73.0769H209.615V78Z" fill="#00C700"/>
<path d="M214.538 78H219.462V73.0769H214.538V78Z" fill="#00C700"/>
<path d="M219.462 78H224.385V73.0769H219.462V78Z" fill="#00C700"/>
<path d="M199.769 73.0769H204.692V68.1538H199.769V73.0769Z" fill="#00C700"/>
<path d="M204.692 73.0769H209.615V68.1538H204.692V73.0769Z" fill="#00C700"/>
<path d="M209.615 73.0769H214.538V68.1538H209.615V73.0769Z" fill="#00C700"/>
<path d="M219.462 73.0769H224.385V68.1538H219.462V73.0769Z" fill="#00C700"/>
<path d="M214.538 73.0769H219.462V68.1538H214.538V73.0769Z" fill="#00C700"/>
<path d="M224.385 73.0769H229.308V68.1538H224.385V73.0769Z" fill="#00C700"/>
<path d="M229.308 73.0769H234.231V68.1538H229.308V73.0769Z" fill="#00C700"/>
<path d="M194.846 68.1538H199.769V63.2308H194.846V68.1538Z" fill="#00C700"/>
<path d="M199.769 68.1538H204.692V63.2308H199.769V68.1538Z" fill="#00C700"/>
<path d="M204.692 68.1538H209.615V63.2308H204.692V68.1538Z" fill="#00C700"/>
<path d="M214.538 68.1538H219.462V63.2308H214.538V68.1538Z" fill="#00C700"/>
<path d="M209.615 68.1538H214.538V63.2308H209.615V68.1538Z" fill="#00C700"/>
<path d="M219.462 68.1538H224.385V63.2308H219.462V68.1538Z" fill="#00C700"/>
<path d="M224.385 68.1538H229.308V63.2308H224.385V68.1538Z" fill="#00C700"/>
<path d="M229.308 68.1538H234.231V63.2308H229.308V68.1538Z" fill="#00C700"/>
<path d="M234.231 68.1538H239.154V63.2308H234.231V68.1538Z" fill="#00C700"/>
<path d="M189.923 63.2308H194.846V58.3077H189.923V63.2308Z" fill="#00C700"/>
<path d="M194.846 63.2308H199.769V58.3077H194.846V63.2308Z" fill="#00C700"/>
<path d="M199.769 63.2308H204.692V58.3077H199.769V63.2308Z" fill="#00C700"/>
<path d="M209.615 63.2308H214.538V58.3077H209.615V63.2308Z" fill="#00C700"/>
<path d="M204.692 63.2308H209.615V58.3077H204.692V63.2308Z" fill="#00C700"/>
<path d="M214.538 63.2308H219.462V58.3077H214.538V63.2308Z" fill="#00C700"/>
<path d="M219.462 63.2308H224.385V58.3077H219.462V63.2308Z" fill="#00C700"/>
<path d="M224.385 63.2308H229.308V58.3077H224.385V63.2308Z" fill="#00C700"/>
<path d="M229.308 63.2308H234.231V58.3077H229.308V63.2308Z" fill="#00C700"/>
<path d="M234.231 63.2308H239.154V58.3077H234.231V63.2308Z" fill="#00C700"/>
<path d="M239.154 63.2308H244.077V58.3077H239.154V63.2308Z" fill="#00C700"/>
<path d="M189.923 58.3077H194.846V53.3846H189.923V58.3077Z" fill="#00C700"/>
<path d="M194.846 58.3077H199.769V53.3846H194.846V58.3077Z" fill="#00C700"/>
<path d="M199.769 58.3077H204.692V53.3846H199.769V58.3077Z" fill="#00C700"/>
<path d="M209.615 58.3077H214.538V53.3846H209.615V58.3077Z" fill="#00C700"/>
<path d="M204.692 58.3077H209.615V53.3846H204.692V58.3077Z" fill="#00C700"/>
<path d="M214.538 58.3077H219.462V53.3846H214.538V58.3077Z" fill="#00C700"/>
<path d="M219.462 58.3077H224.385V53.3846H219.462V58.3077Z" fill="#00C700"/>
<path d="M224.385 58.3077H229.308V53.3846H224.385V58.3077Z" fill="#00C700"/>
<path d="M229.308 58.3077H234.231V53.3846H229.308V58.3077Z" fill="#00C700"/>
<path d="M234.231 58.3077H239.154V53.3846H234.231V58.3077Z" fill="#00C700"/>
<path d="M239.154 58.3077H244.077V53.3846H239.154V58.3077Z" fill="#00C700"/>
<path d="M185 53.3846H189.923V48.4615H185V53.3846Z" fill="#00C700"/>
<path d="M189.923 53.3846H194.846V48.4615H189.923V53.3846Z" fill="#00C700"/>
<path d="M194.846 53.3846H199.769V48.4615H194.846V53.3846Z" fill="#00C700"/>
<path d="M204.692 53.3846H209.615V48.4615H204.692V53.3846Z" fill="#00C700"/>
<path d="M199.769 53.3846H204.692V48.4615H199.769V53.3846Z" fill="#00C700"/>
<path d="M209.615 53.3846H214.538V48.4615H209.615V53.3846Z" fill="#00C700"/>
<path d="M214.538 53.3846H219.462V48.4615H214.538V53.3846Z" fill="#00C700"/>
<path d="M219.462 53.3846H224.385V48.4615H219.462V53.3846Z" fill="#00C700"/>
<path d="M224.385 53.3846H229.308V48.4615H224.385V53.3846Z" fill="#00C700"/>
<path d="M229.308 53.3846H234.231V48.4615H229.308V53.3846Z" fill="#00C700"/>
<path d="M234.231 53.3846H239.154V48.4615H234.231V53.3846Z" fill="#00C700"/>
<path d="M239.154 53.3846H244.077V48.4615H239.154V53.3846Z" fill="#00C700"/>
<path d="M244.077 53.3846H249V48.4615H244.077V53.3846Z" fill="#00C700"/>
<path d="M185 48.4615H189.923V43.5385H185V48.4615Z" fill="#00C700"/>
<path d="M189.923 48.4615H194.846V43.5385H189.923V48.4615Z" fill="#00C700"/>
<path d="M194.846 48.4615H199.769V43.5385H194.846V48.4615Z" fill="#00C700"/>
<path d="M204.692 48.4615H209.615V43.5385H204.692V48.4615Z" fill="#00C700"/>
<path d="M199.769 48.4615H204.692V43.5385H199.769V48.4615Z" fill="#00C700"/>
<path d="M209.615 48.4615H214.538V43.5385H209.615V48.4615Z" fill="#00C700"/>
<path d="M214.538 48.4615H219.462V43.5385H214.538V48.4615Z" fill="#00C700"/>
<path d="M219.462 48.4615H224.385V43.5385H219.462V48.4615Z" fill="#00C700"/>
<path d="M224.385 48.4615H229.308V43.5385H224.385V48.4615Z" fill="#00C700"/>
<path d="M229.308 48.4615H234.231V43.5385H229.308V48.4615Z" fill="#00C700"/>
<path d="M234.231 48.4615H239.154V43.5385H234.231V48.4615Z" fill="#00C700"/>
<path d="M239.154 48.4615H244.077V43.5385H239.154V48.4615Z" fill="#00C700"/>
<path d="M244.077 48.4615H249V43.5385H244.077V48.4615Z" fill="#00C700"/>
</svg>
