<svg width="100" height="158" viewBox="0 0 100 158" fill="none" xmlns="http://www.w3.org/2000/svg">
<rect y="18" width="100" height="140" fill="#101010"/>
<rect width="100" height="18" fill="#DCE0D2"/>
<path fill-rule="evenodd" clip-rule="evenodd" d="M48.0345 26.4833V27.9667H43.6379H39.2414V29.45V30.9333H34.8448H30.4483V32.4167V33.9H27.5172H24.5862V35.3833V36.8667H23.1207H21.6552V39.8333V42.8H20.1897H18.7241V45.7667V48.7333H17.2586H15.7931V53.1833V57.6333H14.3276H12.8621V60.6V63.5667H11.3966H9.93103V68.0167V72.4667H8.46552H7V76.9167V81.3667H8.46552H9.93103V82.85V84.3333H11.3966H12.8621V85.8167V87.3H14.3276H15.7931V88.7833V90.2667H17.2586H18.7241V91.75V93.2333H20.1897H21.6552V94.7167V96.2H23.1207H24.5862V97.6833V99.1667H26.0517H27.5172V100.65V102.133H28.9828H30.4483V103.617V105.1H31.9138H33.3793V106.583V108.067H34.8448H36.3103V109.55V111.033H39.2414H42.1724V105.1V99.1667H46.569H50.9655V97.6833V96.2H55.3621H59.7586V94.7167V93.2333H65.6207H71.4828V91.75V90.2667H75.8793H80.2759V91.75V93.2333H77.3448H74.4138V94.7167V96.2H72.9483H71.4828V97.6833V99.1667H68.5517H65.6207V100.65V102.133H62.6897H59.7586V103.617V105.1H56.8276H53.8966V106.583V108.067H52.431H50.9655V109.55V111.033H53.8966H56.8276V109.55V108.067H61.2241H65.6207V106.583V105.1H68.5517H71.4828V103.617V102.133H72.9483H74.4138V100.65V99.1667H75.8793H77.3448V97.6833V96.2H78.8103H80.2759V94.7167V93.2333H81.7414H83.2069V91.75V90.2667H81.7414H80.2759V87.3V84.3333H75.8793H71.4828V82.85V81.3667H67.0862H62.6897V79.8833V78.4H56.8276H50.9655V76.9167V75.4333H46.569H42.1724V73.95V72.4667H43.6379H45.1035V69.5V66.5333H46.569H48.0345V65.05V63.5667H49.5H50.9655V62.0833V60.6H52.431H53.8966V59.1167V57.6333H55.3621H56.8276V56.15V54.6667H58.2931H59.7586V53.1833V51.7H61.7737H63.7888V53.1833V54.6667H69.069H74.3493L74.6318 56.2427C74.7871 57.1097 74.9751 57.5447 75.0498 57.2095C75.1901 56.5779 76.6121 56.6655 76.6121 57.3059C76.6121 57.4857 77.4364 57.6333 78.444 57.6333H80.2759V62.0833V66.5333H81.7414H83.2069V72.4667V78.4H84.6724H86.1379V81.3667V84.3333H87.6034H89.069V75.4333V66.5333H90.5345H92V60.6V54.6667H90.5345H89.069V53.1833V51.7H87.6034H86.1379V50.2167V48.7333H84.6724H83.2069V47.25V45.7667H81.7414H80.2759V42.8V39.8333H78.8103H77.3448V38.35V36.8667H75.8793H74.4138V35.3833V33.9H71.4828H68.5517V32.4167V30.9333H67.0862H65.6207V29.45V27.9667H62.6897H59.7586V26.4833V25H53.8966H48.0345V26.4833ZM45.1035 112.517V114H46.569H48.0345V112.517V111.033H46.569H45.1035V112.517Z" fill="#ECF335"/>
<path d="M19.3109 146V138H15.2073V146H19.3109ZM11.1036 150V146H7V126H11.1036V122H23.4145V126H27.5181V130H19.3109V126H15.2073V134H27.5181V150H11.1036Z" fill="#ECF335"/>
<path d="M31.95 150V122H40.1356V150H31.95Z" fill="#ECF335"/>
<path d="M55.9613 146V138H51.8577V146H55.9613ZM47.7541 150V146H43.6505V126H47.7541V122H60.065V126H64.1686V130H55.9613V126H51.8577V134H64.1686V150H47.7541Z" fill="#ECF335"/>
<path d="M80.9114 134V126H76.8078V134H80.9114ZM68.6005 150V126H72.7041V122H85.015V126H89.1186V150H80.9114V138H76.8078V150H68.6005Z" fill="#ECF335"/>
<path d="M89.1186 145.8H92V150H89.1186V145.8Z" fill="#ECF335"/>
<path d="M12.0837 8.42857V6.14286H13.3547V8.42857H12.0837ZM7 13V5H12.0837V6.14286H8.27093V8.42857H12.0837V9.57143H8.27093V13H7Z" fill="#101010"/>
<path d="M19.811 13V11.8571H21.0819V13H19.811ZM18.5401 11.8571V10.7143H19.811V11.8571H18.5401ZM19.811 8.42857V6.14286H21.0819V8.42857H19.811ZM14.7273 13V5H19.811V6.14286H15.9982V8.42857H19.811V9.57143H18.5401V10.7143H17.2691V9.57143H15.9982V13H14.7273Z" fill="#101010"/>
<path d="M23.7255 13V11.8571H27.5383V13H23.7255ZM22.4545 11.8571V6.14286H23.7255V11.8571H22.4545ZM27.5383 11.8571V6.14286H28.8092V11.8571H27.5383ZM23.7255 6.14286V5H27.5383V6.14286H23.7255Z" fill="#101010"/>
<path d="M35.2655 11.8571V6.14286H36.5365V11.8571H35.2655ZM30.1818 13V5H35.2655V6.14286H31.4528V11.8571H35.2655V13H30.1818Z" fill="#101010"/>
<path d="M39.18 13V11.8571H42.9928V13H39.18ZM37.9091 11.8571V5H39.18V11.8571H37.9091ZM42.9928 11.8571V5H44.2638V11.8571H42.9928Z" fill="#101010"/>
<path d="M46.9073 13V11.8571H50.7201V13H46.9073ZM50.7201 11.8571V10.7143H51.991V11.8571H50.7201ZM45.6364 11.8571V6.14286H46.9073V11.8571H45.6364ZM50.7201 7.28571V6.14286H51.991V7.28571H50.7201ZM46.9073 6.14286V5H50.7201V6.14286H46.9073Z" fill="#101010"/>
<path d="M53.3636 13V5H59.7183V6.14286H54.6346V8.42857H58.4474V9.57143H54.6346V11.8571H59.7183V13H53.3636Z" fill="#101010"/>
<path d="M66.1746 11.8571V6.14286H67.4456V11.8571H66.1746ZM61.0909 13V5H66.1746V6.14286H62.3618V11.8571H66.1746V13H61.0909Z" fill="#101010"/>
<path d="M80.3583 11.8571V9.57143H81.6292V11.8571H80.3583ZM80.3583 8.42857V6.14286H81.6292V8.42857H80.3583ZM75.2745 13V5H80.3583V6.14286H76.5455V8.42857H80.3583V9.57143H76.5455V11.8571H80.3583V13H75.2745Z" fill="#101010"/>
<path d="M85.5437 13V9.57143H86.8146V13H85.5437ZM84.2727 9.57143V8.42857H85.5437V9.57143H84.2727ZM86.8146 9.57143V8.42857H88.0855V9.57143H86.8146ZM83.0018 8.42857V5H84.2727V8.42857H83.0018ZM88.0855 8.42857V5H89.3565V8.42857H88.0855Z" fill="#101010"/>
<path d="M90.7291 11.8571V10.7143H92V11.8571H90.7291ZM90.7291 7.28571V6.14286H92V7.28571H90.7291Z" fill="#101010"/>
</svg>
