<svg width="1101" height="156" viewBox="0 0 1101 156" fill="none" xmlns="http://www.w3.org/2000/svg">
<path d="M1014.59 32C1012.83 32 1011.23 31.7105 1009.79 31.1316C1008.38 30.525 1007.16 29.7117 1006.13 28.6917C1005.13 27.644 1004.35 26.4172 1003.81 25.0112C1003.27 23.6051 1003 22.0888 1003 20.4622C1003 18.8081 1003.28 17.278 1003.85 15.8719C1004.45 14.4383 1005.25 13.1977 1006.25 12.15C1007.28 11.1024 1008.49 10.2753 1009.87 9.66881C1011.28 9.06228 1012.82 8.75902 1014.47 8.75902C1016.07 8.75902 1017.55 9.0485 1018.91 9.62745C1020.29 10.1788 1021.47 10.9646 1022.45 11.9846C1023.45 12.9771 1024.24 14.1764 1024.81 15.5824C1025.38 16.9609 1025.66 18.4772 1025.66 20.1314V21.6615H1006.25C1006.36 22.7367 1006.64 23.7154 1007.11 24.5976C1007.57 25.4798 1008.15 26.2518 1008.86 26.9135C1009.59 27.5475 1010.43 28.0438 1011.38 28.4022C1012.35 28.7606 1013.43 28.9398 1014.59 28.9398C1016.36 28.9398 1017.83 28.5676 1019.03 27.8232C1020.22 27.0789 1021.2 26.0174 1021.96 24.639L1024.81 26.3345C1023.67 28.1265 1022.28 29.5188 1020.66 30.5113C1019.03 31.5037 1017.01 32 1014.59 32ZM1014.47 11.7779C1013.41 11.7779 1012.42 11.9571 1011.5 12.3155C1010.61 12.6463 1009.81 13.1288 1009.1 13.7629C1008.39 14.3694 1007.8 15.1 1007.31 15.9546C1006.85 16.7817 1006.52 17.6915 1006.33 18.684H1022.24C1021.97 16.5611 1021.14 14.8794 1019.76 13.6388C1018.38 12.3982 1016.61 11.7779 1014.47 11.7779Z" fill="#ECF335"/>
<path d="M991.605 20.6637L986.926 25.7089V31.5398H983.63V0H986.926V21.8216L998.563 9.20859H1002.75L994.046 18.5546L1003.28 31.5398H999.255L991.605 20.6637Z" fill="#ECF335"/>
<path d="M970.272 32C968.644 32 967.125 31.6967 965.714 31.0902C964.304 30.4837 963.083 29.6566 962.052 28.609C961.022 27.5613 960.208 26.3345 959.611 24.9285C959.041 23.5224 958.757 22.0061 958.757 20.3795C958.757 18.7253 959.055 17.1952 959.652 15.7892C960.249 14.3556 961.062 13.1288 962.093 12.1087C963.124 11.0611 964.331 10.2478 965.714 9.66881C967.125 9.06228 968.63 8.75902 970.231 8.75902C971.424 8.75902 972.55 8.92443 973.608 9.25527C974.693 9.5861 975.683 10.0548 976.578 10.6613C977.473 11.2403 978.26 11.9571 978.938 12.8117C979.644 13.6388 980.2 14.5486 980.606 15.5411L977.555 16.9058C976.904 15.3619 975.941 14.1488 974.666 13.2666C973.391 12.3844 971.899 11.9433 970.19 11.9433C969.051 11.9433 967.979 12.1638 966.976 12.6049C965.999 13.0461 965.145 13.6526 964.412 14.4245C963.68 15.1689 963.11 16.0649 962.703 17.1125C962.297 18.1326 962.093 19.2216 962.093 20.3795C962.093 21.5374 962.297 22.6264 962.703 23.6465C963.137 24.6665 963.721 25.5625 964.453 26.3345C965.185 27.1064 966.053 27.713 967.057 28.1541C968.061 28.5952 969.146 28.8157 970.312 28.8157C972.103 28.8157 973.608 28.3333 974.829 27.3683C976.076 26.3758 977.012 25.1352 977.636 23.6465L980.729 24.9698C979.861 27.0375 978.531 28.733 976.741 30.0564C974.978 31.3521 972.821 32 970.272 32Z" fill="#ECF335"/>
<path d="M945.807 32C944.179 32 942.674 31.7105 941.29 31.1316C939.907 30.525 938.7 29.698 937.669 28.6503C936.666 27.6027 935.865 26.3758 935.269 24.9698C934.699 23.5638 934.414 22.0337 934.414 20.3795C934.414 18.7529 934.699 17.2366 935.269 15.8306C935.865 14.397 936.679 13.1563 937.71 12.1087C938.741 11.0611 939.948 10.2478 941.331 9.66881C942.715 9.06228 944.207 8.75902 945.807 8.75902C947.407 8.75902 948.899 9.06228 950.283 9.66881C951.693 10.2478 952.914 11.0611 953.945 12.1087C954.975 13.1563 955.776 14.397 956.345 15.8306C956.942 17.2366 957.24 18.7529 957.24 20.3795C957.24 22.0061 956.942 23.5224 956.345 24.9285C955.776 26.3345 954.975 27.5613 953.945 28.609C952.914 29.6566 951.707 30.4837 950.323 31.0902C948.94 31.6967 947.434 32 945.807 32ZM945.807 28.7744C946.946 28.7744 948.004 28.5676 948.981 28.1541C949.984 27.713 950.839 27.1202 951.544 26.3758C952.276 25.6039 952.846 24.7079 953.253 23.6878C953.66 22.6678 953.863 21.565 953.863 20.3795C953.863 19.194 953.66 18.0912 953.253 17.0712C952.846 16.0235 952.276 15.1275 951.544 14.3832C950.812 13.6112 949.957 13.0185 948.981 12.6049C948.004 12.1638 946.946 11.9433 945.807 11.9433C944.668 11.9433 943.61 12.1638 942.633 12.6049C941.657 13.0185 940.802 13.6112 940.07 14.3832C939.365 15.1275 938.808 16.0235 938.402 17.0712C937.995 18.0912 937.791 19.194 937.791 20.3795C937.791 21.5926 937.995 22.7091 938.402 23.7292C938.808 24.7493 939.365 25.6315 940.07 26.3758C940.802 27.1202 941.657 27.713 942.633 28.1541C943.61 28.5676 944.668 28.7744 945.807 28.7744Z" fill="#ECF335"/>
<path d="M919 12.1968H921.999V31.4997H919V12.1968Z" fill="#ECF335"/>
<path d="M921.997 12.1965L921.997 9.14873L934.492 9.14872V12.1965L921.997 12.1965Z" fill="#ECF335"/>
<path d="M1031.32 3.93308V24.8053C1031.32 27.2865 1031.84 29.0923 1032.9 30.2227C1033.96 31.3254 1035.51 31.8768 1037.54 31.8768C1038.46 31.8768 1039.29 31.739 1040.02 31.4633C1040.76 31.1876 1041.43 30.8016 1042.06 30.3054L1040.31 27.6174C1039.55 28.3342 1038.71 28.6926 1037.78 28.6926C1036.84 28.6926 1036.06 28.3893 1035.47 27.7828C1034.9 27.1762 1034.61 26.1562 1034.61 24.7226V12.4515H1042.06V9.21479H1034.61V3.9331L1031.32 3.93308Z" fill="#ECF335"/>
<path d="M1029.96 9.20097H1026.46V12.6178H1029.96V9.20097Z" fill="#ECF335"/>
<path d="M1056.94 5.58039H1065.09V10.7597H1056.94V5.58039Z" fill="#ECF335"/>
<path d="M1078.85 5.58037H1087V10.7597H1078.85V5.58037Z" fill="#ECF335"/>
<path d="M1056.94 26.8172H1065.09V31.9965H1056.94V26.8172Z" fill="#ECF335"/>
<path d="M1078.85 26.8172H1087V31.9965H1078.85V26.8172Z" fill="#ECF335"/>
<path d="M1078.84 26.8172H1074.26V21.1199L1078.84 21.1199V26.8172Z" fill="#ECF335"/>
<path d="M1078.84 16.451H1074.26V10.7537H1078.84V16.451Z" fill="#ECF335"/>
<path d="M1069.69 26.8172H1065.1V21.1199L1069.69 21.1199V26.8172Z" fill="#ECF335"/>
<path d="M1069.69 16.451H1065.1V10.7537H1069.69V16.451Z" fill="#ECF335"/>
<path d="M1069.69 16.451H1074.27V21.1124H1069.69V16.451Z" fill="#ECF335"/>
<mask id="path-2-outside-1_188_7193" maskUnits="userSpaceOnUse" x="0" y="42" width="1101" height="114" fill="black">
<rect fill="white" y="42" width="1101" height="114"/>
<path d="M82.9375 95.2513H100.172V110.834H82.9375V95.2513Z"/>
<path fill-rule="evenodd" clip-rule="evenodd" d="M31.2344 56H14V71.5829H31.2344V87.1658H14V102.749H31.2344V118.332H48.4688V133.915H65.7031V118.332L82.9375 126.417V142H100.172V126.417H117.406V142H134.642V126.417H117.406V110.834H134.642V95.2513H117.406V79.6684H100.172V64.0855H82.9375V79.6684L65.7031 71.5829V56H48.4688V71.5829H31.2344V56ZM48.4688 87.1658V71.5829H65.7031V87.1658H48.4688ZM48.4688 102.749V118.332H65.7031V102.749L82.9375 110.834V126.417H100.172V110.834H117.406V95.2513H100.172V79.6684H82.9375V95.2513L65.7031 87.1658V102.749H48.4688ZM48.4688 102.749H31.2344V87.1658H48.4688V102.749Z"/>
<path fill-rule="evenodd" clip-rule="evenodd" d="M255.818 129.714V142H219.094V129.714H206.853V117.429H194.61V142H170.127V56H243.577V68.2857H255.818V105.143H231.335V117.429H243.577V129.714H255.818ZM219.094 92.8571H231.335V68.2857H194.61V105.143H219.094V92.8571Z"/>
<path fill-rule="evenodd" clip-rule="evenodd" d="M579.467 142V129.714H567.209V117.429H554.952V105.143H579.467V68.2857H567.209V56H493.665V142H518.18V117.429H530.438V129.714H542.694V142H579.467ZM554.952 92.8571H542.694V105.143H518.18V68.2857H554.952V92.8571Z"/>
<path fill-rule="evenodd" clip-rule="evenodd" d="M680.974 142V80.5714H668.716V68.2857H656.459V56H619.687V68.2857H607.429V80.5714H595.172V142H619.687V117.429H656.459V142H680.974ZM656.459 105.143H619.687V80.5714H631.943V68.2857H644.201V80.5714H656.459V105.143Z"/>
<path d="M782.48 117.429V129.714H770.223V142H721.193V129.714H708.936V117.429H696.679V80.5714H708.936V68.2857H721.193V56H770.223V68.2857H782.48V80.5714H757.965V68.2857H733.45V80.5714H721.193V117.429H733.45V129.714H757.965V117.429H782.48Z"/>
<path d="M877.858 68.2857V56H804.313V68.2857H816V81H828.828V129.714H804.313V142H877.858V129.714H866V117H853.344V68.2857H877.858Z"/>
<path d="M985.493 56V142H960.979V129.714H948.721V117.429H936.464V105.143H924.206V142H899.691V56H924.206V68.2857H936.464V80.5714H948.721V92.8571H960.979V56H985.493Z"/>
<path d="M1087 142V92.8571H1050.23V105.143H1062.49V129.714H1037.97V117.429H1025.71V80.5714H1037.97V68.2857H1087V56H1025.71V68.2857H1013.46V80.5714H1001.2V117.429H1013.46V129.469H1025.71V142H1087Z"/>
<path fill-rule="evenodd" clip-rule="evenodd" d="M357.194 129.714V68.2857H344.952V56H283.744V68.2857H271.503V129.714H283.744V142H344.952V129.714H357.194ZM332.711 129.714H295.986V68.2857H332.711V129.714Z"/>
<path d="M458.569 117.429V142H434.086V129.714H421.845V117.429H409.604V129.714H397.361V142H372.878V117.429H385.12V105.143H397.361V92.8571H385.12V80.5714H372.878V56H397.361V68.2857H409.604V80.5714H421.845V68.2857H434.086V56H458.569V80.5714H446.328V92.8571H434.086V105.143H446.328V117.429H458.569Z"/>
</mask>
<path d="M82.9375 95.2513H100.172V110.834H82.9375V95.2513Z" fill="#ECF335"/>
<path fill-rule="evenodd" clip-rule="evenodd" d="M31.2344 56H14V71.5829H31.2344V87.1658H14V102.749H31.2344V118.332H48.4688V133.915H65.7031V118.332L82.9375 126.417V142H100.172V126.417H117.406V142H134.642V126.417H117.406V110.834H134.642V95.2513H117.406V79.6684H100.172V64.0855H82.9375V79.6684L65.7031 71.5829V56H48.4688V71.5829H31.2344V56ZM48.4688 87.1658V71.5829H65.7031V87.1658H48.4688ZM48.4688 102.749V118.332H65.7031V102.749L82.9375 110.834V126.417H100.172V110.834H117.406V95.2513H100.172V79.6684H82.9375V95.2513L65.7031 87.1658V102.749H48.4688ZM48.4688 102.749H31.2344V87.1658H48.4688V102.749Z" fill="#ECF335"/>
<path fill-rule="evenodd" clip-rule="evenodd" d="M255.818 129.714V142H219.094V129.714H206.853V117.429H194.61V142H170.127V56H243.577V68.2857H255.818V105.143H231.335V117.429H243.577V129.714H255.818ZM219.094 92.8571H231.335V68.2857H194.61V105.143H219.094V92.8571Z" fill="#ECF335"/>
<path fill-rule="evenodd" clip-rule="evenodd" d="M579.467 142V129.714H567.209V117.429H554.952V105.143H579.467V68.2857H567.209V56H493.665V142H518.18V117.429H530.438V129.714H542.694V142H579.467ZM554.952 92.8571H542.694V105.143H518.18V68.2857H554.952V92.8571Z" fill="#ECF335"/>
<path fill-rule="evenodd" clip-rule="evenodd" d="M680.974 142V80.5714H668.716V68.2857H656.459V56H619.687V68.2857H607.429V80.5714H595.172V142H619.687V117.429H656.459V142H680.974ZM656.459 105.143H619.687V80.5714H631.943V68.2857H644.201V80.5714H656.459V105.143Z" fill="#ECF335"/>
<path d="M782.48 117.429V129.714H770.223V142H721.193V129.714H708.936V117.429H696.679V80.5714H708.936V68.2857H721.193V56H770.223V68.2857H782.48V80.5714H757.965V68.2857H733.45V80.5714H721.193V117.429H733.45V129.714H757.965V117.429H782.48Z" fill="#ECF335"/>
<path d="M877.858 68.2857V56H804.313V68.2857H816V81H828.828V129.714H804.313V142H877.858V129.714H866V117H853.344V68.2857H877.858Z" fill="#ECF335"/>
<path d="M985.493 56V142H960.979V129.714H948.721V117.429H936.464V105.143H924.206V142H899.691V56H924.206V68.2857H936.464V80.5714H948.721V92.8571H960.979V56H985.493Z" fill="#ECF335"/>
<path d="M1087 142V92.8571H1050.23V105.143H1062.49V129.714H1037.97V117.429H1025.71V80.5714H1037.97V68.2857H1087V56H1025.71V68.2857H1013.46V80.5714H1001.2V117.429H1013.46V129.469H1025.71V142H1087Z" fill="#ECF335"/>
<path fill-rule="evenodd" clip-rule="evenodd" d="M357.194 129.714V68.2857H344.952V56H283.744V68.2857H271.503V129.714H283.744V142H344.952V129.714H357.194ZM332.711 129.714H295.986V68.2857H332.711V129.714Z" fill="#ECF335"/>
<path d="M458.569 117.429V142H434.086V129.714H421.845V117.429H409.604V129.714H397.361V142H372.878V117.429H385.12V105.143H397.361V92.8571H385.12V80.5714H372.878V56H397.361V68.2857H409.604V80.5714H421.845V68.2857H434.086V56H458.569V80.5714H446.328V92.8571H434.086V105.143H446.328V117.429H458.569Z" fill="#ECF335"/>
<path d="M7 71.5829V87.1658H21V71.5829H7ZM14 56V42H0V56H14ZM31.2344 56H45.2344V42H31.2344V56ZM14 71.5829H0V85.5829H14V71.5829ZM14 87.1658V73.1658H0V87.1658H14ZM14 102.749H0V116.749H14V102.749ZM31.2344 118.332H17.2344V132.332H31.2344V118.332ZM48.4688 133.915H34.4688V147.915H48.4688V133.915ZM65.7031 133.915V147.915H79.7031V133.915H65.7031ZM82.9375 142H68.9375V156H82.9375V142ZM100.172 142V156H114.172V142H100.172ZM117.406 142H103.406V156H117.406V142ZM134.642 142V156H148.642V142H134.642ZM134.642 126.417H148.642V112.417H134.642V126.417ZM134.642 110.834V124.834H148.642V110.834H134.642ZM134.642 95.2513H148.642V81.2513H134.642V95.2513ZM117.406 79.6684H131.406V65.6684H117.406V79.6684ZM100.172 64.0855H114.172V50.0855H100.172V64.0855ZM82.9375 64.0855V50.0855H68.9375V64.0855H82.9375ZM65.7031 56H79.7031V42H65.7031V56ZM48.4688 56V42H34.4688V56H48.4688ZM255.818 142V156H269.818V142H255.818ZM255.818 129.714H269.818V115.714H255.818V129.714ZM219.094 142H205.094V156H219.094V142ZM219.094 129.714H233.094V115.714H219.094V129.714ZM206.853 129.714H192.853V143.714H206.853V129.714ZM206.853 117.429H220.853V103.429H206.853V117.429ZM194.61 117.429V103.429H180.61V117.429H194.61ZM194.61 142V156H208.61V142H194.61ZM170.127 142H156.127V156H170.127V142ZM170.127 56V42H156.127V56H170.127ZM243.577 56H257.577V42H243.577V56ZM243.577 68.2857H229.577V82.2857H243.577V68.2857ZM255.818 68.2857H269.818V54.2857H255.818V68.2857ZM255.818 105.143V119.143H269.818V105.143H255.818ZM231.335 105.143V91.1429H217.335V105.143H231.335ZM231.335 117.429H217.335V131.429H231.335V117.429ZM243.577 117.429H257.577V103.429H243.577V117.429ZM243.577 129.714H229.577V143.714H243.577V129.714ZM231.335 92.8571V106.857H245.335V92.8571H231.335ZM219.094 92.8571V78.8571H205.094V92.8571H219.094ZM231.335 68.2857H245.335V54.2857H231.335V68.2857ZM194.61 68.2857V54.2857H180.61V68.2857H194.61ZM194.61 105.143H180.61V119.143H194.61V105.143ZM219.094 105.143V119.143H233.094V105.143H219.094ZM579.467 129.714H593.467V115.714H579.467V129.714ZM579.467 142V156H593.467V142H579.467ZM567.209 129.714H553.209V143.714H567.209V129.714ZM567.209 117.429H581.209V103.429H567.209V117.429ZM554.952 117.429H540.952V131.429H554.952V117.429ZM554.952 105.143V91.1429H540.952V105.143H554.952ZM579.467 105.143V119.143H593.467V105.143H579.467ZM579.467 68.2857H593.467V54.2857H579.467V68.2857ZM567.209 68.2857H553.209V82.2857H567.209V68.2857ZM567.209 56H581.209V42H567.209V56ZM493.665 56V42H479.665V56H493.665ZM493.665 142H479.665V156H493.665V142ZM518.18 142V156H532.18V142H518.18ZM518.18 117.429V103.429H504.18V117.429H518.18ZM530.438 117.429H544.438V103.429H530.438V117.429ZM530.438 129.714H516.438V143.714H530.438V129.714ZM542.694 129.714H556.694V115.714H542.694V129.714ZM542.694 142H528.694V156H542.694V142ZM542.694 92.8571V78.8571H528.694V92.8571H542.694ZM554.952 92.8571V106.857H568.952V92.8571H554.952ZM542.694 105.143V119.143H556.694V105.143H542.694ZM518.18 105.143H504.18V119.143H518.18V105.143ZM518.18 68.2857V54.2857H504.18V68.2857H518.18ZM554.952 68.2857H568.952V54.2857H554.952V68.2857ZM680.974 80.5714H694.974V66.5714H680.974V80.5714ZM680.974 142V156H694.974V142H680.974ZM668.716 80.5714H654.716V94.5714H668.716V80.5714ZM668.716 68.2857H682.716V54.2857H668.716V68.2857ZM656.459 68.2857H642.459V82.2857H656.459V68.2857ZM656.459 56H670.459V42H656.459V56ZM619.687 56V42H605.687V56H619.687ZM619.687 68.2857V82.2857H633.687V68.2857H619.687ZM607.429 68.2857V54.2857H593.429V68.2857H607.429ZM607.429 80.5714V94.5714H621.429V80.5714H607.429ZM595.172 80.5714V66.5714H581.172V80.5714H595.172ZM595.172 142H581.172V156H595.172V142ZM619.687 142V156H633.687V142H619.687ZM619.687 117.429V103.429H605.687V117.429H619.687ZM656.459 117.429H670.459V103.429H656.459V117.429ZM656.459 142H642.459V156H656.459V142ZM619.687 105.143H605.687V119.143H619.687V105.143ZM656.459 105.143V119.143H670.459V105.143H656.459ZM619.687 80.5714V66.5714H605.687V80.5714H619.687ZM631.943 80.5714V94.5714H645.943V80.5714H631.943ZM631.943 68.2857V54.2857H617.943V68.2857H631.943ZM644.201 68.2857H658.201V54.2857H644.201V68.2857ZM644.201 80.5714H630.201V94.5714H644.201V80.5714ZM656.459 80.5714H670.459V66.5714H656.459V80.5714ZM782.48 129.714V143.714H796.48V129.714H782.48ZM782.48 117.429H796.48V103.429H782.48V117.429ZM770.223 129.714V115.714H756.223V129.714H770.223ZM770.223 142V156H784.223V142H770.223ZM721.193 142H707.193V156H721.193V142ZM721.193 129.714H735.193V115.714H721.193V129.714ZM708.936 129.714H694.936V143.714H708.936V129.714ZM708.936 117.429H722.936V103.429H708.936V117.429ZM696.679 117.429H682.679V131.429H696.679V117.429ZM696.679 80.5714V66.5714H682.679V80.5714H696.679ZM708.936 80.5714V94.5714H722.936V80.5714H708.936ZM708.936 68.2857V54.2857H694.936V68.2857H708.936ZM721.193 68.2857V82.2857H735.193V68.2857H721.193ZM721.193 56V42H707.193V56H721.193ZM770.223 56H784.223V42H770.223V56ZM770.223 68.2857H756.223V82.2857H770.223V68.2857ZM782.48 68.2857H796.48V54.2857H782.48V68.2857ZM782.48 80.5714V94.5714H796.48V80.5714H782.48ZM757.965 80.5714H743.965V94.5714H757.965V80.5714ZM757.965 68.2857H771.965V54.2857H757.965V68.2857ZM733.45 68.2857V54.2857H719.45V68.2857H733.45ZM733.45 80.5714V94.5714H747.45V80.5714H733.45ZM721.193 80.5714V66.5714H707.193V80.5714H721.193ZM721.193 117.429H707.193V131.429H721.193V117.429ZM733.45 117.429H747.45V103.429H733.45V117.429ZM733.45 129.714H719.45V143.714H733.45V129.714ZM757.965 129.714V143.714H771.965V129.714H757.965ZM757.965 117.429V103.429H743.965V117.429H757.965ZM877.858 56H891.858V42H877.858V56ZM877.858 68.2857V82.2857H891.858V68.2857H877.858ZM804.313 56V42H790.313V56H804.313ZM804.313 68.2857H790.313V82.2857H804.313V68.2857ZM816 68.2857H830V54.2857H816V68.2857ZM816 81H802V95H816V81ZM828.828 81H842.828V67H828.828V81ZM828.828 129.714V143.714H842.828V129.714H828.828ZM804.313 129.714V115.714H790.313V129.714H804.313ZM804.313 142H790.313V156H804.313V142ZM877.858 142V156H891.858V142H877.858ZM877.858 129.714H891.858V115.714H877.858V129.714ZM866 129.714H852V143.714H866V129.714ZM866 117H880V103H866V117ZM853.344 117H839.344V131H853.344V117ZM853.344 68.2857V54.2857H839.344V68.2857H853.344ZM985.493 142V156H999.493V142H985.493ZM985.493 56H999.493V42H985.493V56ZM960.979 142H946.979V156H960.979V142ZM960.979 129.714H974.979V115.714H960.979V129.714ZM948.721 129.714H934.721V143.714H948.721V129.714ZM948.721 117.429H962.721V103.429H948.721V117.429ZM936.464 117.429H922.464V131.429H936.464V117.429ZM936.464 105.143H950.464V91.1429H936.464V105.143ZM924.206 105.143V91.1429H910.206V105.143H924.206ZM924.206 142V156H938.206V142H924.206ZM899.691 142H885.691V156H899.691V142ZM899.691 56V42H885.691V56H899.691ZM924.206 56H938.206V42H924.206V56ZM924.206 68.2857H910.206V82.2857H924.206V68.2857ZM936.464 68.2857H950.464V54.2857H936.464V68.2857ZM936.464 80.5714H922.464V94.5714H936.464V80.5714ZM948.721 80.5714H962.721V66.5714H948.721V80.5714ZM948.721 92.8571H934.721V106.857H948.721V92.8571ZM960.979 92.8571V106.857H974.979V92.8571H960.979ZM960.979 56V42H946.979V56H960.979ZM1087 92.8571H1101V78.8571H1087V92.8571ZM1087 142V156H1101V142H1087ZM1050.23 92.8571V78.8571H1036.23V92.8571H1050.23ZM1050.23 105.143H1036.23V119.143H1050.23V105.143ZM1062.49 105.143H1076.49V91.1429H1062.49V105.143ZM1062.49 129.714V143.714H1076.49V129.714H1062.49ZM1037.97 129.714H1023.97V143.714H1037.97V129.714ZM1037.97 117.429H1051.97V103.429H1037.97V117.429ZM1025.71 117.429H1011.71V131.429H1025.71V117.429ZM1025.71 80.5714V66.5714H1011.71V80.5714H1025.71ZM1037.97 80.5714V94.5714H1051.97V80.5714H1037.97ZM1037.97 68.2857V54.2857H1023.97V68.2857H1037.97ZM1087 68.2857V82.2857H1101V68.2857H1087ZM1087 56H1101V42H1087V56ZM1025.71 56V42H1011.71V56H1025.71ZM1025.71 68.2857V82.2857H1039.71V68.2857H1025.71ZM1013.46 68.2857V54.2857H999.456V68.2857H1013.46ZM1013.46 80.5714V94.5714H1027.46V80.5714H1013.46ZM1001.2 80.5714V66.5714H987.198V80.5714H1001.2ZM1001.2 117.429H987.198V131.429H1001.2V117.429ZM1013.46 117.429H1027.46V103.429H1013.46V117.429ZM1013.46 129.469H999.456V143.469H1013.46V129.469ZM1025.71 129.469H1039.71V115.469H1025.71V129.469ZM1025.71 142H1011.71V156H1025.71V142ZM357.194 68.2857H371.194V54.2857H357.194V68.2857ZM357.194 129.714V143.714H371.194V129.714H357.194ZM344.952 68.2857H330.952V82.2857H344.952V68.2857ZM344.952 56H358.952V42H344.952V56ZM283.744 56V42H269.744V56H283.744ZM283.744 68.2857V82.2857H297.744V68.2857H283.744ZM271.503 68.2857V54.2857H257.503V68.2857H271.503ZM271.503 129.714H257.503V143.714H271.503V129.714ZM283.744 129.714H297.744V115.714H283.744V129.714ZM283.744 142H269.744V156H283.744V142ZM344.952 142V156H358.952V142H344.952ZM344.952 129.714V115.714H330.952V129.714H344.952ZM295.986 129.714H281.986V143.714H295.986V129.714ZM332.711 129.714V143.714H346.711V129.714H332.711ZM295.986 68.2857V54.2857H281.986V68.2857H295.986ZM332.711 68.2857H346.711V54.2857H332.711V68.2857ZM458.569 142V156H472.569V142H458.569ZM458.569 117.429H472.569V103.429H458.569V117.429ZM434.086 142H420.086V156H434.086V142ZM434.086 129.714H448.086V115.714H434.086V129.714ZM421.845 129.714H407.845V143.714H421.845V129.714ZM421.845 117.429H435.845V103.429H421.845V117.429ZM409.604 117.429V103.429H395.604V117.429H409.604ZM409.604 129.714V143.714H423.604V129.714H409.604ZM397.361 129.714V115.714H383.361V129.714H397.361ZM397.361 142V156H411.361V142H397.361ZM372.878 142H358.878V156H372.878V142ZM372.878 117.429V103.429H358.878V117.429H372.878ZM385.12 117.429V131.429H399.12V117.429H385.12ZM385.12 105.143V91.1429H371.12V105.143H385.12ZM397.361 105.143V119.143H411.361V105.143H397.361ZM397.361 92.8571H411.361V78.8571H397.361V92.8571ZM385.12 92.8571H371.12V106.857H385.12V92.8571ZM385.12 80.5714H399.12V66.5714H385.12V80.5714ZM372.878 80.5714H358.878V94.5714H372.878V80.5714ZM372.878 56V42H358.878V56H372.878ZM397.361 56H411.361V42H397.361V56ZM397.361 68.2857H383.361V82.2857H397.361V68.2857ZM409.604 68.2857H423.604V54.2857H409.604V68.2857ZM409.604 80.5714H395.604V94.5714H409.604V80.5714ZM421.845 80.5714V94.5714H435.845V80.5714H421.845ZM421.845 68.2857V54.2857H407.845V68.2857H421.845ZM434.086 68.2857V82.2857H448.086V68.2857H434.086ZM434.086 56V42H420.086V56H434.086ZM458.569 56H472.569V42H458.569V56ZM458.569 80.5714V94.5714H472.569V80.5714H458.569ZM446.328 80.5714V66.5714H432.328V80.5714H446.328ZM446.328 92.8571V106.857H460.328V92.8571H446.328ZM434.086 92.8571V78.8571H420.086V92.8571H434.086ZM434.086 105.143H420.086V119.143H434.086V105.143ZM446.328 105.143H460.328V91.1429H446.328V105.143ZM446.328 117.429H432.328V131.429H446.328V117.429ZM14 70H31.2344V42H14V70ZM28 71.5829V56H0V71.5829H28ZM31.2344 57.5829H14V85.5829H31.2344V57.5829ZM17.2344 71.5829V87.1658H45.2344V71.5829H17.2344ZM31.2344 73.1658H14V101.166H31.2344V73.1658ZM0 87.1658V102.749H28V87.1658H0ZM14 116.749H31.2344V88.7487H14V116.749ZM17.2344 102.749V118.332H45.2344V102.749H17.2344ZM31.2344 132.332H48.4688V104.332H31.2344V132.332ZM34.4688 118.332V133.915H62.4688V118.332H34.4688ZM48.4688 147.915H65.7031V119.915H48.4688V147.915ZM79.7031 133.915V118.332H51.7031V133.915H79.7031ZM59.7569 131.006L76.9913 139.092L88.8837 113.743L71.6493 105.657L59.7569 131.006ZM68.9375 126.417V142H96.9375V126.417H68.9375ZM82.9375 156H100.172V128H82.9375V156ZM114.172 142V126.417H86.1719V142H114.172ZM100.172 140.417H117.406V112.417H100.172V140.417ZM103.406 126.417V142H131.406V126.417H103.406ZM117.406 156H134.642V128H117.406V156ZM148.642 142V126.417H120.642V142H148.642ZM134.642 112.417H117.406V140.417H134.642V112.417ZM131.406 126.417V110.834H103.406V126.417H131.406ZM117.406 124.834H134.642V96.8342H117.406V124.834ZM148.642 110.834V95.2513H120.642V110.834H148.642ZM134.642 81.2513H117.406V109.251H134.642V81.2513ZM131.406 95.2513V79.6684H103.406V95.2513H131.406ZM117.406 65.6684H100.172V93.6684H117.406V65.6684ZM114.172 79.6684V64.0855H86.1719V79.6684H114.172ZM100.172 50.0855H82.9375V78.0855H100.172V50.0855ZM68.9375 64.0855V79.6684H96.9375V64.0855H68.9375ZM88.8837 66.9939L71.6493 58.9084L59.7569 84.2574L76.9913 92.3429L88.8837 66.9939ZM79.7031 71.5829V56H51.7031V71.5829H79.7031ZM65.7031 42H48.4688V70H65.7031V42ZM34.4688 56V71.5829H62.4688V56H34.4688ZM48.4688 57.5829H31.2344V85.5829H48.4688V57.5829ZM17.2344 56V71.5829H45.2344V56H17.2344ZM62.4688 87.1658V71.5829H34.4688V87.1658H62.4688ZM48.4688 85.5829H65.7031V57.5829H48.4688V85.5829ZM51.7031 71.5829V87.1658H79.7031V71.5829H51.7031ZM65.7031 73.1658H48.4688V101.166H65.7031V73.1658ZM34.4688 102.749V118.332H62.4688V102.749H34.4688ZM48.4688 132.332H65.7031V104.332H48.4688V132.332ZM79.7031 118.332V102.749H51.7031V118.332H79.7031ZM59.7569 115.423L76.9913 123.509L88.8837 98.1597L71.6493 90.0742L59.7569 115.423ZM68.9375 110.834V126.417H96.9375V110.834H68.9375ZM82.9375 140.417H100.172V112.417H82.9375V140.417ZM114.172 126.417V110.834H86.1719V126.417H114.172ZM100.172 124.834H117.406V96.8342H100.172V124.834ZM131.406 110.834V95.2513H103.406V110.834H131.406ZM117.406 81.2513H100.172V109.251H117.406V81.2513ZM114.172 95.2513V79.6684H86.1719V95.2513H114.172ZM100.172 65.6684H82.9375V93.6684H100.172V65.6684ZM68.9375 79.6684V95.2513H96.9375V79.6684H68.9375ZM88.8837 82.5768L71.6493 74.4913L59.7569 99.8403L76.9913 107.926L88.8837 82.5768ZM51.7031 87.1658V102.749H79.7031V87.1658H51.7031ZM65.7031 88.7487H48.4688V116.749H65.7031V88.7487ZM100.172 81.2513H82.9375V109.251H100.172V81.2513ZM114.172 110.834V95.2513H86.1719V110.834H114.172ZM82.9375 124.834H100.172V96.8342H82.9375V124.834ZM68.9375 95.2513V110.834H96.9375V95.2513H68.9375ZM48.4688 88.7487H31.2344V116.749H48.4688V88.7487ZM45.2344 102.749V87.1658H17.2344V102.749H45.2344ZM31.2344 101.166H48.4688V73.1658H31.2344V101.166ZM34.4688 87.1658V102.749H62.4688V87.1658H34.4688ZM269.818 142V129.714H241.818V142H269.818ZM219.094 156H255.818V128H219.094V156ZM205.094 129.714V142H233.094V129.714H205.094ZM206.853 143.714H219.094V115.714H206.853V143.714ZM192.853 117.429V129.714H220.853V117.429H192.853ZM194.61 131.429H206.853V103.429H194.61V131.429ZM208.61 142V117.429H180.61V142H208.61ZM170.127 156H194.61V128H170.127V156ZM156.127 56V142H184.127V56H156.127ZM243.577 42H170.127V70H243.577V42ZM257.577 68.2857V56H229.577V68.2857H257.577ZM255.818 54.2857H243.577V82.2857H255.818V54.2857ZM269.818 105.143V68.2857H241.818V105.143H269.818ZM231.335 119.143H255.818V91.1429H231.335V119.143ZM245.335 117.429V105.143H217.335V117.429H245.335ZM243.577 103.429H231.335V131.429H243.577V103.429ZM257.577 129.714V117.429H229.577V129.714H257.577ZM255.818 115.714H243.577V143.714H255.818V115.714ZM231.335 78.8571H219.094V106.857H231.335V78.8571ZM217.335 68.2857V92.8571H245.335V68.2857H217.335ZM194.61 82.2857H231.335V54.2857H194.61V82.2857ZM208.61 105.143V68.2857H180.61V105.143H208.61ZM219.094 91.1429H194.61V119.143H219.094V91.1429ZM205.094 92.8571V105.143H233.094V92.8571H205.094ZM565.467 129.714V142H593.467V129.714H565.467ZM567.209 143.714H579.467V115.714H567.209V143.714ZM553.209 117.429V129.714H581.209V117.429H553.209ZM554.952 131.429H567.209V103.429H554.952V131.429ZM540.952 105.143V117.429H568.952V105.143H540.952ZM579.467 91.1429H554.952V119.143H579.467V91.1429ZM565.467 68.2857V105.143H593.467V68.2857H565.467ZM567.209 82.2857H579.467V54.2857H567.209V82.2857ZM553.209 56V68.2857H581.209V56H553.209ZM493.665 70H567.209V42H493.665V70ZM507.665 142V56H479.665V142H507.665ZM518.18 128H493.665V156H518.18V128ZM504.18 117.429V142H532.18V117.429H504.18ZM530.438 103.429H518.18V131.429H530.438V103.429ZM544.438 129.714V117.429H516.438V129.714H544.438ZM542.694 115.714H530.438V143.714H542.694V115.714ZM556.694 142V129.714H528.694V142H556.694ZM579.467 128H542.694V156H579.467V128ZM542.694 106.857H554.952V78.8571H542.694V106.857ZM556.694 105.143V92.8571H528.694V105.143H556.694ZM518.18 119.143H542.694V91.1429H518.18V119.143ZM504.18 68.2857V105.143H532.18V68.2857H504.18ZM554.952 54.2857H518.18V82.2857H554.952V54.2857ZM568.952 92.8571V68.2857H540.952V92.8571H568.952ZM666.974 80.5714V142H694.974V80.5714H666.974ZM668.716 94.5714H680.974V66.5714H668.716V94.5714ZM654.716 68.2857V80.5714H682.716V68.2857H654.716ZM656.459 82.2857H668.716V54.2857H656.459V82.2857ZM642.459 56V68.2857H670.459V56H642.459ZM619.687 70H656.459V42H619.687V70ZM633.687 68.2857V56H605.687V68.2857H633.687ZM607.429 82.2857H619.687V54.2857H607.429V82.2857ZM621.429 80.5714V68.2857H593.429V80.5714H621.429ZM595.172 94.5714H607.429V66.5714H595.172V94.5714ZM609.172 142V80.5714H581.172V142H609.172ZM619.687 128H595.172V156H619.687V128ZM605.687 117.429V142H633.687V117.429H605.687ZM656.459 103.429H619.687V131.429H656.459V103.429ZM670.459 142V117.429H642.459V142H670.459ZM680.974 128H656.459V156H680.974V128ZM619.687 119.143H656.459V91.1429H619.687V119.143ZM605.687 80.5714V105.143H633.687V80.5714H605.687ZM631.943 66.5714H619.687V94.5714H631.943V66.5714ZM617.943 68.2857V80.5714H645.943V68.2857H617.943ZM644.201 54.2857H631.943V82.2857H644.201V54.2857ZM658.201 80.5714V68.2857H630.201V80.5714H658.201ZM656.459 66.5714H644.201V94.5714H656.459V66.5714ZM670.459 105.143V80.5714H642.459V105.143H670.459ZM796.48 129.714V117.429H768.48V129.714H796.48ZM770.223 143.714H782.48V115.714H770.223V143.714ZM784.223 142V129.714H756.223V142H784.223ZM721.193 156H770.223V128H721.193V156ZM707.193 129.714V142H735.193V129.714H707.193ZM708.936 143.714H721.193V115.714H708.936V143.714ZM694.936 117.429V129.714H722.936V117.429H694.936ZM696.679 131.429H708.936V103.429H696.679V131.429ZM682.679 80.5714V117.429H710.679V80.5714H682.679ZM708.936 66.5714H696.679V94.5714H708.936V66.5714ZM694.936 68.2857V80.5714H722.936V68.2857H694.936ZM721.193 54.2857H708.936V82.2857H721.193V54.2857ZM707.193 56V68.2857H735.193V56H707.193ZM770.223 42H721.193V70H770.223V42ZM784.223 68.2857V56H756.223V68.2857H784.223ZM782.48 54.2857H770.223V82.2857H782.48V54.2857ZM796.48 80.5714V68.2857H768.48V80.5714H796.48ZM757.965 94.5714H782.48V66.5714H757.965V94.5714ZM743.965 68.2857V80.5714H771.965V68.2857H743.965ZM733.45 82.2857H757.965V54.2857H733.45V82.2857ZM747.45 80.5714V68.2857H719.45V80.5714H747.45ZM721.193 94.5714H733.45V66.5714H721.193V94.5714ZM735.193 117.429V80.5714H707.193V117.429H735.193ZM733.45 103.429H721.193V131.429H733.45V103.429ZM747.45 129.714V117.429H719.45V129.714H747.45ZM757.965 115.714H733.45V143.714H757.965V115.714ZM743.965 117.429V129.714H771.965V117.429H743.965ZM782.48 103.429H757.965V131.429H782.48V103.429ZM863.858 56V68.2857H891.858V56H863.858ZM804.313 70H877.858V42H804.313V70ZM818.313 68.2857V56H790.313V68.2857H818.313ZM816 54.2857H804.313V82.2857H816V54.2857ZM830 81V68.2857H802V81H830ZM828.828 67H816V95H828.828V67ZM842.828 129.714V81H814.828V129.714H842.828ZM804.313 143.714H828.828V115.714H804.313V143.714ZM818.313 142V129.714H790.313V142H818.313ZM877.858 128H804.313V156H877.858V128ZM863.858 129.714V142H891.858V129.714H863.858ZM866 143.714H877.858V115.714H866V143.714ZM880 129.714V117H852V129.714H880ZM866 103H853.344V131H866V103ZM839.344 68.2857V117H867.344V68.2857H839.344ZM877.858 54.2857H853.344V82.2857H877.858V54.2857ZM999.493 142V56H971.493V142H999.493ZM960.979 156H985.493V128H960.979V156ZM946.979 129.714V142H974.979V129.714H946.979ZM948.721 143.714H960.979V115.714H948.721V143.714ZM934.721 117.429V129.714H962.721V117.429H934.721ZM936.464 131.429H948.721V103.429H936.464V131.429ZM922.464 105.143V117.429H950.464V105.143H922.464ZM924.206 119.143H936.464V91.1429H924.206V119.143ZM938.206 142V105.143H910.206V142H938.206ZM899.691 156H924.206V128H899.691V156ZM885.691 56V142H913.691V56H885.691ZM924.206 42H899.691V70H924.206V42ZM938.206 68.2857V56H910.206V68.2857H938.206ZM936.464 54.2857H924.206V82.2857H936.464V54.2857ZM950.464 80.5714V68.2857H922.464V80.5714H950.464ZM948.721 66.5714H936.464V94.5714H948.721V66.5714ZM962.721 92.8571V80.5714H934.721V92.8571H962.721ZM960.979 78.8571H948.721V106.857H960.979V78.8571ZM946.979 56V92.8571H974.979V56H946.979ZM985.493 42H960.979V70H985.493V42ZM1073 92.8571V142H1101V92.8571H1073ZM1050.23 106.857H1087V78.8571H1050.23V106.857ZM1064.23 105.143V92.8571H1036.23V105.143H1064.23ZM1062.49 91.1429H1050.23V119.143H1062.49V91.1429ZM1076.49 129.714V105.143H1048.49V129.714H1076.49ZM1037.97 143.714H1062.49V115.714H1037.97V143.714ZM1023.97 117.429V129.714H1051.97V117.429H1023.97ZM1025.71 131.429H1037.97V103.429H1025.71V131.429ZM1011.71 80.5714V117.429H1039.71V80.5714H1011.71ZM1037.97 66.5714H1025.71V94.5714H1037.97V66.5714ZM1023.97 68.2857V80.5714H1051.97V68.2857H1023.97ZM1087 54.2857H1037.97V82.2857H1087V54.2857ZM1073 56V68.2857H1101V56H1073ZM1025.71 70H1087V42H1025.71V70ZM1039.71 68.2857V56H1011.71V68.2857H1039.71ZM1013.46 82.2857H1025.71V54.2857H1013.46V82.2857ZM1027.46 80.5714V68.2857H999.456V80.5714H1027.46ZM1001.2 94.5714H1013.46V66.5714H1001.2V94.5714ZM1015.2 117.429V80.5714H987.198V117.429H1015.2ZM1013.46 103.429H1001.2V131.429H1013.46V103.429ZM1027.46 129.469V117.429H999.456V129.469H1027.46ZM1025.71 115.469H1013.46V143.469H1025.71V115.469ZM1039.71 142V129.469H1011.71V142H1039.71ZM1087 128H1025.71V156H1087V128ZM343.194 68.2857V129.714H371.194V68.2857H343.194ZM344.952 82.2857H357.194V54.2857H344.952V82.2857ZM330.952 56V68.2857H358.952V56H330.952ZM283.744 70H344.952V42H283.744V70ZM297.744 68.2857V56H269.744V68.2857H297.744ZM271.503 82.2857H283.744V54.2857H271.503V82.2857ZM285.503 129.714V68.2857H257.503V129.714H285.503ZM283.744 115.714H271.503V143.714H283.744V115.714ZM297.744 142V129.714H269.744V142H297.744ZM344.952 128H283.744V156H344.952V128ZM330.952 129.714V142H358.952V129.714H330.952ZM357.194 115.714H344.952V143.714H357.194V115.714ZM295.986 143.714H332.711V115.714H295.986V143.714ZM281.986 68.2857V129.714H309.986V68.2857H281.986ZM332.711 54.2857H295.986V82.2857H332.711V54.2857ZM346.711 129.714V68.2857H318.711V129.714H346.711ZM472.569 142V117.429H444.569V142H472.569ZM434.086 156H458.569V128H434.086V156ZM420.086 129.714V142H448.086V129.714H420.086ZM421.845 143.714H434.086V115.714H421.845V143.714ZM407.845 117.429V129.714H435.845V117.429H407.845ZM409.604 131.429H421.845V103.429H409.604V131.429ZM423.604 129.714V117.429H395.604V129.714H423.604ZM397.361 143.714H409.604V115.714H397.361V143.714ZM411.361 142V129.714H383.361V142H411.361ZM372.878 156H397.361V128H372.878V156ZM358.878 117.429V142H386.878V117.429H358.878ZM385.12 103.429H372.878V131.429H385.12V103.429ZM371.12 105.143V117.429H399.12V105.143H371.12ZM397.361 91.1429H385.12V119.143H397.361V91.1429ZM383.361 92.8571V105.143H411.361V92.8571H383.361ZM385.12 106.857H397.361V78.8571H385.12V106.857ZM371.12 80.5714V92.8571H399.12V80.5714H371.12ZM372.878 94.5714H385.12V66.5714H372.878V94.5714ZM358.878 56V80.5714H386.878V56H358.878ZM397.361 42H372.878V70H397.361V42ZM411.361 68.2857V56H383.361V68.2857H411.361ZM409.604 54.2857H397.361V82.2857H409.604V54.2857ZM423.604 80.5714V68.2857H395.604V80.5714H423.604ZM421.845 66.5714H409.604V94.5714H421.845V66.5714ZM407.845 68.2857V80.5714H435.845V68.2857H407.845ZM434.086 54.2857H421.845V82.2857H434.086V54.2857ZM420.086 56V68.2857H448.086V56H420.086ZM458.569 42H434.086V70H458.569V42ZM472.569 80.5714V56H444.569V80.5714H472.569ZM446.328 94.5714H458.569V66.5714H446.328V94.5714ZM460.328 92.8571V80.5714H432.328V92.8571H460.328ZM434.086 106.857H446.328V78.8571H434.086V106.857ZM448.086 105.143V92.8571H420.086V105.143H448.086ZM446.328 91.1429H434.086V119.143H446.328V91.1429ZM460.328 117.429V105.143H432.328V117.429H460.328ZM458.569 103.429H446.328V131.429H458.569V103.429Z" fill="#101010" mask="url(#path-2-outside-1_188_7193)"/>
</svg>
