<svg width="126" height="16" viewBox="0 0 126 16" fill="none" xmlns="http://www.w3.org/2000/svg">
<path d="M0.970211 4.44H2.45421V5.756C2.61288 5.28 2.87421 4.92533 3.23821 4.692C3.60221 4.44933 4.02688 4.328 4.51221 4.328C4.77354 4.328 5.01154 4.356 5.22621 4.412C5.45021 4.45867 5.63688 4.52867 5.78621 4.622L5.19821 6.078C4.97421 5.92867 4.65688 5.854 4.24621 5.854C3.70488 5.854 3.27554 5.99867 2.95821 6.288C2.64088 6.57733 2.48221 7.06267 2.48221 7.744V12H0.970211V4.44ZM9.92923 12.154C9.37856 12.154 8.86523 12.0513 8.38923 11.846C7.91323 11.6407 7.49789 11.3607 7.14323 11.006C6.78856 10.6513 6.50856 10.236 6.30323 9.76C6.09789 9.284 5.99523 8.77067 5.99523 8.22C5.99523 7.67867 6.09789 7.17 6.30323 6.694C6.50856 6.20867 6.78856 5.78867 7.14323 5.434C7.49789 5.07933 7.91323 4.79933 8.38923 4.594C8.86523 4.38867 9.37856 4.286 9.92923 4.286C10.4706 4.286 10.9792 4.38867 11.4552 4.594C11.9406 4.79933 12.3606 5.07933 12.7152 5.434C13.0699 5.78867 13.3499 6.20867 13.5552 6.694C13.7606 7.17 13.8632 7.67867 13.8632 8.22C13.8632 8.77067 13.7606 9.284 13.5552 9.76C13.3499 10.236 13.0699 10.6513 12.7152 11.006C12.3606 11.3607 11.9406 11.6407 11.4552 11.846C10.9792 12.0513 10.4706 12.154 9.92923 12.154ZM9.92923 10.74C10.2746 10.74 10.5919 10.6747 10.8812 10.544C11.1799 10.4133 11.4366 10.236 11.6512 10.012C11.8752 9.77867 12.0479 9.51267 12.1692 9.214C12.2999 8.906 12.3652 8.57467 12.3652 8.22C12.3652 7.87467 12.2999 7.548 12.1692 7.24C12.0479 6.932 11.8752 6.666 11.6512 6.442C11.4366 6.20867 11.1799 6.02667 10.8812 5.896C10.5826 5.76533 10.2652 5.7 9.92923 5.7C9.58389 5.7 9.26189 5.76533 8.96323 5.896C8.67389 6.02667 8.41723 6.20867 8.19323 6.442C7.97856 6.666 7.81056 6.932 7.68923 7.24C7.56789 7.548 7.50723 7.87467 7.50723 8.22C7.50723 8.57467 7.56789 8.906 7.68923 9.214C7.81056 9.51267 7.97856 9.77867 8.19323 10.012C8.41723 10.236 8.67389 10.4133 8.96323 10.544C9.26189 10.6747 9.58389 10.74 9.92923 10.74ZM19.0354 12.154C18.4754 12.154 17.9527 12.0513 17.4674 11.846C16.982 11.6407 16.562 11.3607 16.2074 11.006C15.8527 10.6513 15.5727 10.236 15.3674 9.76C15.1714 9.284 15.0734 8.77067 15.0734 8.22C15.0734 7.66 15.176 7.142 15.3814 6.666C15.5867 6.19 15.8667 5.77467 16.2214 5.42C16.576 5.06533 16.9914 4.79 17.4674 4.594C17.9527 4.38867 18.4707 4.286 19.0214 4.286C19.4414 4.286 19.8334 4.342 20.1974 4.454C20.5707 4.566 20.9114 4.72467 21.2194 4.93C21.5274 5.13533 21.798 5.38267 22.0314 5.672C22.274 5.952 22.4654 6.26 22.6054 6.596L21.2474 7.184C21.0514 6.71733 20.7574 6.35333 20.3654 6.092C19.9827 5.83067 19.5347 5.7 19.0214 5.7C18.6667 5.7 18.34 5.76533 18.0414 5.896C17.7427 6.02667 17.4814 6.20867 17.2574 6.442C17.0427 6.666 16.87 6.932 16.7394 7.24C16.618 7.548 16.5574 7.87467 16.5574 8.22C16.5574 8.56533 16.618 8.892 16.7394 9.2C16.87 9.508 17.0474 9.77867 17.2714 10.012C17.4954 10.236 17.7567 10.4133 18.0554 10.544C18.3634 10.6747 18.6947 10.74 19.0494 10.74C19.5907 10.74 20.048 10.5953 20.4214 10.306C20.804 10.0073 21.0887 9.63867 21.2754 9.2L22.6474 9.774C22.3487 10.474 21.8914 11.048 21.2754 11.496C20.6594 11.9347 19.9127 12.154 19.0354 12.154ZM26.85 8.57L25.492 10.04V12H23.994V0.967999H25.492V8.304L29.02 4.44H30.868L27.942 7.618L31.036 12H29.258L26.85 8.57ZM35.0328 12.154C34.4261 12.154 33.8754 12.056 33.3808 11.86C32.8954 11.6547 32.4754 11.3793 32.1208 11.034C31.7661 10.6793 31.4908 10.264 31.2948 9.788C31.1081 9.312 31.0148 8.79867 31.0148 8.248C31.0148 7.688 31.1128 7.17 31.3088 6.694C31.5141 6.20867 31.7941 5.78867 32.1488 5.434C32.5034 5.07933 32.9188 4.79933 33.3948 4.594C33.8708 4.38867 34.3888 4.286 34.9488 4.286C35.5088 4.286 36.0221 4.384 36.4888 4.58C36.9648 4.76667 37.3754 5.03267 37.7208 5.378C38.0661 5.72333 38.3368 6.134 38.5328 6.61C38.7288 7.07667 38.8268 7.59 38.8268 8.15V8.78H32.4708C32.5828 9.396 32.8628 9.89067 33.3108 10.264C33.7588 10.628 34.3328 10.81 35.0328 10.81C35.5648 10.81 36.0081 10.698 36.3628 10.474C36.7268 10.25 37.0208 9.956 37.2448 9.592L38.4908 10.334C38.1268 10.8847 37.6648 11.328 37.1048 11.664C36.5448 11.9907 35.8541 12.154 35.0328 12.154ZM34.9488 5.616C34.3421 5.616 33.8241 5.79333 33.3948 6.148C32.9654 6.49333 32.6761 6.94133 32.5268 7.492H37.3008C37.1888 6.89467 36.9228 6.43267 36.5028 6.106C36.0921 5.77933 35.5741 5.616 34.9488 5.616ZM39.4301 4.44H40.9281V2.802L42.4121 1.836V4.44H44.5261V5.798H42.4121V9.522C42.4121 9.942 42.5007 10.2453 42.6781 10.432C42.8647 10.6187 43.1074 10.712 43.4061 10.712C43.6954 10.712 43.9521 10.614 44.1761 10.418L44.8901 11.678C44.6754 11.8273 44.4327 11.9393 44.1621 12.014C43.9007 12.098 43.6114 12.14 43.2941 12.14C42.5381 12.14 41.9547 11.9393 41.5441 11.538C41.1334 11.1367 40.9281 10.4693 40.9281 9.536V5.798H39.4301V4.44ZM48.3284 8.164L45.5424 4.44H47.3624L49.2664 7.016L51.1844 4.44H52.9764L50.1904 8.15L53.1444 12H51.2824L49.2524 9.312L47.2644 12H45.4164L48.3284 8.164ZM54.1192 11.16C54.1192 10.852 54.2172 10.5953 54.4132 10.39C54.6186 10.1847 54.8752 10.082 55.1832 10.082C55.5006 10.082 55.7572 10.1847 55.9532 10.39C56.1586 10.5953 56.2612 10.852 56.2612 11.16C56.2612 11.468 56.1586 11.7247 55.9532 11.93C55.7572 12.1353 55.5006 12.238 55.1832 12.238C54.8659 12.238 54.6092 12.1353 54.4132 11.93C54.2172 11.7247 54.1192 11.468 54.1192 11.16ZM61.4058 12.154C60.7991 12.154 60.2485 12.056 59.7538 11.86C59.2685 11.6547 58.8485 11.3793 58.4938 11.034C58.1391 10.6793 57.8638 10.264 57.6678 9.788C57.4811 9.312 57.3878 8.79867 57.3878 8.248C57.3878 7.688 57.4858 7.17 57.6818 6.694C57.8871 6.20867 58.1671 5.78867 58.5218 5.434C58.8765 5.07933 59.2918 4.79933 59.7678 4.594C60.2438 4.38867 60.7618 4.286 61.3218 4.286C61.8818 4.286 62.3951 4.384 62.8618 4.58C63.3378 4.76667 63.7485 5.03267 64.0938 5.378C64.4391 5.72333 64.7098 6.134 64.9058 6.61C65.1018 7.07667 65.1998 7.59 65.1998 8.15V8.78H58.8438C58.9558 9.396 59.2358 9.89067 59.6838 10.264C60.1318 10.628 60.7058 10.81 61.4058 10.81C61.9378 10.81 62.3811 10.698 62.7358 10.474C63.0998 10.25 63.3938 9.956 63.6178 9.592L64.8638 10.334C64.4998 10.8847 64.0378 11.328 63.4778 11.664C62.9178 11.9907 62.2271 12.154 61.4058 12.154ZM61.3218 5.616C60.7151 5.616 60.1971 5.79333 59.7678 6.148C59.3385 6.49333 59.0491 6.94133 58.8998 7.492H63.6738C63.5618 6.89467 63.2958 6.43267 62.8758 6.106C62.4651 5.77933 61.9471 5.616 61.3218 5.616ZM68.426 8.164L65.64 4.44H67.46L69.364 7.016L71.282 4.44H73.074L70.288 8.15L73.242 12H71.38L69.35 9.312L67.362 12H65.514L68.426 8.164ZM77.5236 12.154C76.9636 12.154 76.441 12.0513 75.9556 11.846C75.4703 11.6407 75.0503 11.3607 74.6956 11.006C74.341 10.6513 74.061 10.236 73.8556 9.76C73.6596 9.284 73.5616 8.77067 73.5616 8.22C73.5616 7.66 73.6643 7.142 73.8696 6.666C74.075 6.19 74.355 5.77467 74.7096 5.42C75.0643 5.06533 75.4796 4.79 75.9556 4.594C76.441 4.38867 76.959 4.286 77.5096 4.286C77.9296 4.286 78.3216 4.342 78.6856 4.454C79.059 4.566 79.3996 4.72467 79.7076 4.93C80.0156 5.13533 80.2863 5.38267 80.5196 5.672C80.7623 5.952 80.9536 6.26 81.0936 6.596L79.7356 7.184C79.5396 6.71733 79.2456 6.35333 78.8536 6.092C78.471 5.83067 78.023 5.7 77.5096 5.7C77.155 5.7 76.8283 5.76533 76.5296 5.896C76.231 6.02667 75.9696 6.20867 75.7456 6.442C75.531 6.666 75.3583 6.932 75.2276 7.24C75.1063 7.548 75.0456 7.87467 75.0456 8.22C75.0456 8.56533 75.1063 8.892 75.2276 9.2C75.3583 9.508 75.5356 9.77867 75.7596 10.012C75.9836 10.236 76.245 10.4133 76.5436 10.544C76.8516 10.6747 77.183 10.74 77.5376 10.74C78.079 10.74 78.5363 10.5953 78.9096 10.306C79.2923 10.0073 79.577 9.63867 79.7636 9.2L81.1356 9.774C80.837 10.474 80.3796 11.048 79.7636 11.496C79.1476 11.9347 78.401 12.154 77.5236 12.154ZM82.4823 0.967999H83.9803V5.448C84.2509 5.09333 84.5869 4.81333 84.9883 4.608C85.3989 4.39333 85.8609 4.286 86.3743 4.286C86.8503 4.286 87.2796 4.36533 87.6623 4.524C88.0543 4.67333 88.3809 4.89267 88.6423 5.182C88.9129 5.462 89.1183 5.812 89.2583 6.232C89.4076 6.64267 89.4823 7.10467 89.4823 7.618V12H87.9423V7.73C87.9423 7.086 87.7789 6.57267 87.4523 6.19C87.1349 5.80733 86.6543 5.616 86.0103 5.616C85.7303 5.616 85.4643 5.66733 85.2123 5.77C84.9696 5.87267 84.7549 6.022 84.5683 6.218C84.3909 6.40467 84.2509 6.638 84.1483 6.918C84.0456 7.18867 83.9943 7.492 83.9943 7.828V12H82.4823V0.967999ZM93.5572 12.154C93.1186 12.154 92.7312 12.098 92.3952 11.986C92.0686 11.874 91.7932 11.72 91.5692 11.524C91.3452 11.3187 91.1726 11.0807 91.0512 10.81C90.9392 10.53 90.8832 10.2313 90.8832 9.914C90.8832 9.13 91.1819 8.51867 91.7792 8.08C92.3859 7.632 93.2212 7.408 94.2852 7.408H96.5252V7.282C96.5252 6.778 96.3666 6.36733 96.0492 6.05C95.7319 5.73267 95.2372 5.574 94.5652 5.574C94.0612 5.574 93.6272 5.686 93.2632 5.91C92.8992 6.12467 92.6099 6.41867 92.3952 6.792L91.0512 6.008C91.4246 5.51333 91.9006 5.10267 92.4792 4.776C93.0672 4.44933 93.7672 4.286 94.5792 4.286C95.1206 4.286 95.6012 4.36067 96.0212 4.51C96.4506 4.65 96.8099 4.85533 97.0992 5.126C97.3886 5.38733 97.6079 5.70467 97.7572 6.078C97.9066 6.45133 97.9812 6.86667 97.9812 7.324V12H96.5252V10.67C96.2266 11.118 95.8159 11.4773 95.2932 11.748C94.7706 12.0187 94.1919 12.154 93.5572 12.154ZM93.8792 10.838C94.1499 10.838 94.4159 10.8007 94.6772 10.726C94.9386 10.6513 95.1859 10.5487 95.4192 10.418C95.6526 10.278 95.8626 10.11 96.0492 9.914C96.2452 9.718 96.4039 9.494 96.5252 9.242V8.612H94.3832C93.6832 8.612 93.1792 8.71467 92.8712 8.92C92.5726 9.12533 92.4232 9.41467 92.4232 9.788C92.4232 10.1147 92.5399 10.3713 92.7732 10.558C93.0066 10.7447 93.3752 10.838 93.8792 10.838ZM99.6951 4.44H101.179V5.49C101.44 5.126 101.772 4.83667 102.173 4.622C102.584 4.398 103.055 4.286 103.587 4.286C104.063 4.286 104.492 4.36533 104.875 4.524C105.267 4.67333 105.594 4.89267 105.855 5.182C106.126 5.462 106.331 5.812 106.471 6.232C106.62 6.64267 106.695 7.10467 106.695 7.618V12H105.169V7.73C105.169 7.086 105.006 6.57267 104.679 6.19C104.352 5.80733 103.872 5.616 103.237 5.616C102.948 5.616 102.677 5.66733 102.425 5.77C102.182 5.87267 101.968 6.022 101.781 6.218C101.604 6.40467 101.464 6.638 101.361 6.918C101.258 7.18867 101.207 7.492 101.207 7.828V12H99.6951V4.44ZM111.918 12.154C111.423 12.154 110.947 12.0607 110.49 11.874C110.033 11.6873 109.627 11.4213 109.272 11.076C108.927 10.7307 108.647 10.3153 108.432 9.83C108.227 9.34467 108.124 8.808 108.124 8.22C108.124 7.62267 108.227 7.086 108.432 6.61C108.637 6.12467 108.913 5.70933 109.258 5.364C109.613 5.01867 110.019 4.75267 110.476 4.566C110.943 4.37933 111.428 4.286 111.932 4.286C112.436 4.286 112.917 4.398 113.374 4.622C113.841 4.83667 114.219 5.14 114.508 5.532V4.44H116.02V11.398C116.02 11.958 115.917 12.4667 115.712 12.924C115.516 13.3907 115.241 13.7873 114.886 14.114C114.541 14.45 114.13 14.7067 113.654 14.884C113.187 15.0707 112.683 15.164 112.142 15.164C111.227 15.164 110.471 15.0287 109.874 14.758C109.286 14.4873 108.787 14.0953 108.376 13.582L109.594 12.588C109.893 12.9987 110.233 13.2973 110.616 13.484C110.999 13.68 111.498 13.778 112.114 13.778C112.478 13.778 112.805 13.722 113.094 13.61C113.393 13.498 113.645 13.3393 113.85 13.134C114.065 12.9287 114.228 12.6813 114.34 12.392C114.461 12.112 114.522 11.7993 114.522 11.454V10.866C114.233 11.2673 113.855 11.5847 113.388 11.818C112.921 12.042 112.431 12.154 111.918 12.154ZM112.114 10.768C112.469 10.768 112.795 10.7027 113.094 10.572C113.402 10.432 113.663 10.25 113.878 10.026C114.102 9.79267 114.275 9.522 114.396 9.214C114.527 8.89667 114.592 8.56067 114.592 8.206C114.592 7.86067 114.527 7.534 114.396 7.226C114.275 6.90867 114.102 6.638 113.878 6.414C113.663 6.18067 113.402 5.99867 113.094 5.868C112.795 5.728 112.469 5.658 112.114 5.658C111.759 5.658 111.428 5.72333 111.12 5.854C110.821 5.98467 110.56 6.16667 110.336 6.4C110.112 6.624 109.935 6.89467 109.804 7.212C109.683 7.52 109.622 7.85133 109.622 8.206C109.622 8.56067 109.683 8.89667 109.804 9.214C109.935 9.522 110.112 9.79267 110.336 10.026C110.56 10.2593 110.821 10.4413 111.12 10.572C111.428 10.7027 111.759 10.768 112.114 10.768ZM121.494 12.154C120.887 12.154 120.336 12.056 119.842 11.86C119.356 11.6547 118.936 11.3793 118.582 11.034C118.227 10.6793 117.952 10.264 117.756 9.788C117.569 9.312 117.476 8.79867 117.476 8.248C117.476 7.688 117.574 7.17 117.77 6.694C117.975 6.20867 118.255 5.78867 118.61 5.434C118.964 5.07933 119.38 4.79933 119.856 4.594C120.332 4.38867 120.85 4.286 121.41 4.286C121.97 4.286 122.483 4.384 122.95 4.58C123.426 4.76667 123.836 5.03267 124.182 5.378C124.527 5.72333 124.798 6.134 124.994 6.61C125.19 7.07667 125.288 7.59 125.288 8.15V8.78H118.932C119.044 9.396 119.324 9.89067 119.772 10.264C120.22 10.628 120.794 10.81 121.494 10.81C122.026 10.81 122.469 10.698 122.824 10.474C123.188 10.25 123.482 9.956 123.706 9.592L124.952 10.334C124.588 10.8847 124.126 11.328 123.566 11.664C123.006 11.9907 122.315 12.154 121.494 12.154ZM121.41 5.616C120.803 5.616 120.285 5.79333 119.856 6.148C119.426 6.49333 119.137 6.94133 118.988 7.492H123.762C123.65 6.89467 123.384 6.43267 122.964 6.106C122.553 5.77933 122.035 5.616 121.41 5.616Z" fill="#101010"/>
</svg>
